<svg width="1918" height="902" viewBox="0 0 1918 902" fill="none" xmlns="http://www.w3.org/2000/svg">
<g clip-path="url(#clip0)">
<path d="M1339.8 26.0452L452.8 785.445L493.3 789.345L1378.1 31.9452L1339.8 26.0452Z" fill="url(#paint0_linear)"/>
<path d="M1380.5 32.2451L495.8 789.545L536.3 793.545L1418.7 38.0451L1380.5 32.2451Z" fill="url(#paint1_linear)"/>
<path d="M1917.5 228.245L1184.2 856.045L1223.6 859.845L1917.5 265.845V228.245Z" fill="url(#paint2_linear)"/>
<path d="M1461.8 44.6451L581.9 797.945L622.2 801.845L1499.9 50.4451L1461.8 44.6451Z" fill="url(#paint3_linear)"/>
<path d="M1917.5 269.245L1227.2 860.245L1266.6 864.045L1917.5 306.845V269.245Z" fill="url(#paint4_linear)"/>
<path d="M1421.1 38.4451L538.8 793.745L579.2 797.645L1459.3 44.2451L1421.1 38.4451Z" fill="url(#paint5_linear)"/>
<path d="M1917.5 187.245L1141.1 851.945L1180.7 855.745L1917.5 224.945V187.245Z" fill="url(#paint6_linear)"/>
<path d="M1299.2 19.9451L409.8 781.245L450.3 785.245L1337.5 25.7451L1299.2 19.9451Z" fill="url(#paint7_linear)"/>
<path d="M1217.8 7.54517L323.7 772.945L364.4 776.945L1256.3 13.3452L1217.8 7.54517Z" fill="url(#paint8_linear)"/>
<path d="M1917.5 310.245L1270.2 864.345L1309.6 868.145L1917.5 347.745V310.245Z" fill="url(#paint9_linear)"/>
<path d="M1258.5 13.7451L366.7 777.145L407.4 781.045L1296.9 19.5451L1258.5 13.7451Z" fill="url(#paint10_linear)"/>
<path d="M1917.5 146.345L1098.1 847.745L1137.7 851.545L1917.5 184.045V146.345Z" fill="url(#paint11_linear)"/>
<path d="M1868.3 106.445L1012.1 839.445L1051.8 843.245L1905.9 112.145L1868.3 106.445Z" fill="url(#paint12_linear)"/>
<path d="M1705.7 81.7451L840 822.845L879.9 826.645L1743.5 87.4451L1705.7 81.7451Z" fill="url(#paint13_linear)"/>
<path d="M1746.4 87.8451L883 826.945L922.9 830.845L1784.1 93.6451L1746.4 87.8451Z" fill="url(#paint14_linear)"/>
<path d="M1787 94.0452L926 831.145L965.9 834.945L1824.7 99.7452L1787 94.0452Z" fill="url(#paint15_linear)"/>
<path d="M1502.4 50.8451L624.9 802.045L665.1 805.945L1540.5 56.5451L1502.4 50.8451Z" fill="url(#paint16_linear)"/>
<path d="M1665.1 75.5452L797 818.645L837 822.545L1702.9 81.2452L1665.1 75.5452Z" fill="url(#paint17_linear)"/>
<path d="M1543.1 56.9451L667.9 806.245L708.1 810.045L1581.1 62.7451L1543.1 56.9451Z" fill="url(#paint18_linear)"/>
<path d="M1177.2 1.34509L280.7 768.845L321.4 772.745L1215.7 7.24509L1177.2 1.34509Z" fill="url(#paint19_linear)"/>
<path d="M1917.5 113.945L1909 112.645L1055.1 843.645L1094.8 847.445L1917.5 143.145V113.945Z" fill="url(#paint20_linear)"/>
<path d="M1624.4 69.3451L753.9 814.545L794 818.345L1662.3 75.1451L1624.4 69.3451Z" fill="url(#paint21_linear)"/>
<path d="M1583.8 63.1451L710.9 810.345L751.1 814.245L1621.7 68.9451L1583.8 63.1451Z" fill="url(#paint22_linear)"/>
<path d="M303.5 298.445L0 558.245V597.745L380.5 271.945L303.5 298.445Z" fill="url(#paint23_linear)"/>
<path d="M223.4 326.045L0 517.345V556.845L300.6 299.445L223.4 326.045Z" fill="url(#paint24_linear)"/>
<path d="M1827.7 100.245L969.1 835.245L1008.8 839.145L1865.3 105.945L1827.7 100.245Z" fill="url(#paint25_linear)"/>
<path d="M1917.5 556.145L1528.3 889.345L1567.3 893.045L1917.5 593.345V556.145Z" fill="url(#paint26_linear)"/>
<path d="M383.6 270.945L0 599.245V638.645L460.5 244.445L383.6 270.945Z" fill="url(#paint27_linear)"/>
<path d="M463.6 243.345L0 640.245V679.545L540.5 216.945L463.6 243.345Z" fill="url(#paint28_linear)"/>
<path d="M63.2 381.245L0 435.345V474.945L140.6 354.545L63.2 381.245Z" fill="url(#paint29_linear)"/>
<path d="M1917.5 638.145L1614.4 897.645L1653.3 901.345L1917.5 675.145V638.145Z" fill="url(#paint30_linear)"/>
<path d="M0 402.945V434.045L60.7 382.045L0 402.945Z" fill="url(#paint31_linear)"/>
<path d="M1917.5 351.245L1313.2 868.545L1352.5 872.345L1917.5 388.645V351.245Z" fill="url(#paint32_linear)"/>
<path d="M1917.5 597.145L1571.4 893.445L1610.3 897.245L1917.5 634.245V597.145Z" fill="url(#paint33_linear)"/>
<path d="M1917.5 515.145L1485.3 885.145L1524.4 888.945L1917.5 552.345V515.145Z" fill="url(#paint34_linear)"/>
<path d="M143.3 353.645L0 476.345V515.845L220.6 327.045L143.3 353.645Z" fill="url(#paint35_linear)"/>
<path d="M1917.5 392.245L1356.3 872.645L1395.5 876.445L1917.5 429.545V392.245Z" fill="url(#paint36_linear)"/>
<path d="M864 105.545L108.6 752.245L149.6 756.145L940.3 79.2451L864 105.545Z" fill="url(#paint37_linear)"/>
<path d="M944.1 77.9451L151.6 756.345L192.6 760.345L1020.3 51.7451L944.1 77.9451Z" fill="url(#paint38_linear)"/>
<path d="M1169.8 0.245117L1104.3 22.8451L237.7 764.645L278.5 768.645L1175.1 1.04512L1169.8 0.245117Z" fill="url(#paint39_linear)"/>
<path d="M1024.2 50.3451L194.7 760.545L235.5 764.445L1100.3 24.1451L1024.2 50.3451Z" fill="url(#paint40_linear)"/>
<path d="M1917.5 433.245L1399.3 876.845L1438.5 880.645L1917.5 470.545V433.245Z" fill="url(#paint41_linear)"/>
<path d="M1917.5 474.145L1442.3 880.945L1481.4 884.745L1917.5 511.445V474.145Z" fill="url(#paint42_linear)"/>
<path d="M623.8 188.245L0 722.245V741.745L20.7 743.745L700.4 161.845L623.8 188.245Z" fill="url(#paint43_linear)"/>
<path d="M543.7 215.745L0 681.245V720.545L620.4 189.345L543.7 215.745Z" fill="url(#paint44_linear)"/>
<path d="M703.9 160.645L22.5996 743.945L63.6996 747.845L780.4 134.345L703.9 160.645Z" fill="url(#paint45_linear)"/>
<path d="M784 133.045L65.5996 748.045L106.6 752.045L860.4 106.745L784 133.045Z" fill="url(#paint46_linear)"/>
<path d="M1917.5 677.145V675.145L1653.3 901.345L1655.3 901.545L1917.5 677.145Z" fill="#A8DD80"/>
<path d="M1917.5 634.245L1610.3 897.245L1614.4 897.645L1917.5 638.145V634.245Z" fill="#A8DD80"/>
<path d="M1917.5 593.345L1567.3 893.045L1571.4 893.445L1917.5 597.145V593.345Z" fill="#A8DD80"/>
<path d="M1917.5 552.345L1524.4 888.945L1528.3 889.345L1917.5 556.145V552.345Z" fill="#A8DD80"/>
<path d="M1917.5 511.445L1481.4 884.745L1485.3 885.145L1917.5 515.145V511.445Z" fill="#A8DD80"/>
<path d="M1917.5 470.545L1438.5 880.645L1442.3 880.945L1917.5 474.145V470.545Z" fill="#A8DD80"/>
<path d="M1917.5 429.545L1395.5 876.445L1399.3 876.845L1917.5 433.245V429.545Z" fill="#A8DD80"/>
<path d="M1917.5 388.645L1352.5 872.345L1356.3 872.645L1917.5 392.245V388.645Z" fill="#A8DD80"/>
<path d="M1917.5 347.745L1309.6 868.145L1313.2 868.545L1917.5 351.245V347.745Z" fill="#A8DD80"/>
<path d="M1917.5 306.845L1266.6 864.045L1270.2 864.345L1917.5 310.245V306.845Z" fill="#A8DD80"/>
<path d="M1917.5 265.845L1223.6 859.845L1227.2 860.245L1917.5 269.245V265.845Z" fill="#A8DD80"/>
<path d="M1917.5 224.945L1180.7 855.745L1184.2 856.045L1917.5 228.245V224.945Z" fill="#A8DD80"/>
<path d="M1917.5 184.045L1137.7 851.545L1141.1 851.945L1917.5 187.245V184.045Z" fill="#A8DD80"/>
<path d="M1917.5 143.145L1094.8 847.445L1098.1 847.745L1917.5 146.345V143.145Z" fill="#A8DD80"/>
<path d="M1905.9 112.145L1051.8 843.245L1055.1 843.645L1909 112.645L1905.9 112.145Z" fill="#A8DD80"/>
<path d="M1865.3 105.945L1008.8 839.145L1012.1 839.445L1868.3 106.445L1865.3 105.945Z" fill="#A8DD80"/>
<path d="M1824.7 99.7451L965.9 834.945L969.1 835.245L1827.7 100.245L1824.7 99.7451Z" fill="#A8DD80"/>
<path d="M1784.1 93.6451L922.9 830.845L926 831.145L1787 94.0451L1784.1 93.6451Z" fill="#A8DD80"/>
<path d="M1743.5 87.4451L879.9 826.645L883 826.945L1746.4 87.8451L1743.5 87.4451Z" fill="#A8DD80"/>
<path d="M1702.9 81.2451L837 822.545L840 822.845L1705.7 81.7451L1702.9 81.2451Z" fill="#A8DD80"/>
<path d="M1662.3 75.1451L794 818.345L797 818.645L1665.1 75.5451L1662.3 75.1451Z" fill="#A8DD80"/>
<path d="M1621.7 68.9451L751.1 814.245L753.9 814.545L1624.4 69.3451L1621.7 68.9451Z" fill="#A8DD80"/>
<path d="M1581.1 62.7451L708.1 810.045L710.9 810.345L1583.8 63.1451L1581.1 62.7451Z" fill="#A8DD80"/>
<path d="M1540.5 56.5452L665.1 805.945L667.9 806.245L1543.1 56.9452L1540.5 56.5452Z" fill="#A8DD80"/>
<path d="M1499.9 50.4451L622.2 801.845L624.9 802.045L1502.4 50.8451L1499.9 50.4451Z" fill="#A8DD80"/>
<path d="M1459.3 44.2451L579.2 797.645L581.9 797.945L1461.8 44.6451L1459.3 44.2451Z" fill="#A8DD80"/>
<path d="M1418.7 38.0452L536.3 793.545L538.8 793.745L1421.1 38.4452L1418.7 38.0452Z" fill="#A8DD80"/>
<path d="M1378.1 31.9451L493.3 789.345L495.8 789.545L1380.5 32.2451L1378.1 31.9451Z" fill="#A8DD80"/>
<path d="M1337.5 25.7451L450.3 785.245L452.8 785.445L1339.8 26.0451L1337.5 25.7451Z" fill="#A8DD80"/>
<path d="M1296.9 19.5452L407.4 781.045L409.8 781.245L1299.2 19.9452L1296.9 19.5452Z" fill="#A8DD80"/>
<path d="M1256.3 13.3451L364.4 776.945L366.7 777.145L1258.5 13.7451L1256.3 13.3451Z" fill="#A8DD80"/>
<path d="M1215.7 7.24512L321.4 772.745L323.7 772.945L1217.8 7.54512L1215.7 7.24512Z" fill="#A8DD80"/>
<path d="M1175.1 1.04517L278.5 768.645L280.7 768.845L1177.2 1.34517L1175.1 1.04517Z" fill="#A8DD80"/>
<path d="M1100.3 24.1451L235.5 764.445L237.7 764.645L1104.3 22.8451L1100.3 24.1451Z" fill="#A8DD80"/>
<path d="M1020.3 51.7451L192.6 760.345L194.7 760.545L1024.2 50.3451L1020.3 51.7451Z" fill="#A8DD80"/>
<path d="M940.3 79.2451L149.6 756.145L151.6 756.345L944.1 77.9451L940.3 79.2451Z" fill="#A8DD80"/>
<path d="M860.4 106.745L106.6 752.045L108.6 752.245L864 105.545L860.4 106.745Z" fill="#A8DD80"/>
<path d="M780.4 134.345L63.7002 747.845L65.6002 748.045L784 133.045L780.4 134.345Z" fill="#A8DD80"/>
<path d="M700.4 161.845L20.7002 743.745L22.6002 743.945L703.9 160.645L700.4 161.845Z" fill="#A8DD80"/>
<path d="M620.4 189.345L0 720.545V722.245L623.8 188.245L620.4 189.345Z" fill="#A8DD80"/>
<path d="M540.5 216.945L0 679.545V681.245L543.7 215.745L540.5 216.945Z" fill="#A8DD80"/>
<path d="M460.5 244.445L0 638.645V640.245L463.6 243.345L460.5 244.445Z" fill="#A8DD80"/>
<path d="M380.5 271.945L0 597.745V599.245L383.6 270.945L380.5 271.945Z" fill="#A8DD80"/>
<path d="M300.6 299.445L0 556.845V558.245L303.5 298.445L300.6 299.445Z" fill="#A8DD80"/>
<path d="M220.6 327.045L0 515.845V517.345L223.4 326.045L220.6 327.045Z" fill="#A8DD80"/>
<path d="M140.6 354.545L0 474.945V476.345L143.3 353.645L140.6 354.545Z" fill="#A8DD80"/>
<path d="M60.7 382.045L0 434.045V435.345L63.2 381.245L60.7 382.045Z" fill="#A8DD80"/>
</g>
<defs>
<linearGradient id="paint0_linear" x1="2013.18" y1="861.018" x2="455.182" y2="219.018" gradientUnits="userSpaceOnUse">
<stop stop-color="#93DD83"/>
<stop offset="1" stop-color="#A8DD80"/>
</linearGradient>
<linearGradient id="paint1_linear" x1="2017.43" y1="850.704" x2="459.433" y2="208.704" gradientUnits="userSpaceOnUse">
<stop stop-color="#93DD83"/>
<stop offset="1" stop-color="#A8DD80"/>
</linearGradient>
<linearGradient id="paint2_linear" x1="2058.39" y1="751.314" x2="500.388" y2="109.314" gradientUnits="userSpaceOnUse">
<stop stop-color="#93DD83"/>
<stop offset="1" stop-color="#A8DD80"/>
</linearGradient>
<linearGradient id="paint3_linear" x1="2025.93" y1="830.075" x2="467.934" y2="188.075" gradientUnits="userSpaceOnUse">
<stop stop-color="#93DD83"/>
<stop offset="1" stop-color="#A8DD80"/>
</linearGradient>
<linearGradient id="paint4_linear" x1="2053.56" y1="763.03" x2="495.56" y2="121.03" gradientUnits="userSpaceOnUse">
<stop stop-color="#93DD83"/>
<stop offset="1" stop-color="#A8DD80"/>
</linearGradient>
<linearGradient id="paint5_linear" x1="2021.68" y1="840.389" x2="463.683" y2="198.389" gradientUnits="userSpaceOnUse">
<stop stop-color="#93DD83"/>
<stop offset="1" stop-color="#A8DD80"/>
</linearGradient>
<linearGradient id="paint6_linear" x1="2063.22" y1="739.598" x2="505.215" y2="97.5981" gradientUnits="userSpaceOnUse">
<stop stop-color="#93DD83"/>
<stop offset="1" stop-color="#A8DD80"/>
</linearGradient>
<linearGradient id="paint7_linear" x1="2008.93" y1="871.333" x2="450.932" y2="229.333" gradientUnits="userSpaceOnUse">
<stop stop-color="#93DD83"/>
<stop offset="1" stop-color="#A8DD80"/>
</linearGradient>
<linearGradient id="paint8_linear" x1="2000.43" y1="891.962" x2="442.432" y2="249.962" gradientUnits="userSpaceOnUse">
<stop stop-color="#93DD83"/>
<stop offset="1" stop-color="#A8DD80"/>
</linearGradient>
<linearGradient id="paint9_linear" x1="2048.73" y1="774.746" x2="490.732" y2="132.746" gradientUnits="userSpaceOnUse">
<stop stop-color="#93DD83"/>
<stop offset="1" stop-color="#A8DD80"/>
</linearGradient>
<linearGradient id="paint10_linear" x1="2004.68" y1="881.647" x2="446.682" y2="239.647" gradientUnits="userSpaceOnUse">
<stop stop-color="#93DD83"/>
<stop offset="1" stop-color="#A8DD80"/>
</linearGradient>
<linearGradient id="paint11_linear" x1="2068.04" y1="727.882" x2="510.043" y2="85.8822" gradientUnits="userSpaceOnUse">
<stop stop-color="#93DD83"/>
<stop offset="1" stop-color="#A8DD80"/>
</linearGradient>
<linearGradient id="paint12_linear" x1="2068.44" y1="726.93" x2="510.435" y2="84.9296" gradientUnits="userSpaceOnUse">
<stop stop-color="#93DD83"/>
<stop offset="1" stop-color="#A8DD80"/>
</linearGradient>
<linearGradient id="paint13_linear" x1="2051.43" y1="768.188" x2="493.435" y2="126.188" gradientUnits="userSpaceOnUse">
<stop stop-color="#93DD83"/>
<stop offset="1" stop-color="#A8DD80"/>
</linearGradient>
<linearGradient id="paint14_linear" x1="2055.69" y1="757.873" x2="497.685" y2="115.873" gradientUnits="userSpaceOnUse">
<stop stop-color="#93DD83"/>
<stop offset="1" stop-color="#A8DD80"/>
</linearGradient>
<linearGradient id="paint15_linear" x1="2059.94" y1="747.559" x2="501.935" y2="105.559" gradientUnits="userSpaceOnUse">
<stop stop-color="#93DD83"/>
<stop offset="1" stop-color="#A8DD80"/>
</linearGradient>
<linearGradient id="paint16_linear" x1="2030.18" y1="819.76" x2="472.184" y2="177.76" gradientUnits="userSpaceOnUse">
<stop stop-color="#93DD83"/>
<stop offset="1" stop-color="#A8DD80"/>
</linearGradient>
<linearGradient id="paint17_linear" x1="2047.18" y1="778.502" x2="489.185" y2="136.502" gradientUnits="userSpaceOnUse">
<stop stop-color="#93DD83"/>
<stop offset="1" stop-color="#A8DD80"/>
</linearGradient>
<linearGradient id="paint18_linear" x1="2034.43" y1="809.445" x2="476.434" y2="167.446" gradientUnits="userSpaceOnUse">
<stop stop-color="#93DD83"/>
<stop offset="1" stop-color="#A8DD80"/>
</linearGradient>
<linearGradient id="paint19_linear" x1="1996.18" y1="902.276" x2="438.182" y2="260.276" gradientUnits="userSpaceOnUse">
<stop stop-color="#93DD83"/>
<stop offset="1" stop-color="#A8DD80"/>
</linearGradient>
<linearGradient id="paint20_linear" x1="2071.36" y1="719.835" x2="513.359" y2="77.8346" gradientUnits="userSpaceOnUse">
<stop stop-color="#93DD83"/>
<stop offset="1" stop-color="#A8DD80"/>
</linearGradient>
<linearGradient id="paint21_linear" x1="2042.93" y1="788.817" x2="484.935" y2="146.817" gradientUnits="userSpaceOnUse">
<stop stop-color="#93DD83"/>
<stop offset="1" stop-color="#A8DD80"/>
</linearGradient>
<linearGradient id="paint22_linear" x1="2038.68" y1="799.131" x2="480.685" y2="157.131" gradientUnits="userSpaceOnUse">
<stop stop-color="#93DD83"/>
<stop offset="1" stop-color="#A8DD80"/>
</linearGradient>
<linearGradient id="paint23_linear" x1="1898.7" y1="1138.83" x2="340.704" y2="496.834" gradientUnits="userSpaceOnUse">
<stop stop-color="#93DD83"/>
<stop offset="1" stop-color="#A8DD80"/>
</linearGradient>
<linearGradient id="paint24_linear" x1="1895.26" y1="1147.19" x2="337.26" y2="505.192" gradientUnits="userSpaceOnUse">
<stop stop-color="#93DD83"/>
<stop offset="1" stop-color="#A8DD80"/>
</linearGradient>
<linearGradient id="paint25_linear" x1="2064.19" y1="737.245" x2="506.185" y2="95.2443" gradientUnits="userSpaceOnUse">
<stop stop-color="#93DD83"/>
<stop offset="1" stop-color="#A8DD80"/>
</linearGradient>
<linearGradient id="paint26_linear" x1="2019.77" y1="845.041" x2="461.766" y2="203.042" gradientUnits="userSpaceOnUse">
<stop stop-color="#93DD83"/>
<stop offset="1" stop-color="#A8DD80"/>
</linearGradient>
<linearGradient id="paint27_linear" x1="1902.15" y1="1130.47" x2="344.148" y2="488.475" gradientUnits="userSpaceOnUse">
<stop stop-color="#93DD83"/>
<stop offset="1" stop-color="#A8DD80"/>
</linearGradient>
<linearGradient id="paint28_linear" x1="1905.59" y1="1122.12" x2="347.593" y2="480.116" gradientUnits="userSpaceOnUse">
<stop stop-color="#93DD83"/>
<stop offset="1" stop-color="#A8DD80"/>
</linearGradient>
<linearGradient id="paint29_linear" x1="1888.37" y1="1163.91" x2="330.371" y2="521.91" gradientUnits="userSpaceOnUse">
<stop stop-color="#93DD83"/>
<stop offset="1" stop-color="#A8DD80"/>
</linearGradient>
<linearGradient id="paint30_linear" x1="2010.11" y1="868.474" x2="452.111" y2="226.473" gradientUnits="userSpaceOnUse">
<stop stop-color="#93DD83"/>
<stop offset="1" stop-color="#A8DD80"/>
</linearGradient>
<linearGradient id="paint31_linear" x1="1884.93" y1="1172.27" x2="326.927" y2="530.268" gradientUnits="userSpaceOnUse">
<stop stop-color="#93DD83"/>
<stop offset="1" stop-color="#A8DD80"/>
</linearGradient>
<linearGradient id="paint32_linear" x1="2043.9" y1="786.462" x2="485.905" y2="144.462" gradientUnits="userSpaceOnUse">
<stop stop-color="#93DD83"/>
<stop offset="1" stop-color="#A8DD80"/>
</linearGradient>
<linearGradient id="paint33_linear" x1="2014.94" y1="856.758" x2="456.938" y2="214.758" gradientUnits="userSpaceOnUse">
<stop stop-color="#93DD83"/>
<stop offset="1" stop-color="#A8DD80"/>
</linearGradient>
<linearGradient id="paint34_linear" x1="2024.59" y1="833.326" x2="466.593" y2="191.326" gradientUnits="userSpaceOnUse">
<stop stop-color="#93DD83"/>
<stop offset="1" stop-color="#A8DD80"/>
</linearGradient>
<linearGradient id="paint35_linear" x1="1891.82" y1="1155.55" x2="333.815" y2="513.551" gradientUnits="userSpaceOnUse">
<stop stop-color="#93DD83"/>
<stop offset="1" stop-color="#A8DD80"/>
</linearGradient>
<linearGradient id="paint36_linear" x1="2039.08" y1="798.178" x2="481.077" y2="156.178" gradientUnits="userSpaceOnUse">
<stop stop-color="#93DD83"/>
<stop offset="1" stop-color="#A8DD80"/>
</linearGradient>
<linearGradient id="paint37_linear" x1="1953.95" y1="1004.77" x2="395.948" y2="362.767" gradientUnits="userSpaceOnUse">
<stop stop-color="#93DD83"/>
<stop offset="1" stop-color="#A8DD80"/>
</linearGradient>
<linearGradient id="paint38_linear" x1="1966.99" y1="973.114" x2="408.991" y2="331.114" gradientUnits="userSpaceOnUse">
<stop stop-color="#93DD83"/>
<stop offset="1" stop-color="#A8DD80"/>
</linearGradient>
<linearGradient id="paint39_linear" x1="1991.93" y1="912.59" x2="433.931" y2="270.591" gradientUnits="userSpaceOnUse">
<stop stop-color="#93DD83"/>
<stop offset="1" stop-color="#A8DD80"/>
</linearGradient>
<linearGradient id="paint40_linear" x1="1980.04" y1="941.46" x2="422.035" y2="299.46" gradientUnits="userSpaceOnUse">
<stop stop-color="#93DD83"/>
<stop offset="1" stop-color="#A8DD80"/>
</linearGradient>
<linearGradient id="paint41_linear" x1="2034.25" y1="809.894" x2="476.249" y2="167.894" gradientUnits="userSpaceOnUse">
<stop stop-color="#93DD83"/>
<stop offset="1" stop-color="#A8DD80"/>
</linearGradient>
<linearGradient id="paint42_linear" x1="2029.42" y1="821.61" x2="471.421" y2="179.61" gradientUnits="userSpaceOnUse">
<stop stop-color="#93DD83"/>
<stop offset="1" stop-color="#A8DD80"/>
</linearGradient>
<linearGradient id="paint43_linear" x1="1915.95" y1="1096.97" x2="357.955" y2="454.969" gradientUnits="userSpaceOnUse">
<stop stop-color="#93DD83"/>
<stop offset="1" stop-color="#A8DD80"/>
</linearGradient>
<linearGradient id="paint44_linear" x1="1909.04" y1="1113.76" x2="351.037" y2="471.757" gradientUnits="userSpaceOnUse">
<stop stop-color="#93DD83"/>
<stop offset="1" stop-color="#A8DD80"/>
</linearGradient>
<linearGradient id="paint45_linear" x1="1927.86" y1="1068.07" x2="369.861" y2="426.074" gradientUnits="userSpaceOnUse">
<stop stop-color="#93DD83"/>
<stop offset="1" stop-color="#A8DD80"/>
</linearGradient>
<linearGradient id="paint46_linear" x1="1940.9" y1="1036.42" x2="382.904" y2="394.421" gradientUnits="userSpaceOnUse">
<stop stop-color="#93DD83"/>
<stop offset="1" stop-color="#A8DD80"/>
</linearGradient>
<clipPath id="clip0">
<rect width="1917.5" height="901.3" fill="white" transform="translate(0 0.245117)"/>
</clipPath>
</defs>
</svg>
