<svg width="193" height="58" viewBox="0 0 193 58" fill="none" xmlns="http://www.w3.org/2000/svg">
<path d="M6.21094 54L2.57812 44.5078H2.51953C2.58789 45.2598 2.62207 46.1533 2.62207 47.1885V54H1.47217V43.292H3.34717L6.73828 52.125H6.79688L10.2173 43.292H12.0776V54H10.8325V47.1006C10.8325 46.3096 10.8667 45.4502 10.9351 44.5225H10.8765L7.21436 54H6.21094ZM22.0412 54H16.072V43.292H22.0412V44.3979H17.3171V47.8477H21.7556V48.9463H17.3171V52.8867H22.0412V54ZM32.4149 50.8799C32.4149 51.9443 32.0976 52.7305 31.4628 53.2383C30.8329 53.7461 29.8808 54 28.6063 54H25.4716V43.292H31.7851V44.3979H26.7167V47.8623H28.3793C29.3217 47.8623 30.0883 47.9722 30.6791 48.1919C31.2699 48.4067 31.7069 48.7266 31.9901 49.1514C32.2733 49.5762 32.4149 50.1523 32.4149 50.8799ZM26.7167 52.9233H28.4672C29.3949 52.9233 30.0688 52.7646 30.4887 52.4473C30.9135 52.1299 31.1259 51.6074 31.1259 50.8799C31.1259 50.1865 30.911 49.6934 30.4813 49.4004C30.0517 49.1074 29.3021 48.9609 28.2328 48.9609H26.7167V52.9233ZM41.69 54H35.7208V43.292H41.69V44.3979H36.9659V47.8477H41.4044V48.9463H36.9659V52.8867H41.69V54ZM52.7376 54H51.4925V44.3979H48.0135L47.7864 46.1558C47.4886 48.4946 47.2249 50.2061 46.9954 51.29C46.7708 52.3691 46.4729 53.1211 46.1019 53.5459C45.7308 53.9707 45.2376 54.1782 44.6224 54.1685C44.261 54.1685 43.9363 54.1074 43.6482 53.9854V52.938C43.9119 53.0649 44.1878 53.1284 44.4759 53.1284C44.7347 53.1284 44.9593 53.0234 45.1497 52.8135C45.345 52.5986 45.5159 52.23 45.6624 51.7075C45.8138 51.1802 46.0018 50.1841 46.2264 48.7192C46.4559 47.2495 46.7073 45.4404 46.9808 43.292H52.7376V54ZM64.1221 50.8799C64.1221 51.8711 63.79 52.6401 63.126 53.187C62.4668 53.729 61.5244 54 60.2988 54H56.7319V43.292H57.9771V47.8623H60.1084C61.4121 47.8623 62.4058 48.1211 63.0894 48.6387C63.7778 49.1514 64.1221 49.8984 64.1221 50.8799ZM57.9771 52.9233H60.167C61.9443 52.9233 62.833 52.2422 62.833 50.8799C62.833 50.2207 62.6035 49.7373 62.1445 49.4297C61.6904 49.1172 60.9604 48.9609 59.9546 48.9609H57.9771V52.9233ZM75.5651 54H74.32V48.9609H68.6804V54H67.4353V43.292H68.6804V47.8477H74.32V43.292H75.5651V54ZM86.2904 54L84.9574 50.5942H80.6654L79.3471 54H78.0873L82.3207 43.248H83.3681L87.5795 54H86.2904ZM84.5692 49.4736L83.3241 46.1558C83.163 45.7358 82.997 45.2207 82.8261 44.6104C82.7187 45.0791 82.5648 45.5942 82.3646 46.1558L81.1049 49.4736H84.5692ZM93.2804 49.5322L90.4752 54H89.003L92.006 49.3198C91.2198 49.0708 90.6485 48.6948 90.2921 48.1919C89.9356 47.6841 89.7574 47.0444 89.7574 46.2729C89.7574 45.3159 90.087 44.5811 90.7462 44.0684C91.4103 43.5508 92.4137 43.292 93.7564 43.292H96.7008V54H95.4557V49.5322H93.2804ZM95.4557 44.3687H93.7931C92.8995 44.3687 92.2208 44.5225 91.7569 44.8301C91.2931 45.1377 91.0611 45.6382 91.0611 46.3315C91.0611 47.7524 91.9864 48.4629 93.837 48.4629H95.4557V44.3687ZM109.531 43.1382H110.791V44.4565H111.303C112.138 44.4565 112.861 44.6226 113.471 44.9546C114.086 45.2866 114.555 45.7554 114.877 46.3608C115.205 46.9663 115.368 47.6572 115.368 48.4336C115.368 49.2441 115.185 49.9668 114.819 50.6016C114.458 51.2314 113.959 51.7051 113.325 52.0225C112.695 52.3398 111.95 52.4985 111.091 52.4985H110.791V54.1465H109.531V52.4985H109.201C108.342 52.4985 107.597 52.3374 106.967 52.0151C106.337 51.6929 105.844 51.2144 105.488 50.5796C105.131 49.9448 104.953 49.2344 104.953 48.4482C104.953 47.6768 105.117 46.9883 105.444 46.3828C105.776 45.7773 106.25 45.3062 106.865 44.9692C107.48 44.6274 108.205 44.4565 109.04 44.4565H109.531V43.1382ZM110.791 51.4512H110.974C111.955 51.4512 112.717 51.1851 113.259 50.6528C113.806 50.1157 114.079 49.3711 114.079 48.4189C114.079 47.5156 113.828 46.8076 113.325 46.2949C112.822 45.7822 112.119 45.5259 111.215 45.5259H110.791V51.4512ZM109.531 45.5259H109.113C108.225 45.5259 107.524 45.7847 107.011 46.3022C106.503 46.8198 106.25 47.5254 106.25 48.4189C106.25 49.3809 106.521 50.1279 107.062 50.6602C107.604 51.1875 108.369 51.4512 109.355 51.4512H109.531V45.5259ZM125.398 54L124.065 50.5942H119.773L118.454 54H117.195L121.428 43.248H122.475L126.687 54H125.398ZM123.676 49.4736L122.431 46.1558C122.27 45.7358 122.104 45.2207 121.933 44.6104C121.826 45.0791 121.672 45.5942 121.472 46.1558L120.212 49.4736H123.676ZM136.152 50.8799C136.152 51.9443 135.835 52.7305 135.2 53.2383C134.57 53.7461 133.618 54 132.344 54H129.209V43.292H135.522V44.3979H130.454V47.8623H132.117C133.059 47.8623 133.826 47.9722 134.416 48.1919C135.007 48.4067 135.444 48.7266 135.727 49.1514C136.011 49.5762 136.152 50.1523 136.152 50.8799ZM130.454 52.9233H132.204C133.132 52.9233 133.806 52.7646 134.226 52.4473C134.651 52.1299 134.863 51.6074 134.863 50.8799C134.863 50.1865 134.648 49.6934 134.219 49.4004C133.789 49.1074 133.039 48.9609 131.97 48.9609H130.454V52.9233ZM146.248 46.4121C146.248 47.4961 145.877 48.3311 145.134 48.917C144.397 49.498 143.34 49.7886 141.963 49.7886H140.703V54H139.458V43.292H142.234C144.91 43.292 146.248 44.332 146.248 46.4121ZM140.703 48.7192H141.824C142.927 48.7192 143.726 48.541 144.219 48.1846C144.712 47.8281 144.959 47.2568 144.959 46.4707C144.959 45.7627 144.727 45.2354 144.263 44.8887C143.799 44.542 143.076 44.3687 142.095 44.3687H140.703V48.7192ZM149.561 43.292H150.725V49.2466C150.725 50.3452 150.691 51.3389 150.623 52.2275H150.681L156.687 43.292H158.05V54H156.878V48.104C156.878 47.1226 156.919 46.0923 157.002 45.0132H156.936L150.923 54H149.561V43.292ZM169.742 54H168.233L163.282 48.5728V54H162.037V43.292H163.282V48.4775L168.108 43.292H169.537L164.798 48.4922L169.742 54ZM179.002 54L177.669 50.5942H173.377L172.059 54H170.799L175.032 43.248H176.08L180.291 54H179.002ZM177.281 49.4736L176.036 46.1558C175.875 45.7358 175.709 45.2207 175.538 44.6104C175.43 45.0791 175.277 45.5942 175.076 46.1558L173.817 49.4736H177.281Z" fill="#E0E0E0"/>
<path d="M12.939 35L7.26709 16.5181H7.12207C7.32617 20.2778 7.42822 22.7861 7.42822 24.043V35H2.96484V11.4424H9.76465L15.3398 29.457H15.4365L21.3501 11.4424H28.1499V35H23.4932V23.8496C23.4932 23.3232 23.4985 22.7163 23.5093 22.0288C23.5308 21.3413 23.606 19.5151 23.7349 16.5503H23.5898L17.5151 35H12.939ZM50.8271 35L49.1191 29.3926H40.5307L38.8227 35H33.4409L41.7553 11.3457H47.8622L56.2089 35H50.8271ZM47.9267 25.2031C46.3476 20.1221 45.456 17.2485 45.2519 16.5825C45.0585 15.9165 44.9189 15.3901 44.833 15.0034C44.4785 16.3784 43.4633 19.7783 41.7875 25.2031H47.9267ZM82.3988 35H76.0502L65.8021 17.1787H65.6571C65.8612 20.3262 65.9633 22.5713 65.9633 23.9141V35H61.4999V11.4424H67.8002L78.0321 29.0864H78.1449C77.9838 26.0249 77.9032 23.8604 77.9032 22.5928V11.4424H82.3988V35ZM109.829 11.4424V26.6855C109.829 28.4258 109.437 29.9512 108.653 31.2617C107.88 32.5723 106.757 33.5767 105.285 34.2749C103.814 34.9731 102.074 35.3223 100.065 35.3223C97.0355 35.3223 94.6829 34.5488 93.0071 33.002C91.3314 31.4443 90.4935 29.3174 90.4935 26.6211V11.4424H95.4725V25.8638C95.4725 27.6792 95.8377 29.0112 96.5682 29.8599C97.2987 30.7085 98.5071 31.1328 100.194 31.1328C101.826 31.1328 103.008 30.7085 103.739 29.8599C104.48 29.0005 104.85 27.6577 104.85 25.8315V11.4424H109.829ZM132.329 35L130.621 29.3926H122.033L120.325 35H114.943L123.258 11.3457H129.365L137.711 35H132.329ZM129.429 25.2031C127.85 20.1221 126.958 17.2485 126.754 16.5825C126.561 15.9165 126.421 15.3901 126.335 15.0034C125.981 16.3784 124.966 19.7783 123.29 25.2031H129.429ZM143.002 35V11.4424H147.997V30.875H157.552V35H143.002ZM177.539 35H163.971V11.4424H177.539V15.5352H168.966V20.7075H176.943V24.8003H168.966V30.875H177.539V35Z" fill="#ECECEC"/>
</svg>
