<svg width="1531" height="1005" viewBox="0 0 1531 1005" fill="none" xmlns="http://www.w3.org/2000/svg">
<g clip-path="url(#clip0)">
<path d="M881.799 99.8501L380.799 183.45L327.199 218.05L922.899 118.55L881.799 99.8501Z" fill="url(#paint0_linear)"/>
<path d="M925 119.55L324.5 219.75L271 254.25L965.9 138.25L925 119.55Z" fill="url(#paint1_linear)"/>
<path d="M968.1 139.25L268.2 256.05L214.9 290.45L1009 157.95L968.1 139.25Z" fill="url(#paint2_linear)"/>
<path d="M1011.2 158.95L211.899 292.35L158.699 326.75L1052 177.55L1011.2 158.95Z" fill="url(#paint3_linear)"/>
<path d="M1536 528.75L304.1 734.35L327.2 755.05L1536 553.15V528.75Z" fill="url(#paint4_linear)"/>
<path d="M1536 501.85L278.699 711.75L301.899 732.45L1536 526.35V501.85Z" fill="url(#paint5_linear)"/>
<path d="M664.499 0.550049L608.199 36.85L707.699 20.25L664.499 0.550049Z" fill="url(#paint6_linear)"/>
<path d="M709.3 21.05L606 38.25L552 73.15L750.7 39.9501L709.3 21.05Z" fill="url(#paint7_linear)"/>
<path d="M752.401 40.75L549.701 74.55L495.801 109.35L793.801 59.55L752.401 40.75Z" fill="url(#paint8_linear)"/>
<path d="M1536 474.85L253.301 689.05L276.501 709.75L1536 499.45V474.85Z" fill="url(#paint9_linear)"/>
<path d="M1536 555.65L329.5 757.05L352.6 777.65L1536 580.05V555.65Z" fill="url(#paint10_linear)"/>
<path d="M795.6 60.45L493.4 110.85L439.6 145.55L836.8 79.2499L795.6 60.45Z" fill="url(#paint11_linear)"/>
<path d="M838.7 80.1501L437.1 147.15L383.4 181.85L879.8 98.9501L838.7 80.1501Z" fill="url(#paint12_linear)"/>
<path d="M1536 582.55L354.9 779.75L378 800.25L1536 606.85V582.55Z" fill="url(#paint13_linear)"/>
<path d="M1536 415.05L1504.5 399.45L183.301 620.05L203.801 641.35L1536 418.95V415.05Z" fill="url(#paint14_linear)"/>
<path d="M1301.4 298.85L72 504.05L92.8 525.65L1339.2 317.55L1301.4 298.85Z" fill="url(#paint15_linear)"/>
<path d="M1342 318.95L94.3008 527.25L115.001 548.85L1379.7 337.65L1342 318.95Z" fill="url(#paint16_linear)"/>
<path d="M1382.6 339.05L116.6 550.45L137.2 571.95L1420.3 357.75L1382.6 339.05Z" fill="url(#paint17_linear)"/>
<path d="M1260.7 278.75L49.8008 480.95L70.5008 502.55L1298.6 297.45L1260.7 278.75Z" fill="url(#paint18_linear)"/>
<path d="M1463.9 379.35L161.1 596.85L181.6 618.25L1501.3 397.85L1463.9 379.35Z" fill="url(#paint19_linear)"/>
<path d="M1220.1 258.55L27.5 457.75L48.3 479.35L1258.1 277.45L1220.1 258.55Z" fill="url(#paint20_linear)"/>
<path d="M1138.9 218.35L43 401.35L0 429.05L3.9 433.15L1177 237.25L1138.9 218.35Z" fill="url(#paint21_linear)"/>
<path d="M1536 447.95L227.9 666.45L251.2 687.15L1536 472.65V447.95Z" fill="url(#paint22_linear)"/>
<path d="M1536 421.05L205.6 643.25L226 664.55L1536 445.75V421.05Z" fill="url(#paint23_linear)"/>
<path d="M1110 204.05L1097.5 198.35L99.3008 365.05L46.3008 399.15L1136.5 217.15L1110 204.05Z" fill="url(#paint24_linear)"/>
<path d="M1054.4 178.65L155.6 328.75L102.5 362.95L1095.1 197.25L1054.4 178.65Z" fill="url(#paint25_linear)"/>
<path d="M1179.5 238.45L5.30078 434.55L26.1008 456.25L1217.6 257.35L1179.5 238.45Z" fill="url(#paint26_linear)"/>
<path d="M1536 690.15L456.6 870.35L479.4 890.75L1536 714.25V690.15Z" fill="url(#paint27_linear)"/>
<path d="M1423.2 359.15L138.801 573.65L159.401 595.05L1460.8 377.85L1423.2 359.15Z" fill="url(#paint28_linear)"/>
<path d="M1536 770.85L532.801 938.35L555.401 958.55L1536 794.85V770.85Z" fill="url(#paint29_linear)"/>
<path d="M1536 717.05L482 893.05L504.7 913.35L1536 741.15V717.05Z" fill="url(#paint30_linear)"/>
<path d="M1536 743.95L507.4 915.65L530.1 935.95L1536 767.95V743.95Z" fill="url(#paint31_linear)"/>
<path d="M1536 797.75L558.199 961.05L580.799 981.15L1536 821.65V797.75Z" fill="url(#paint32_linear)"/>
<path d="M1536 824.65L583.6 983.65L606.1 1003.75L1536 848.55V824.65Z" fill="url(#paint33_linear)"/>
<path d="M1536 663.25L431.199 847.75L453.999 868.05L1536 687.45V663.25Z" fill="url(#paint34_linear)"/>
<path d="M1536 636.35L405.801 825.05L428.701 845.45L1536 660.55V636.35Z" fill="url(#paint35_linear)"/>
<path d="M1536 609.45L380.301 802.35L403.301 822.85L1536 633.75V609.45Z" fill="url(#paint36_linear)"/>
<path d="M1536 850.05V848.55L606.1 1003.75L607 1004.55L1536 850.05Z" fill="url(#paint37_linear)"/>
<path d="M1536 821.65L580.801 981.15L583.601 983.65L1536 824.65V821.65Z" fill="url(#paint38_linear)"/>
<path d="M1536 794.85L555.4 958.55L558.2 961.05L1536 797.75V794.85Z" fill="url(#paint39_linear)"/>
<path d="M1536 767.95L530.1 935.95L532.8 938.35L1536 770.85V767.95Z" fill="url(#paint40_linear)"/>
<path d="M1536 741.15L504.699 913.35L507.399 915.65L1536 743.95V741.15Z" fill="url(#paint41_linear)"/>
<path d="M1536 714.25L479.4 890.75L482 893.05L1536 717.05V714.25Z" fill="url(#paint42_linear)"/>
<path d="M1536 687.45L454 868.05L456.6 870.35L1536 690.15V687.45Z" fill="url(#paint43_linear)"/>
<path d="M1536 660.55L428.699 845.45L431.199 847.75L1536 663.25V660.55Z" fill="url(#paint44_linear)"/>
<path d="M1536 633.75L403.301 822.85L405.801 825.05L1536 636.35V633.75Z" fill="url(#paint45_linear)"/>
<path d="M1536 606.85L378 800.25L380.3 802.35L1536 609.45V606.85Z" fill="url(#paint46_linear)"/>
<path d="M1536 580.05L352.6 777.65L354.9 779.75L1536 582.55V580.05Z" fill="url(#paint47_linear)"/>
<path d="M1536 553.15L327.199 755.05L329.499 757.05L1536 555.65V553.15Z" fill="url(#paint48_linear)"/>
<path d="M1536 526.35L301.9 732.45L304.1 734.35L1536 528.75V526.35Z" fill="url(#paint49_linear)"/>
<path d="M1536 499.45L276.5 709.75L278.7 711.75L1536 501.85V499.45Z" fill="url(#paint50_linear)"/>
<path d="M1536 472.65L251.199 687.15L253.299 689.05L1536 474.85V472.65Z" fill="url(#paint51_linear)"/>
<path d="M1536 445.75L226 664.55L227.5 666.05L227.9 666.45L1536 447.95V445.75Z" fill="url(#paint52_linear)"/>
<path d="M1536 418.95L203.801 641.35L205.601 643.25L1536 421.05V418.95Z" fill="url(#paint53_linear)"/>
<path d="M1501.3 397.85L181.6 618.25L183.3 620.05L1504.5 399.45L1501.3 397.85Z" fill="url(#paint54_linear)"/>
<path d="M1460.8 377.85L159.4 595.05L161.1 596.85L1463.9 379.35L1460.8 377.85Z" fill="url(#paint55_linear)"/>
<path d="M1420.3 357.75L137.199 571.95L138.799 573.65L1423.2 359.15L1420.3 357.75Z" fill="url(#paint56_linear)"/>
<path d="M1379.7 337.65L115 548.85L116.6 550.45L1382.6 339.05L1379.7 337.65Z" fill="url(#paint57_linear)"/>
<path d="M1339.2 317.55L92.8008 525.65L94.3008 527.25L1342 318.95L1339.2 317.55Z" fill="url(#paint58_linear)"/>
<path d="M1298.6 297.45L70.5 502.55L72 504.05L1301.4 298.85L1298.6 297.45Z" fill="url(#paint59_linear)"/>
<path d="M1258.1 277.45L48.3008 479.35L49.8008 480.95L1260.7 278.75L1258.1 277.45Z" fill="url(#paint60_linear)"/>
<path d="M1217.6 257.35L26.0996 456.25L27.4996 457.75L1220.1 258.55L1217.6 257.35Z" fill="url(#paint61_linear)"/>
<path d="M1177 237.25L3.90039 433.15L5.30039 434.55L1179.5 238.45L1177 237.25Z" fill="url(#paint62_linear)"/>
<path d="M1136.5 217.15L46.3 399.15L43 401.35L1138.9 218.35L1136.5 217.15Z" fill="url(#paint63_linear)"/>
<path d="M1095.1 197.25L102.501 362.95L99.3008 365.05L1097.5 198.35L1095.1 197.25Z" fill="url(#paint64_linear)"/>
<path d="M1052 177.55L158.7 326.75L155.6 328.75L1054.4 178.65L1052 177.55Z" fill="url(#paint65_linear)"/>
<path d="M1009 157.95L214.9 290.45L211.9 292.35L1011.2 158.95L1009 157.95Z" fill="url(#paint66_linear)"/>
<path d="M965.899 138.25L270.999 254.25L268.199 256.05L968.099 139.25L965.899 138.25Z" fill="url(#paint67_linear)"/>
<path d="M922.9 118.55L327.2 218.05L324.5 219.75L925 119.55L922.9 118.55Z" fill="url(#paint68_linear)"/>
<path d="M879.801 98.95L383.401 181.85L380.801 183.45L881.801 99.85L879.801 98.95Z" fill="url(#paint69_linear)"/>
<path d="M836.8 79.25L439.6 145.55L437.1 147.15L838.7 80.15L836.8 79.25Z" fill="url(#paint70_linear)"/>
<path d="M793.8 59.55L495.8 109.35L493.4 110.85L795.6 60.4501L793.8 59.55Z" fill="url(#paint71_linear)"/>
<path d="M750.699 39.95L551.999 73.1499L549.699 74.5499L752.399 40.75L750.699 39.95Z" fill="url(#paint72_linear)"/>
<path d="M707.7 20.25L608.2 36.85L606 38.25L709.3 21.05L707.7 20.25Z" fill="url(#paint73_linear)"/>
</g>
<defs>
<linearGradient id="paint0_linear" x1="517.024" y1="-63.9265" x2="1065.02" y2="1114.07" gradientUnits="userSpaceOnUse">
<stop offset="0.0173267" stop-color="#AADD80"/>
<stop offset="1" stop-color="#83DE75"/>
</linearGradient>
<linearGradient id="paint1_linear" x1="500.936" y1="-56.4422" x2="1048.94" y2="1121.56" gradientUnits="userSpaceOnUse">
<stop offset="0.0173267" stop-color="#AADD80"/>
<stop offset="1" stop-color="#83DE75"/>
</linearGradient>
<linearGradient id="paint2_linear" x1="484.847" y1="-48.9577" x2="1032.85" y2="1129.04" gradientUnits="userSpaceOnUse">
<stop offset="0.0173267" stop-color="#AADD80"/>
<stop offset="1" stop-color="#83DE75"/>
</linearGradient>
<linearGradient id="paint3_linear" x1="468.757" y1="-41.4734" x2="1016.76" y2="1136.53" gradientUnits="userSpaceOnUse">
<stop offset="0.0173267" stop-color="#AADD80"/>
<stop offset="1" stop-color="#83DE75"/>
</linearGradient>
<linearGradient id="paint4_linear" x1="582.384" y1="-94.3316" x2="1130.38" y2="1083.67" gradientUnits="userSpaceOnUse">
<stop offset="0.0173267" stop-color="#AADD80"/>
<stop offset="1" stop-color="#83DE75"/>
</linearGradient>
<linearGradient id="paint5_linear" x1="581.418" y1="-93.8824" x2="1129.42" y2="1084.12" gradientUnits="userSpaceOnUse">
<stop offset="0.0173267" stop-color="#AADD80"/>
<stop offset="1" stop-color="#83DE75"/>
</linearGradient>
<linearGradient id="paint6_linear" x1="597.468" y1="-101.349" x2="1145.47" y2="1076.65" gradientUnits="userSpaceOnUse">
<stop offset="0.0173267" stop-color="#AADD80"/>
<stop offset="1" stop-color="#83DE75"/>
</linearGradient>
<linearGradient id="paint7_linear" x1="581.38" y1="-93.8644" x2="1129.38" y2="1084.14" gradientUnits="userSpaceOnUse">
<stop offset="0.0173267" stop-color="#AADD80"/>
<stop offset="1" stop-color="#83DE75"/>
</linearGradient>
<linearGradient id="paint8_linear" x1="565.292" y1="-86.3801" x2="1113.29" y2="1091.62" gradientUnits="userSpaceOnUse">
<stop offset="0.0173267" stop-color="#AADD80"/>
<stop offset="1" stop-color="#83DE75"/>
</linearGradient>
<linearGradient id="paint9_linear" x1="580.454" y1="-93.4332" x2="1128.45" y2="1084.57" gradientUnits="userSpaceOnUse">
<stop offset="0.0173267" stop-color="#AADD80"/>
<stop offset="1" stop-color="#83DE75"/>
</linearGradient>
<linearGradient id="paint10_linear" x1="583.35" y1="-94.7808" x2="1131.35" y2="1083.22" gradientUnits="userSpaceOnUse">
<stop offset="0.0173267" stop-color="#AADD80"/>
<stop offset="1" stop-color="#83DE75"/>
</linearGradient>
<linearGradient id="paint11_linear" x1="549.202" y1="-78.8956" x2="1097.2" y2="1099.1" gradientUnits="userSpaceOnUse">
<stop offset="0.0173267" stop-color="#AADD80"/>
<stop offset="1" stop-color="#83DE75"/>
</linearGradient>
<linearGradient id="paint12_linear" x1="533.114" y1="-71.4111" x2="1081.11" y2="1106.59" gradientUnits="userSpaceOnUse">
<stop offset="0.0173267" stop-color="#AADD80"/>
<stop offset="1" stop-color="#83DE75"/>
</linearGradient>
<linearGradient id="paint13_linear" x1="584.316" y1="-95.23" x2="1132.32" y2="1082.77" gradientUnits="userSpaceOnUse">
<stop offset="0.0173267" stop-color="#AADD80"/>
<stop offset="1" stop-color="#83DE75"/>
</linearGradient>
<linearGradient id="paint14_linear" x1="576.334" y1="-91.5168" x2="1124.33" y2="1086.48" gradientUnits="userSpaceOnUse">
<stop offset="0.0173267" stop-color="#AADD80"/>
<stop offset="1" stop-color="#83DE75"/>
</linearGradient>
<linearGradient id="paint15_linear" x1="490.494" y1="-51.5845" x2="1038.49" y2="1126.42" gradientUnits="userSpaceOnUse">
<stop offset="0.0173267" stop-color="#AADD80"/>
<stop offset="1" stop-color="#83DE75"/>
</linearGradient>
<linearGradient id="paint16_linear" x1="508.034" y1="-59.744" x2="1056.03" y2="1118.26" gradientUnits="userSpaceOnUse">
<stop offset="0.0173267" stop-color="#AADD80"/>
<stop offset="1" stop-color="#83DE75"/>
</linearGradient>
<linearGradient id="paint17_linear" x1="525.573" y1="-67.9036" x2="1073.57" y2="1110.1" gradientUnits="userSpaceOnUse">
<stop offset="0.0173267" stop-color="#AADD80"/>
<stop offset="1" stop-color="#83DE75"/>
</linearGradient>
<linearGradient id="paint18_linear" x1="472.954" y1="-43.425" x2="1020.95" y2="1134.57" gradientUnits="userSpaceOnUse">
<stop offset="0.0173267" stop-color="#AADD80"/>
<stop offset="1" stop-color="#83DE75"/>
</linearGradient>
<linearGradient id="paint19_linear" x1="560.653" y1="-84.2226" x2="1108.65" y2="1093.78" gradientUnits="userSpaceOnUse">
<stop offset="0.0173267" stop-color="#AADD80"/>
<stop offset="1" stop-color="#83DE75"/>
</linearGradient>
<linearGradient id="paint20_linear" x1="455.414" y1="-35.2654" x2="1003.41" y2="1142.73" gradientUnits="userSpaceOnUse">
<stop offset="0.0173267" stop-color="#AADD80"/>
<stop offset="1" stop-color="#83DE75"/>
</linearGradient>
<linearGradient id="paint21_linear" x1="423.936" y1="-20.6221" x2="971.936" y2="1157.38" gradientUnits="userSpaceOnUse">
<stop offset="0.0173267" stop-color="#AADD80"/>
<stop offset="1" stop-color="#83DE75"/>
</linearGradient>
<linearGradient id="paint22_linear" x1="579.488" y1="-92.984" x2="1127.49" y2="1085.02" gradientUnits="userSpaceOnUse">
<stop offset="0.0173267" stop-color="#AADD80"/>
<stop offset="1" stop-color="#83DE75"/>
</linearGradient>
<linearGradient id="paint23_linear" x1="579.895" y1="-93.1736" x2="1127.89" y2="1084.83" gradientUnits="userSpaceOnUse">
<stop offset="0.0173267" stop-color="#AADD80"/>
<stop offset="1" stop-color="#83DE75"/>
</linearGradient>
<linearGradient id="paint24_linear" x1="435.857" y1="-26.1674" x2="983.857" y2="1151.83" gradientUnits="userSpaceOnUse">
<stop offset="0.0173267" stop-color="#AADD80"/>
<stop offset="1" stop-color="#83DE75"/>
</linearGradient>
<linearGradient id="paint25_linear" x1="452.669" y1="-33.9886" x2="1000.67" y2="1144.01" gradientUnits="userSpaceOnUse">
<stop offset="0.0173267" stop-color="#AADD80"/>
<stop offset="1" stop-color="#83DE75"/>
</linearGradient>
<linearGradient id="paint26_linear" x1="437.874" y1="-27.1061" x2="985.874" y2="1150.89" gradientUnits="userSpaceOnUse">
<stop offset="0.0173267" stop-color="#AADD80"/>
<stop offset="1" stop-color="#83DE75"/>
</linearGradient>
<linearGradient id="paint27_linear" x1="588.177" y1="-97.0269" x2="1136.18" y2="1080.97" gradientUnits="userSpaceOnUse">
<stop offset="0.0173267" stop-color="#AADD80"/>
<stop offset="1" stop-color="#83DE75"/>
</linearGradient>
<linearGradient id="paint28_linear" x1="543.114" y1="-76.0629" x2="1091.11" y2="1101.94" gradientUnits="userSpaceOnUse">
<stop offset="0.0173267" stop-color="#AADD80"/>
<stop offset="1" stop-color="#83DE75"/>
</linearGradient>
<linearGradient id="paint29_linear" x1="591.075" y1="-98.3742" x2="1139.08" y2="1079.63" gradientUnits="userSpaceOnUse">
<stop offset="0.0173267" stop-color="#AADD80"/>
<stop offset="1" stop-color="#83DE75"/>
</linearGradient>
<linearGradient id="paint30_linear" x1="589.143" y1="-97.4759" x2="1137.14" y2="1080.52" gradientUnits="userSpaceOnUse">
<stop offset="0.0173267" stop-color="#AADD80"/>
<stop offset="1" stop-color="#83DE75"/>
</linearGradient>
<linearGradient id="paint31_linear" x1="590.109" y1="-97.9248" x2="1138.11" y2="1080.08" gradientUnits="userSpaceOnUse">
<stop offset="0.0173267" stop-color="#AADD80"/>
<stop offset="1" stop-color="#83DE75"/>
</linearGradient>
<linearGradient id="paint32_linear" x1="592.039" y1="-98.8232" x2="1140.04" y2="1079.18" gradientUnits="userSpaceOnUse">
<stop offset="0.0173267" stop-color="#AADD80"/>
<stop offset="1" stop-color="#83DE75"/>
</linearGradient>
<linearGradient id="paint33_linear" x1="593.005" y1="-99.2728" x2="1141.01" y2="1078.73" gradientUnits="userSpaceOnUse">
<stop offset="0.0173267" stop-color="#AADD80"/>
<stop offset="1" stop-color="#83DE75"/>
</linearGradient>
<linearGradient id="paint34_linear" x1="587.211" y1="-96.5775" x2="1135.21" y2="1081.42" gradientUnits="userSpaceOnUse">
<stop offset="0.0173267" stop-color="#AADD80"/>
<stop offset="1" stop-color="#83DE75"/>
</linearGradient>
<linearGradient id="paint35_linear" x1="586.247" y1="-96.1283" x2="1134.25" y2="1081.87" gradientUnits="userSpaceOnUse">
<stop offset="0.0173267" stop-color="#AADD80"/>
<stop offset="1" stop-color="#83DE75"/>
</linearGradient>
<linearGradient id="paint36_linear" x1="585.282" y1="-95.6788" x2="1133.28" y2="1082.32" gradientUnits="userSpaceOnUse">
<stop offset="0.0173267" stop-color="#AADD80"/>
<stop offset="1" stop-color="#83DE75"/>
</linearGradient>
<linearGradient id="paint37_linear" x1="221.932" y1="130.089" x2="1213.93" y2="1060.09" gradientUnits="userSpaceOnUse">
<stop offset="0.0519802" stop-color="#AADD80"/>
<stop offset="0.9233" stop-color="#AADD80"/>
</linearGradient>
<linearGradient id="paint38_linear" x1="228.343" y1="123.251" x2="1220.34" y2="1053.25" gradientUnits="userSpaceOnUse">
<stop offset="0.0519802" stop-color="#AADD80"/>
<stop offset="0.9233" stop-color="#AADD80"/>
</linearGradient>
<linearGradient id="paint39_linear" x1="234.753" y1="116.414" x2="1226.75" y2="1046.41" gradientUnits="userSpaceOnUse">
<stop offset="0.0519802" stop-color="#AADD80"/>
<stop offset="0.9233" stop-color="#AADD80"/>
</linearGradient>
<linearGradient id="paint40_linear" x1="241.163" y1="109.577" x2="1233.16" y2="1039.58" gradientUnits="userSpaceOnUse">
<stop offset="0.0519802" stop-color="#AADD80"/>
<stop offset="0.9233" stop-color="#AADD80"/>
</linearGradient>
<linearGradient id="paint41_linear" x1="247.573" y1="102.738" x2="1239.57" y2="1032.74" gradientUnits="userSpaceOnUse">
<stop offset="0.0519802" stop-color="#AADD80"/>
<stop offset="0.9233" stop-color="#AADD80"/>
</linearGradient>
<linearGradient id="paint42_linear" x1="253.984" y1="95.9011" x2="1245.98" y2="1025.9" gradientUnits="userSpaceOnUse">
<stop offset="0.0519802" stop-color="#AADD80"/>
<stop offset="0.9233" stop-color="#AADD80"/>
</linearGradient>
<linearGradient id="paint43_linear" x1="260.394" y1="89.0637" x2="1252.39" y2="1019.06" gradientUnits="userSpaceOnUse">
<stop offset="0.0519802" stop-color="#AADD80"/>
<stop offset="0.9233" stop-color="#AADD80"/>
</linearGradient>
<linearGradient id="paint44_linear" x1="266.803" y1="82.2257" x2="1258.8" y2="1012.23" gradientUnits="userSpaceOnUse">
<stop offset="0.0519802" stop-color="#AADD80"/>
<stop offset="0.9233" stop-color="#AADD80"/>
</linearGradient>
<linearGradient id="paint45_linear" x1="273.215" y1="75.3883" x2="1265.21" y2="1005.39" gradientUnits="userSpaceOnUse">
<stop offset="0.0519802" stop-color="#AADD80"/>
<stop offset="0.9233" stop-color="#AADD80"/>
</linearGradient>
<linearGradient id="paint46_linear" x1="279.625" y1="68.5506" x2="1271.62" y2="998.551" gradientUnits="userSpaceOnUse">
<stop offset="0.0519802" stop-color="#AADD80"/>
<stop offset="0.9233" stop-color="#AADD80"/>
</linearGradient>
<linearGradient id="paint47_linear" x1="286.034" y1="61.713" x2="1278.03" y2="991.713" gradientUnits="userSpaceOnUse">
<stop offset="0.0519802" stop-color="#AADD80"/>
<stop offset="0.9233" stop-color="#AADD80"/>
</linearGradient>
<linearGradient id="paint48_linear" x1="292.444" y1="54.8753" x2="1284.44" y2="984.875" gradientUnits="userSpaceOnUse">
<stop offset="0.0519802" stop-color="#AADD80"/>
<stop offset="0.9233" stop-color="#AADD80"/>
</linearGradient>
<linearGradient id="paint49_linear" x1="298.856" y1="48.0379" x2="1290.86" y2="978.038" gradientUnits="userSpaceOnUse">
<stop offset="0.0519802" stop-color="#AADD80"/>
<stop offset="0.9233" stop-color="#AADD80"/>
</linearGradient>
<linearGradient id="paint50_linear" x1="305.265" y1="41.2001" x2="1297.27" y2="971.2" gradientUnits="userSpaceOnUse">
<stop offset="0.0519802" stop-color="#AADD80"/>
<stop offset="0.9233" stop-color="#AADD80"/>
</linearGradient>
<linearGradient id="paint51_linear" x1="311.675" y1="34.3625" x2="1303.68" y2="964.363" gradientUnits="userSpaceOnUse">
<stop offset="0.0519802" stop-color="#AADD80"/>
<stop offset="0.9233" stop-color="#AADD80"/>
</linearGradient>
<linearGradient id="paint52_linear" x1="318.105" y1="27.5046" x2="1310.11" y2="957.505" gradientUnits="userSpaceOnUse">
<stop offset="0.0519802" stop-color="#AADD80"/>
<stop offset="0.9233" stop-color="#AADD80"/>
</linearGradient>
<linearGradient id="paint53_linear" x1="325.374" y1="19.7517" x2="1317.37" y2="949.752" gradientUnits="userSpaceOnUse">
<stop offset="0.0519802" stop-color="#AADD80"/>
<stop offset="0.9233" stop-color="#AADD80"/>
</linearGradient>
<linearGradient id="paint54_linear" x1="323.447" y1="21.8064" x2="1315.45" y2="951.806" gradientUnits="userSpaceOnUse">
<stop offset="0.0519802" stop-color="#AADD80"/>
<stop offset="0.9233" stop-color="#AADD80"/>
</linearGradient>
<linearGradient id="paint55_linear" x1="319.545" y1="25.9694" x2="1311.54" y2="955.969" gradientUnits="userSpaceOnUse">
<stop offset="0.0519802" stop-color="#AADD80"/>
<stop offset="0.9233" stop-color="#AADD80"/>
</linearGradient>
<linearGradient id="paint56_linear" x1="315.641" y1="30.1322" x2="1307.64" y2="960.132" gradientUnits="userSpaceOnUse">
<stop offset="0.0519802" stop-color="#AADD80"/>
<stop offset="0.9233" stop-color="#AADD80"/>
</linearGradient>
<linearGradient id="paint57_linear" x1="311.739" y1="34.2954" x2="1303.74" y2="964.295" gradientUnits="userSpaceOnUse">
<stop offset="0.0519802" stop-color="#AADD80"/>
<stop offset="0.9233" stop-color="#AADD80"/>
</linearGradient>
<linearGradient id="paint58_linear" x1="307.837" y1="38.4582" x2="1299.84" y2="968.458" gradientUnits="userSpaceOnUse">
<stop offset="0.0519802" stop-color="#AADD80"/>
<stop offset="0.9233" stop-color="#AADD80"/>
</linearGradient>
<linearGradient id="paint59_linear" x1="303.933" y1="42.6212" x2="1295.93" y2="972.621" gradientUnits="userSpaceOnUse">
<stop offset="0.0519802" stop-color="#AADD80"/>
<stop offset="0.9233" stop-color="#AADD80"/>
</linearGradient>
<linearGradient id="paint60_linear" x1="300.031" y1="46.7841" x2="1292.03" y2="976.784" gradientUnits="userSpaceOnUse">
<stop offset="0.0519802" stop-color="#AADD80"/>
<stop offset="0.9233" stop-color="#AADD80"/>
</linearGradient>
<linearGradient id="paint61_linear" x1="296.127" y1="50.9473" x2="1288.13" y2="980.947" gradientUnits="userSpaceOnUse">
<stop offset="0.0519802" stop-color="#AADD80"/>
<stop offset="0.9233" stop-color="#AADD80"/>
</linearGradient>
<linearGradient id="paint62_linear" x1="292.225" y1="55.1101" x2="1284.23" y2="985.11" gradientUnits="userSpaceOnUse">
<stop offset="0.0519802" stop-color="#AADD80"/>
<stop offset="0.9233" stop-color="#AADD80"/>
</linearGradient>
<linearGradient id="paint63_linear" x1="304.858" y1="41.6353" x2="1296.86" y2="971.635" gradientUnits="userSpaceOnUse">
<stop offset="0.0519802" stop-color="#AADD80"/>
<stop offset="0.9233" stop-color="#AADD80"/>
</linearGradient>
<linearGradient id="paint64_linear" x1="322.402" y1="22.9216" x2="1314.4" y2="952.922" gradientUnits="userSpaceOnUse">
<stop offset="0.0519802" stop-color="#AADD80"/>
<stop offset="0.9233" stop-color="#AADD80"/>
</linearGradient>
<linearGradient id="paint65_linear" x1="339.454" y1="4.73163" x2="1331.45" y2="934.732" gradientUnits="userSpaceOnUse">
<stop offset="0.0519802" stop-color="#AADD80"/>
<stop offset="0.9233" stop-color="#AADD80"/>
</linearGradient>
<linearGradient id="paint66_linear" x1="356.508" y1="-13.4584" x2="1348.51" y2="916.542" gradientUnits="userSpaceOnUse">
<stop offset="0.0519802" stop-color="#AADD80"/>
<stop offset="0.9233" stop-color="#AADD80"/>
</linearGradient>
<linearGradient id="paint67_linear" x1="373.56" y1="-31.6483" x2="1365.56" y2="898.352" gradientUnits="userSpaceOnUse">
<stop offset="0.0519802" stop-color="#AADD80"/>
<stop offset="0.9233" stop-color="#AADD80"/>
</linearGradient>
<linearGradient id="paint68_linear" x1="390.614" y1="-49.838" x2="1382.61" y2="880.162" gradientUnits="userSpaceOnUse">
<stop offset="0.0519802" stop-color="#AADD80"/>
<stop offset="0.9233" stop-color="#AADD80"/>
</linearGradient>
<linearGradient id="paint69_linear" x1="407.668" y1="-68.0286" x2="1399.67" y2="861.971" gradientUnits="userSpaceOnUse">
<stop offset="0.0519802" stop-color="#AADD80"/>
<stop offset="0.9233" stop-color="#AADD80"/>
</linearGradient>
<linearGradient id="paint70_linear" x1="424.72" y1="-86.2183" x2="1416.72" y2="843.782" gradientUnits="userSpaceOnUse">
<stop offset="0.0519802" stop-color="#AADD80"/>
<stop offset="0.9233" stop-color="#AADD80"/>
</linearGradient>
<linearGradient id="paint71_linear" x1="441.774" y1="-104.408" x2="1433.77" y2="825.592" gradientUnits="userSpaceOnUse">
<stop offset="0.0519802" stop-color="#AADD80"/>
<stop offset="0.9233" stop-color="#AADD80"/>
</linearGradient>
<linearGradient id="paint72_linear" x1="458.826" y1="-122.598" x2="1450.83" y2="807.402" gradientUnits="userSpaceOnUse">
<stop offset="0.0519802" stop-color="#AADD80"/>
<stop offset="0.9233" stop-color="#AADD80"/>
</linearGradient>
<linearGradient id="paint73_linear" x1="475.88" y1="-140.788" x2="1467.88" y2="789.212" gradientUnits="userSpaceOnUse">
<stop offset="0.0519802" stop-color="#AADD80"/>
<stop offset="0.9233" stop-color="#AADD80"/>
</linearGradient>
<clipPath id="clip0">
<rect width="1536" height="1004" fill="white" transform="translate(0 0.550049)"/>
</clipPath>
</defs>
</svg>
