<svg width="1918" height="797" viewBox="0 0 1918 797" fill="none" xmlns="http://www.w3.org/2000/svg">
<g clip-path="url(#clip0)">
<path d="M614 71.8739L0 430.174V466.174L708.9 52.4739L614 71.8739Z" fill="url(#paint0_linear)"/>
<path d="M1917.3 248.074L1072.5 740.974L1123.7 745.674L1917.3 282.574V248.074Z" fill="url(#paint1_linear)"/>
<path d="M515.2 92.0738L0 392.674V428.774L610.2 72.6738L515.2 92.0738Z" fill="url(#paint2_linear)"/>
<path d="M1917.3 210.574L1017 735.974L1068.3 740.674L1917.3 245.174V210.574Z" fill="url(#paint3_linear)"/>
<path d="M1577.6 34.1738L461.9 685.174L514.1 689.974L1632.8 37.0738L1577.6 34.1738Z" fill="url(#paint4_linear)"/>
<path d="M1917.3 173.074L961.5 730.874L1012.9 735.574L1917.3 207.774V173.074Z" fill="url(#paint5_linear)"/>
<path d="M712.9 51.6739L0 467.674V503.574L807.6 32.2739L712.9 51.6739Z" fill="url(#paint6_linear)"/>
<path d="M1518.8 30.9739L406.4 680.074L458.6 684.874L1574.1 33.9739L1518.8 30.9739Z" fill="url(#paint7_linear)"/>
<path d="M1917.3 322.974L1183.5 751.174L1234.5 755.874L1917.3 357.374V322.974Z" fill="url(#paint8_linear)"/>
<path d="M811.7 31.474L0 505.074V540.974L906.3 12.074L811.7 31.474Z" fill="url(#paint9_linear)"/>
<path d="M1917.3 285.474L1128 746.074L1179.1 750.774L1917.3 319.974V285.474Z" fill="url(#paint10_linear)"/>
<path d="M1917.3 135.674L906 725.774L957.4 730.474L1917.3 170.374V135.674Z" fill="url(#paint11_linear)"/>
<path d="M119.7 172.974L0 242.874V279.074L215.4 153.374L119.7 172.974Z" fill="url(#paint12_linear)"/>
<path d="M1917.3 52.474L1871.4 50.074L739.5 710.574L791.2 715.274L1917.3 58.074V52.474Z" fill="url(#paint13_linear)"/>
<path d="M1917.3 60.6738L795 715.674L846.6 720.374L1917.3 95.5738V60.6738Z" fill="url(#paint14_linear)"/>
<path d="M218.6 152.774L0 280.274V316.474L314.1 133.174L218.6 152.774Z" fill="url(#paint15_linear)"/>
<path d="M0 197.474V241.674L116.7 173.574L0 197.474Z" fill="url(#paint16_linear)"/>
<path d="M1753.9 43.6738L628.5 700.374L680.3 705.174L1808.8 46.6738L1753.9 43.6738Z" fill="url(#paint17_linear)"/>
<path d="M961.6 0.773926L910.6 11.1739L0 542.574V578.374L987.4 2.17393L961.6 0.773926Z" fill="url(#paint18_linear)"/>
<path d="M416.3 112.274L0 355.274V391.274L511.5 92.874L416.3 112.274Z" fill="url(#paint19_linear)"/>
<path d="M1636.3 37.2739L517.4 690.274L569.5 694.974L1691.4 40.2739L1636.3 37.2739Z" fill="url(#paint20_linear)"/>
<path d="M317.4 132.574L0 317.774V353.874L412.8 113.074L317.4 132.574Z" fill="url(#paint21_linear)"/>
<path d="M1695.1 40.4739L572.9 695.274L624.9 700.074L1750.1 43.4739L1695.1 40.4739Z" fill="url(#paint22_linear)"/>
<path d="M1917.3 98.1738L850.5 720.674L902 725.374L1917.3 132.974V98.1738Z" fill="url(#paint23_linear)"/>
<path d="M1917.3 547.774L1516.6 781.674L1567.1 786.274L1917.3 581.874V547.774Z" fill="url(#paint24_linear)"/>
<path d="M1917.3 510.274L1461 776.574L1511.7 781.174L1917.3 544.474V510.274Z" fill="url(#paint25_linear)"/>
<path d="M1283.8 18.1738L184.4 659.774L236.9 664.574L1339.4 21.2738L1283.8 18.1738Z" fill="url(#paint26_linear)"/>
<path d="M1342.6 21.374L239.9 664.874L292.4 669.674L1398.1 24.374L1342.6 21.374Z" fill="url(#paint27_linear)"/>
<path d="M1917.3 472.874L1405.5 771.474L1456.2 776.074L1917.3 507.074V472.874Z" fill="url(#paint28_linear)"/>
<path d="M1917.3 585.274L1572.1 786.674L1622.5 791.374L1917.3 619.274V585.274Z" fill="url(#paint29_linear)"/>
<path d="M1812.6 46.874L684 705.474L735.7 710.174L1867.4 49.774L1812.6 46.874Z" fill="url(#paint30_linear)"/>
<path d="M1917.3 622.674L1627.6 791.774L1677.9 796.374L1917.3 656.674V622.674Z" fill="url(#paint31_linear)"/>
<path d="M1225.1 15.074L128.9 654.674L181.5 659.474L1280.8 18.074L1225.1 15.074Z" fill="url(#paint32_linear)"/>
<path d="M1048.8 5.47388L0 617.474V642.874L15.3 644.274L1104.8 8.57388L1048.8 5.47388Z" fill="url(#paint33_linear)"/>
<path d="M1917.3 360.474L1239 756.274L1290 760.874L1917.3 394.874V360.474Z" fill="url(#paint34_linear)"/>
<path d="M1917.3 397.874L1294.5 761.374L1345.4 765.974L1917.3 432.274V397.874Z" fill="url(#paint35_linear)"/>
<path d="M1166.3 11.874L73.3999 649.674L126.1 654.474L1222.1 14.874L1166.3 11.874Z" fill="url(#paint36_linear)"/>
<path d="M990 2.27393L0 580.074V615.774L1046.1 5.37393L990 2.27393Z" fill="url(#paint37_linear)"/>
<path d="M1460.1 27.7739L350.9 674.974L403.2 679.774L1515.4 30.7739L1460.1 27.7739Z" fill="url(#paint38_linear)"/>
<path d="M1917.3 435.374L1350 766.374L1400.8 771.074L1917.3 469.674V435.374Z" fill="url(#paint39_linear)"/>
<path d="M1401.3 24.574L295.4 669.974L347.8 674.774L1456.8 27.574L1401.3 24.574Z" fill="url(#paint40_linear)"/>
<path d="M1107.5 8.67383L17.8999 644.574L70.6999 649.374L1163.4 11.6738L1107.5 8.67383Z" fill="url(#paint41_linear)"/>
<path d="M1917.3 659.574V656.674L1677.9 796.374L1680.5 796.674L1917.3 659.574Z" fill="url(#paint42_linear)"/>
<path d="M1917.3 619.274L1622.5 791.374L1627.6 791.774L1917.3 622.674V619.274Z" fill="url(#paint43_linear)"/>
<path d="M1917.3 581.874L1567.1 786.274L1572.1 786.674L1917.3 585.274V581.874Z" fill="url(#paint44_linear)"/>
<path d="M1917.3 544.474L1511.7 781.174L1516.6 781.674L1917.3 547.774V544.474Z" fill="url(#paint45_linear)"/>
<path d="M1917.3 507.074L1456.2 776.074L1461 776.574L1917.3 510.274V507.074Z" fill="url(#paint46_linear)"/>
<path d="M1917.3 469.674L1400.8 771.074L1405.5 771.474L1917.3 472.874V469.674Z" fill="url(#paint47_linear)"/>
<path d="M1917.3 432.274L1345.4 765.974L1350 766.374L1917.3 435.374V432.274Z" fill="url(#paint48_linear)"/>
<path d="M1917.3 394.874L1290 760.874L1294.5 761.374L1917.3 397.874V394.874Z" fill="url(#paint49_linear)"/>
<path d="M1917.3 357.374L1234.5 755.874L1239 756.274L1917.3 360.474V357.374Z" fill="url(#paint50_linear)"/>
<path d="M1917.3 319.974L1179.1 750.774L1183.5 751.174L1917.3 322.974V319.974Z" fill="url(#paint51_linear)"/>
<path d="M1917.3 282.574L1123.7 745.674L1128 746.074L1917.3 285.474V282.574Z" fill="url(#paint52_linear)"/>
<path d="M1917.3 245.174L1068.3 740.674L1072.5 740.974L1917.3 248.074V245.174Z" fill="url(#paint53_linear)"/>
<path d="M1917.3 207.774L1012.9 735.574L1017 735.974L1917.3 210.574V207.774Z" fill="url(#paint54_linear)"/>
<path d="M1917.3 170.374L957.4 730.474L961.5 730.874L1917.3 173.074V170.374Z" fill="url(#paint55_linear)"/>
<path d="M1917.3 132.974L902 725.374L906 725.774L1917.3 135.674V132.974Z" fill="url(#paint56_linear)"/>
<path d="M1917.3 95.574L846.6 720.374L850.5 720.674L1917.3 98.174V95.574Z" fill="url(#paint57_linear)"/>
<path d="M1917.3 58.074L791.2 715.274L795 715.674L1917.3 60.674V58.074Z" fill="url(#paint58_linear)"/>
<path d="M1867.4 49.7739L735.7 710.174L739.5 710.574L1871.4 50.0739L1867.4 49.7739Z" fill="url(#paint59_linear)"/>
<path d="M1808.8 46.6738L680.3 705.174L684 705.474L1812.6 46.8738L1808.8 46.6738Z" fill="url(#paint60_linear)"/>
<path d="M1750.1 43.4739L624.9 700.074L628.5 700.374L1753.9 43.6739L1750.1 43.4739Z" fill="url(#paint61_linear)"/>
<path d="M1691.4 40.2739L569.5 694.974L572.9 695.274L1695.1 40.4739L1691.4 40.2739Z" fill="url(#paint62_linear)"/>
<path d="M1632.8 37.074L514.1 689.974L517.4 690.274L1636.3 37.274L1632.8 37.074Z" fill="url(#paint63_linear)"/>
<path d="M1574.1 33.9739L458.6 684.874L461.9 685.174L1577.6 34.1739L1574.1 33.9739Z" fill="url(#paint64_linear)"/>
<path d="M1515.4 30.7739L403.2 679.774L406.4 680.074L1518.8 30.9739L1515.4 30.7739Z" fill="url(#paint65_linear)"/>
<path d="M1456.8 27.574L347.8 674.774L350.9 674.974L1460.1 27.774L1456.8 27.574Z" fill="url(#paint66_linear)"/>
<path d="M1398.1 24.374L292.4 669.674L295.4 669.974L1401.3 24.574L1398.1 24.374Z" fill="url(#paint67_linear)"/>
<path d="M1339.4 21.2739L236.9 664.574L239.9 664.874L1342.6 21.3739L1339.4 21.2739Z" fill="url(#paint68_linear)"/>
<path d="M1280.8 18.074L181.5 659.474L184.4 659.774L1283.8 18.174L1280.8 18.074Z" fill="url(#paint69_linear)"/>
<path d="M1222.1 14.874L126.1 654.474L128.9 654.674L1225.1 15.074L1222.1 14.874Z" fill="url(#paint70_linear)"/>
<path d="M1163.4 11.6738L70.7002 649.374L73.4002 649.674L1166.3 11.8738L1163.4 11.6738Z" fill="url(#paint71_linear)"/>
<path d="M1104.8 8.57397L15.2998 644.274L17.8998 644.574L1107.5 8.67397L1104.8 8.57397Z" fill="url(#paint72_linear)"/>
<path d="M1046.1 5.37402L0 615.774V617.474L1048.8 5.47402L1046.1 5.37402Z" fill="url(#paint73_linear)"/>
<path d="M987.4 2.17383L0 578.374V580.074L990 2.27383L987.4 2.17383Z" fill="url(#paint74_linear)"/>
<path d="M906.3 12.0738L0 540.974V542.574L910.6 11.1738L906.3 12.0738Z" fill="url(#paint75_linear)"/>
<path d="M807.6 32.2739L0 503.574V505.074L811.7 31.4739L807.6 32.2739Z" fill="url(#paint76_linear)"/>
<path d="M708.9 52.4738L0 466.174V467.674L712.9 51.6738L708.9 52.4738Z" fill="url(#paint77_linear)"/>
<path d="M610.2 72.674L0 428.774V430.174L614 71.874L610.2 72.674Z" fill="url(#paint78_linear)"/>
<path d="M511.5 92.874L0 391.274V392.674L515.2 92.074L511.5 92.874Z" fill="url(#paint79_linear)"/>
<path d="M412.8 113.074L0 353.874V355.274L416.3 112.274L412.8 113.074Z" fill="url(#paint80_linear)"/>
<path d="M314.1 133.174L0 316.474V317.774L317.4 132.574L314.1 133.174Z" fill="url(#paint81_linear)"/>
<path d="M215.4 153.374L0 279.074V280.274L218.6 152.774L215.4 153.374Z" fill="url(#paint82_linear)"/>
<path d="M116.7 173.574L0 241.674V242.874L119.7 172.974L116.7 173.574Z" fill="url(#paint83_linear)"/>
</g>
<defs>
<linearGradient id="paint0_linear" x1="1970.44" y1="868.549" x2="-20.9457" y2="117.769" gradientUnits="userSpaceOnUse">
<stop offset="0.0321782" stop-color="#93DD83"/>
<stop offset="1" stop-color="#A8DD80"/>
</linearGradient>
<linearGradient id="paint1_linear" x1="2034.72" y1="698.044" x2="43.3369" y2="-52.7362" gradientUnits="userSpaceOnUse">
<stop offset="0.0321782" stop-color="#93DD83"/>
<stop offset="1" stop-color="#A8DD80"/>
</linearGradient>
<linearGradient id="paint2_linear" x1="1967.14" y1="877.301" x2="-24.2452" y2="126.52" gradientUnits="userSpaceOnUse">
<stop offset="0.0321782" stop-color="#93DD83"/>
<stop offset="1" stop-color="#A8DD80"/>
</linearGradient>
<linearGradient id="paint3_linear" x1="2038.29" y1="688.579" x2="46.9052" y2="-62.2008" gradientUnits="userSpaceOnUse">
<stop offset="0.0321782" stop-color="#93DD83"/>
<stop offset="1" stop-color="#A8DD80"/>
</linearGradient>
<linearGradient id="paint4_linear" x1="2023.05" y1="728.995" x2="31.6679" y2="-21.7849" gradientUnits="userSpaceOnUse">
<stop offset="0.0321782" stop-color="#93DD83"/>
<stop offset="1" stop-color="#A8DD80"/>
</linearGradient>
<linearGradient id="paint5_linear" x1="2041.86" y1="679.115" x2="50.4734" y2="-71.665" gradientUnits="userSpaceOnUse">
<stop offset="0.0321782" stop-color="#93DD83"/>
<stop offset="1" stop-color="#A8DD80"/>
</linearGradient>
<linearGradient id="paint6_linear" x1="1973.74" y1="859.797" x2="-17.6462" y2="109.017" gradientUnits="userSpaceOnUse">
<stop offset="0.0321782" stop-color="#93DD83"/>
<stop offset="1" stop-color="#A8DD80"/>
</linearGradient>
<linearGradient id="paint7_linear" x1="2017.31" y1="744.226" x2="25.9257" y2="-6.55459" gradientUnits="userSpaceOnUse">
<stop offset="0.0321782" stop-color="#93DD83"/>
<stop offset="1" stop-color="#A8DD80"/>
</linearGradient>
<linearGradient id="paint8_linear" x1="2027.59" y1="716.972" x2="36.2008" y2="-33.8081" gradientUnits="userSpaceOnUse">
<stop offset="0.0321782" stop-color="#93DD83"/>
<stop offset="1" stop-color="#A8DD80"/>
</linearGradient>
<linearGradient id="paint9_linear" x1="1977.04" y1="851.046" x2="-14.3468" y2="100.266" gradientUnits="userSpaceOnUse">
<stop offset="0.0321782" stop-color="#93DD83"/>
<stop offset="1" stop-color="#A8DD80"/>
</linearGradient>
<linearGradient id="paint10_linear" x1="2031.15" y1="707.508" x2="39.7689" y2="-43.2723" gradientUnits="userSpaceOnUse">
<stop offset="0.0321782" stop-color="#93DD83"/>
<stop offset="1" stop-color="#A8DD80"/>
</linearGradient>
<linearGradient id="paint11_linear" x1="2045.43" y1="669.651" x2="54.0415" y2="-81.1294" gradientUnits="userSpaceOnUse">
<stop offset="0.0321782" stop-color="#93DD83"/>
<stop offset="1" stop-color="#A8DD80"/>
</linearGradient>
<linearGradient id="paint12_linear" x1="1953.94" y1="912.308" x2="-37.4434" y2="161.528" gradientUnits="userSpaceOnUse">
<stop offset="0.0321782" stop-color="#93DD83"/>
<stop offset="1" stop-color="#A8DD80"/>
</linearGradient>
<linearGradient id="paint13_linear" x1="2051.3" y1="654.084" x2="59.9105" y2="-96.6963" gradientUnits="userSpaceOnUse">
<stop offset="0.0321782" stop-color="#93DD83"/>
<stop offset="1" stop-color="#A8DD80"/>
</linearGradient>
<linearGradient id="paint14_linear" x1="2052.56" y1="650.722" x2="61.178" y2="-100.058" gradientUnits="userSpaceOnUse">
<stop offset="0.0321782" stop-color="#93DD83"/>
<stop offset="1" stop-color="#A8DD80"/>
</linearGradient>
<linearGradient id="paint15_linear" x1="1957.24" y1="903.556" x2="-34.1439" y2="152.776" gradientUnits="userSpaceOnUse">
<stop offset="0.0321782" stop-color="#93DD83"/>
<stop offset="1" stop-color="#A8DD80"/>
</linearGradient>
<linearGradient id="paint16_linear" x1="1950.64" y1="921.059" x2="-40.7428" y2="170.279" gradientUnits="userSpaceOnUse">
<stop offset="0.0321782" stop-color="#93DD83"/>
<stop offset="1" stop-color="#A8DD80"/>
</linearGradient>
<linearGradient id="paint17_linear" x1="2040.28" y1="683.304" x2="48.8943" y2="-67.4766" gradientUnits="userSpaceOnUse">
<stop offset="0.0321782" stop-color="#93DD83"/>
<stop offset="1" stop-color="#A8DD80"/>
</linearGradient>
<linearGradient id="paint18_linear" x1="1977.55" y1="849.703" x2="-13.8405" y2="98.9229" gradientUnits="userSpaceOnUse">
<stop offset="0.0321782" stop-color="#93DD83"/>
<stop offset="1" stop-color="#A8DD80"/>
</linearGradient>
<linearGradient id="paint19_linear" x1="1963.84" y1="886.053" x2="-27.5448" y2="135.273" gradientUnits="userSpaceOnUse">
<stop offset="0.0321782" stop-color="#93DD83"/>
<stop offset="1" stop-color="#A8DD80"/>
</linearGradient>
<linearGradient id="paint20_linear" x1="2028.8" y1="713.765" x2="37.41" y2="-37.0156" gradientUnits="userSpaceOnUse">
<stop offset="0.0321782" stop-color="#93DD83"/>
<stop offset="1" stop-color="#A8DD80"/>
</linearGradient>
<linearGradient id="paint21_linear" x1="1960.54" y1="894.804" x2="-30.8443" y2="144.024" gradientUnits="userSpaceOnUse">
<stop offset="0.0321782" stop-color="#93DD83"/>
<stop offset="1" stop-color="#A8DD80"/>
</linearGradient>
<linearGradient id="paint22_linear" x1="2034.54" y1="698.534" x2="43.1521" y2="-52.2461" gradientUnits="userSpaceOnUse">
<stop offset="0.0321782" stop-color="#93DD83"/>
<stop offset="1" stop-color="#A8DD80"/>
</linearGradient>
<linearGradient id="paint23_linear" x1="2049" y1="660.186" x2="57.6098" y2="-90.5939" gradientUnits="userSpaceOnUse">
<stop offset="0.0321782" stop-color="#93DD83"/>
<stop offset="1" stop-color="#A8DD80"/>
</linearGradient>
<linearGradient id="paint24_linear" x1="2006.18" y1="773.758" x2="14.7916" y2="22.9777" gradientUnits="userSpaceOnUse">
<stop offset="0.0321782" stop-color="#93DD83"/>
<stop offset="1" stop-color="#A8DD80"/>
</linearGradient>
<linearGradient id="paint25_linear" x1="2009.75" y1="764.294" x2="18.3598" y2="13.5136" gradientUnits="userSpaceOnUse">
<stop offset="0.0321782" stop-color="#93DD83"/>
<stop offset="1" stop-color="#A8DD80"/>
</linearGradient>
<linearGradient id="paint26_linear" x1="1994.34" y1="805.148" x2="2.95716" y2="54.3679" gradientUnits="userSpaceOnUse">
<stop offset="0.0321782" stop-color="#93DD83"/>
<stop offset="1" stop-color="#A8DD80"/>
</linearGradient>
<linearGradient id="paint27_linear" x1="2000.08" y1="789.918" x2="8.69929" y2="39.1376" gradientUnits="userSpaceOnUse">
<stop offset="0.0321782" stop-color="#93DD83"/>
<stop offset="1" stop-color="#A8DD80"/>
</linearGradient>
<linearGradient id="paint28_linear" x1="2013.31" y1="754.83" x2="21.928" y2="4.04917" gradientUnits="userSpaceOnUse">
<stop offset="0.0321782" stop-color="#93DD83"/>
<stop offset="1" stop-color="#A8DD80"/>
</linearGradient>
<linearGradient id="paint29_linear" x1="2002.61" y1="783.222" x2="11.2235" y2="32.4417" gradientUnits="userSpaceOnUse">
<stop offset="0.0321782" stop-color="#93DD83"/>
<stop offset="1" stop-color="#A8DD80"/>
</linearGradient>
<linearGradient id="paint30_linear" x1="2046.02" y1="668.073" x2="54.6364" y2="-82.7068" gradientUnits="userSpaceOnUse">
<stop offset="0.0321782" stop-color="#93DD83"/>
<stop offset="1" stop-color="#A8DD80"/>
</linearGradient>
<linearGradient id="paint31_linear" x1="1999.04" y1="792.687" x2="7.65537" y2="41.9059" gradientUnits="userSpaceOnUse">
<stop offset="0.0321782" stop-color="#93DD83"/>
<stop offset="1" stop-color="#A8DD80"/>
</linearGradient>
<linearGradient id="paint32_linear" x1="1988.6" y1="820.379" x2="-2.78496" y2="69.5985" gradientUnits="userSpaceOnUse">
<stop offset="0.0321782" stop-color="#93DD83"/>
<stop offset="1" stop-color="#A8DD80"/>
</linearGradient>
<linearGradient id="paint33_linear" x1="1973.15" y1="861.368" x2="-18.2384" y2="110.588" gradientUnits="userSpaceOnUse">
<stop offset="0.0321782" stop-color="#93DD83"/>
<stop offset="1" stop-color="#A8DD80"/>
</linearGradient>
<linearGradient id="paint34_linear" x1="2024.02" y1="726.437" x2="32.6326" y2="-24.3439" gradientUnits="userSpaceOnUse">
<stop offset="0.0321782" stop-color="#93DD83"/>
<stop offset="1" stop-color="#A8DD80"/>
</linearGradient>
<linearGradient id="paint35_linear" x1="2020.45" y1="735.901" x2="29.0643" y2="-14.8794" gradientUnits="userSpaceOnUse">
<stop offset="0.0321782" stop-color="#93DD83"/>
<stop offset="1" stop-color="#A8DD80"/>
</linearGradient>
<linearGradient id="paint36_linear" x1="1982.86" y1="835.609" x2="-8.52721" y2="84.8293" gradientUnits="userSpaceOnUse">
<stop offset="0.0321782" stop-color="#93DD83"/>
<stop offset="1" stop-color="#A8DD80"/>
</linearGradient>
<linearGradient id="paint37_linear" x1="1974.5" y1="857.789" x2="-16.889" y2="107.009" gradientUnits="userSpaceOnUse">
<stop offset="0.0321782" stop-color="#93DD83"/>
<stop offset="1" stop-color="#A8DD80"/>
</linearGradient>
<linearGradient id="paint38_linear" x1="2011.57" y1="759.457" x2="20.1836" y2="8.67617" gradientUnits="userSpaceOnUse">
<stop offset="0.0321782" stop-color="#93DD83"/>
<stop offset="1" stop-color="#A8DD80"/>
</linearGradient>
<linearGradient id="paint39_linear" x1="2016.88" y1="745.365" x2="25.4962" y2="-5.41488" gradientUnits="userSpaceOnUse">
<stop offset="0.0321782" stop-color="#93DD83"/>
<stop offset="1" stop-color="#A8DD80"/>
</linearGradient>
<linearGradient id="paint40_linear" x1="2005.83" y1="774.687" x2="14.4414" y2="23.9068" gradientUnits="userSpaceOnUse">
<stop offset="0.0321782" stop-color="#93DD83"/>
<stop offset="1" stop-color="#A8DD80"/>
</linearGradient>
<linearGradient id="paint41_linear" x1="1977.12" y1="850.84" x2="-14.2692" y2="100.059" gradientUnits="userSpaceOnUse">
<stop offset="0.0321782" stop-color="#93DD83"/>
<stop offset="1" stop-color="#A8DD80"/>
</linearGradient>
<linearGradient id="paint42_linear" x1="-142.657" y1="136.31" x2="2329.34" y2="888.31" gradientUnits="userSpaceOnUse">
<stop stop-color="#AADD80"/>
<stop offset="0.953" stop-color="#AADD80"/>
</linearGradient>
<linearGradient id="paint43_linear" x1="-139.09" y1="124.584" x2="2332.91" y2="876.584" gradientUnits="userSpaceOnUse">
<stop stop-color="#AADD80"/>
<stop offset="0.953" stop-color="#AADD80"/>
</linearGradient>
<linearGradient id="paint44_linear" x1="-135.523" y1="112.858" x2="2336.48" y2="864.858" gradientUnits="userSpaceOnUse">
<stop stop-color="#AADD80"/>
<stop offset="0.953" stop-color="#AADD80"/>
</linearGradient>
<linearGradient id="paint45_linear" x1="-131.956" y1="101.132" x2="2340.04" y2="853.133" gradientUnits="userSpaceOnUse">
<stop stop-color="#AADD80"/>
<stop offset="0.953" stop-color="#AADD80"/>
</linearGradient>
<linearGradient id="paint46_linear" x1="-128.389" y1="89.4068" x2="2343.61" y2="841.407" gradientUnits="userSpaceOnUse">
<stop stop-color="#AADD80"/>
<stop offset="0.953" stop-color="#AADD80"/>
</linearGradient>
<linearGradient id="paint47_linear" x1="-124.822" y1="77.681" x2="2347.18" y2="829.681" gradientUnits="userSpaceOnUse">
<stop stop-color="#AADD80"/>
<stop offset="0.953" stop-color="#AADD80"/>
</linearGradient>
<linearGradient id="paint48_linear" x1="-121.255" y1="65.9553" x2="2350.74" y2="817.955" gradientUnits="userSpaceOnUse">
<stop stop-color="#AADD80"/>
<stop offset="0.953" stop-color="#AADD80"/>
</linearGradient>
<linearGradient id="paint49_linear" x1="-117.688" y1="54.2299" x2="2354.31" y2="806.23" gradientUnits="userSpaceOnUse">
<stop stop-color="#AADD80"/>
<stop offset="0.953" stop-color="#AADD80"/>
</linearGradient>
<linearGradient id="paint50_linear" x1="-114.121" y1="42.5041" x2="2357.88" y2="794.504" gradientUnits="userSpaceOnUse">
<stop stop-color="#AADD80"/>
<stop offset="0.953" stop-color="#AADD80"/>
</linearGradient>
<linearGradient id="paint51_linear" x1="-110.554" y1="30.778" x2="2361.45" y2="782.778" gradientUnits="userSpaceOnUse">
<stop stop-color="#AADD80"/>
<stop offset="0.953" stop-color="#AADD80"/>
</linearGradient>
<linearGradient id="paint52_linear" x1="-106.987" y1="19.0525" x2="2365.01" y2="771.053" gradientUnits="userSpaceOnUse">
<stop stop-color="#AADD80"/>
<stop offset="0.953" stop-color="#AADD80"/>
</linearGradient>
<linearGradient id="paint53_linear" x1="-103.42" y1="7.32668" x2="2368.58" y2="759.327" gradientUnits="userSpaceOnUse">
<stop stop-color="#AADD80"/>
<stop offset="0.953" stop-color="#AADD80"/>
</linearGradient>
<linearGradient id="paint54_linear" x1="-99.8527" y1="-4.39878" x2="2372.15" y2="747.601" gradientUnits="userSpaceOnUse">
<stop stop-color="#AADD80"/>
<stop offset="0.953" stop-color="#AADD80"/>
</linearGradient>
<linearGradient id="paint55_linear" x1="-96.2858" y1="-16.1244" x2="2375.71" y2="735.876" gradientUnits="userSpaceOnUse">
<stop stop-color="#AADD80"/>
<stop offset="0.953" stop-color="#AADD80"/>
</linearGradient>
<linearGradient id="paint56_linear" x1="-92.7185" y1="-27.8504" x2="2379.28" y2="724.15" gradientUnits="userSpaceOnUse">
<stop stop-color="#AADD80"/>
<stop offset="0.953" stop-color="#AADD80"/>
</linearGradient>
<linearGradient id="paint57_linear" x1="-89.1514" y1="-39.5759" x2="2382.85" y2="712.424" gradientUnits="userSpaceOnUse">
<stop stop-color="#AADD80"/>
<stop offset="0.953" stop-color="#AADD80"/>
</linearGradient>
<linearGradient id="paint58_linear" x1="-85.5843" y1="-51.3016" x2="2386.42" y2="700.698" gradientUnits="userSpaceOnUse">
<stop stop-color="#AADD80"/>
<stop offset="0.953" stop-color="#AADD80"/>
</linearGradient>
<linearGradient id="paint59_linear" x1="-88.0454" y1="-43.2113" x2="2383.95" y2="708.789" gradientUnits="userSpaceOnUse">
<stop stop-color="#AADD80"/>
<stop offset="0.953" stop-color="#AADD80"/>
</linearGradient>
<linearGradient id="paint60_linear" x1="-91.7327" y1="-31.0918" x2="2380.27" y2="720.908" gradientUnits="userSpaceOnUse">
<stop stop-color="#AADD80"/>
<stop offset="0.953" stop-color="#AADD80"/>
</linearGradient>
<linearGradient id="paint61_linear" x1="-95.4195" y1="-18.972" x2="2376.58" y2="733.028" gradientUnits="userSpaceOnUse">
<stop stop-color="#AADD80"/>
<stop offset="0.953" stop-color="#AADD80"/>
</linearGradient>
<linearGradient id="paint62_linear" x1="-99.1062" y1="-6.85227" x2="2372.89" y2="745.148" gradientUnits="userSpaceOnUse">
<stop stop-color="#AADD80"/>
<stop offset="0.953" stop-color="#AADD80"/>
</linearGradient>
<linearGradient id="paint63_linear" x1="-102.793" y1="5.26754" x2="2369.21" y2="757.268" gradientUnits="userSpaceOnUse">
<stop stop-color="#AADD80"/>
<stop offset="0.953" stop-color="#AADD80"/>
</linearGradient>
<linearGradient id="paint64_linear" x1="-106.48" y1="17.3872" x2="2365.52" y2="769.387" gradientUnits="userSpaceOnUse">
<stop stop-color="#AADD80"/>
<stop offset="0.953" stop-color="#AADD80"/>
</linearGradient>
<linearGradient id="paint65_linear" x1="-110.167" y1="29.5069" x2="2361.83" y2="781.507" gradientUnits="userSpaceOnUse">
<stop stop-color="#AADD80"/>
<stop offset="0.953" stop-color="#AADD80"/>
</linearGradient>
<linearGradient id="paint66_linear" x1="-113.854" y1="41.6267" x2="2358.15" y2="793.627" gradientUnits="userSpaceOnUse">
<stop stop-color="#AADD80"/>
<stop offset="0.953" stop-color="#AADD80"/>
</linearGradient>
<linearGradient id="paint67_linear" x1="-117.541" y1="53.7465" x2="2354.46" y2="805.747" gradientUnits="userSpaceOnUse">
<stop stop-color="#AADD80"/>
<stop offset="0.953" stop-color="#AADD80"/>
</linearGradient>
<linearGradient id="paint68_linear" x1="-121.228" y1="65.8661" x2="2350.77" y2="817.866" gradientUnits="userSpaceOnUse">
<stop stop-color="#AADD80"/>
<stop offset="0.953" stop-color="#AADD80"/>
</linearGradient>
<linearGradient id="paint69_linear" x1="-124.915" y1="77.9859" x2="2347.09" y2="829.986" gradientUnits="userSpaceOnUse">
<stop stop-color="#AADD80"/>
<stop offset="0.953" stop-color="#AADD80"/>
</linearGradient>
<linearGradient id="paint70_linear" x1="-128.601" y1="90.1056" x2="2343.4" y2="842.106" gradientUnits="userSpaceOnUse">
<stop stop-color="#AADD80"/>
<stop offset="0.953" stop-color="#AADD80"/>
</linearGradient>
<linearGradient id="paint71_linear" x1="-132.288" y1="102.225" x2="2339.71" y2="854.225" gradientUnits="userSpaceOnUse">
<stop stop-color="#AADD80"/>
<stop offset="0.953" stop-color="#AADD80"/>
</linearGradient>
<linearGradient id="paint72_linear" x1="-135.975" y1="114.345" x2="2336.02" y2="866.345" gradientUnits="userSpaceOnUse">
<stop stop-color="#AADD80"/>
<stop offset="0.953" stop-color="#AADD80"/>
</linearGradient>
<linearGradient id="paint73_linear" x1="-134.937" y1="110.932" x2="2337.06" y2="862.932" gradientUnits="userSpaceOnUse">
<stop stop-color="#AADD80"/>
<stop offset="0.953" stop-color="#AADD80"/>
</linearGradient>
<linearGradient id="paint74_linear" x1="-131.766" y1="100.509" x2="2340.23" y2="852.509" gradientUnits="userSpaceOnUse">
<stop stop-color="#AADD80"/>
<stop offset="0.953" stop-color="#AADD80"/>
</linearGradient>
<linearGradient id="paint75_linear" x1="-131.153" y1="98.4945" x2="2340.85" y2="850.495" gradientUnits="userSpaceOnUse">
<stop stop-color="#AADD80"/>
<stop offset="0.953" stop-color="#AADD80"/>
</linearGradient>
<linearGradient id="paint76_linear" x1="-132.939" y1="104.364" x2="2339.06" y2="856.364" gradientUnits="userSpaceOnUse">
<stop stop-color="#AADD80"/>
<stop offset="0.953" stop-color="#AADD80"/>
</linearGradient>
<linearGradient id="paint77_linear" x1="-134.724" y1="110.233" x2="2337.28" y2="862.233" gradientUnits="userSpaceOnUse">
<stop stop-color="#AADD80"/>
<stop offset="0.953" stop-color="#AADD80"/>
</linearGradient>
<linearGradient id="paint78_linear" x1="-136.51" y1="116.102" x2="2335.49" y2="868.102" gradientUnits="userSpaceOnUse">
<stop stop-color="#AADD80"/>
<stop offset="0.953" stop-color="#AADD80"/>
</linearGradient>
<linearGradient id="paint79_linear" x1="-138.295" y1="121.971" x2="2333.7" y2="873.971" gradientUnits="userSpaceOnUse">
<stop stop-color="#AADD80"/>
<stop offset="0.953" stop-color="#AADD80"/>
</linearGradient>
<linearGradient id="paint80_linear" x1="-140.08" y1="127.839" x2="2331.92" y2="879.839" gradientUnits="userSpaceOnUse">
<stop stop-color="#AADD80"/>
<stop offset="0.953" stop-color="#AADD80"/>
</linearGradient>
<linearGradient id="paint81_linear" x1="-141.866" y1="133.708" x2="2330.13" y2="885.708" gradientUnits="userSpaceOnUse">
<stop stop-color="#AADD80"/>
<stop offset="0.953" stop-color="#AADD80"/>
</linearGradient>
<linearGradient id="paint82_linear" x1="-143.651" y1="139.577" x2="2328.35" y2="891.577" gradientUnits="userSpaceOnUse">
<stop stop-color="#AADD80"/>
<stop offset="0.953" stop-color="#AADD80"/>
</linearGradient>
<linearGradient id="paint83_linear" x1="-145.437" y1="145.446" x2="2326.56" y2="897.446" gradientUnits="userSpaceOnUse">
<stop stop-color="#AADD80"/>
<stop offset="0.953" stop-color="#AADD80"/>
</linearGradient>
<clipPath id="clip0">
<rect width="1917.3" height="795.9" fill="white" transform="translate(0 0.773926)"/>
</clipPath>
</defs>
</svg>
