<svg width="1920" height="625" viewBox="0 0 1920 625" fill="none" xmlns="http://www.w3.org/2000/svg">
<g clip-path="url(#clip0)">
<path d="M363.499 1.31662L42.6992 464.517L83.0992 469.017L406.999 1.31662H363.499Z" fill="url(#paint0_linear)"/>
<path d="M409.7 1.31662L85.5996 469.217L125.9 473.717L453.2 1.31662H409.7Z" fill="url(#paint1_linear)"/>
<path d="M1333.4 1.11663L943.1 564.517L982.9 568.917L1376.3 1.01663L1333.4 1.11663Z" fill="url(#paint2_linear)"/>
<path d="M502.101 1.31662L171.301 478.817L211.601 483.217L545.501 1.31662H502.101Z" fill="url(#paint3_linear)"/>
<path d="M455.9 1.31662L128.4 474.017L168.8 478.517L499.3 1.31662H455.9Z" fill="url(#paint4_linear)"/>
<path d="M1287.2 1.11664L900.199 559.817L939.999 564.217L1330.1 1.11664H1287.2Z" fill="url(#paint5_linear)"/>
<path d="M0 1.41663V56.0166L37.8 1.41663H0Z" fill="url(#paint6_linear)"/>
<path d="M86.4 1.41663L0 126.117V189.217L130.1 1.41663H86.4Z" fill="url(#paint7_linear)"/>
<path d="M271.1 1.31662L0 392.817V455.717L314.7 1.31662H271.1Z" fill="url(#paint8_linear)"/>
<path d="M1241 1.11664L857.301 555.017L897.201 559.417L1283.9 1.11664H1241Z" fill="url(#paint9_linear)"/>
<path d="M1425.7 1.01663L1028.8 574.017L1068.6 578.517L1468.6 1.01663H1425.7Z" fill="url(#paint10_linear)"/>
<path d="M1379.5 1.01663L985.9 569.317L1025.7 573.717L1422.4 1.01663H1379.5Z" fill="url(#paint11_linear)"/>
<path d="M317.3 1.31662L0 459.417V459.717L40.2 464.217L360.9 1.31662H317.3Z" fill="url(#paint12_linear)"/>
<path d="M40.2 1.41663L0 59.5166V122.617L84 1.41663H40.2Z" fill="url(#paint13_linear)"/>
<path d="M1148.6 1.11664L771.6 545.517L811.5 549.917L1191.6 1.11664H1148.6Z" fill="url(#paint14_linear)"/>
<path d="M1010.1 1.11664L642.9 531.217L682.9 535.617L1053.2 1.11664H1010.1Z" fill="url(#paint15_linear)"/>
<path d="M779.2 1.21661L428.6 507.317L468.7 511.817L822.4 1.21661H779.2Z" fill="url(#paint16_linear)"/>
<path d="M1056.3 1.11664L685.801 535.917L725.801 540.417L1099.3 1.11664H1056.3Z" fill="url(#paint17_linear)"/>
<path d="M917.699 1.21661L557.199 521.617L597.199 526.117L960.899 1.21661H917.699Z" fill="url(#paint18_linear)"/>
<path d="M963.9 1.21664L600.1 526.417L640.1 530.917L1007 1.11664L963.9 1.21664Z" fill="url(#paint19_linear)"/>
<path d="M732.999 1.21661L385.699 502.617L425.899 507.017L776.299 1.21661H732.999Z" fill="url(#paint20_linear)"/>
<path d="M825.3 1.21661L471.4 512.117L511.6 516.617L868.6 1.21661H825.3Z" fill="url(#paint21_linear)"/>
<path d="M1471.9 1.01663L1071.7 578.817L1111.4 583.217L1514.7 1.01663H1471.9Z" fill="url(#paint22_linear)"/>
<path d="M640.6 1.21661L299.9 493.117L340.2 497.517L683.9 1.21661H640.6Z" fill="url(#paint23_linear)"/>
<path d="M1194.8 1.11664L814.4 550.217L854.3 554.717L1237.8 1.11664H1194.8Z" fill="url(#paint24_linear)"/>
<path d="M594.4 1.21661L257.1 488.317L297.3 492.817L637.8 1.21661H594.4Z" fill="url(#paint25_linear)"/>
<path d="M548.199 1.31661L214.199 483.517L254.499 488.017L591.599 1.21661L548.199 1.31661Z" fill="url(#paint26_linear)"/>
<path d="M1102.4 1.11664L728.699 540.717L768.599 545.117L1145.5 1.11664H1102.4Z" fill="url(#paint27_linear)"/>
<path d="M686.801 1.21661L342.801 497.817L383.001 502.317L730.101 1.21661H686.801Z" fill="url(#paint28_linear)"/>
<path d="M178.8 1.41662L0 259.417V322.417L222.4 1.31662L178.8 1.41662Z" fill="url(#paint29_linear)"/>
<path d="M1749 0.916626L1328.9 607.417L1368.5 611.817L1791.6 0.916626H1749Z" fill="url(#paint30_linear)"/>
<path d="M1887.6 0.916626L1457.6 621.717L1480.2 624.217C1488.8 625.217 1497.3 622.317 1503.5 616.717L1930.1 0.916626H1887.6Z" fill="url(#paint31_linear)"/>
<path d="M1656.6 1.01663L1243.2 597.917L1282.8 602.317L1699.3 1.01663H1656.6Z" fill="url(#paint32_linear)"/>
<path d="M1795.2 0.916626L1371.8 612.217L1411.3 616.517L1837.8 0.916626H1795.2Z" fill="url(#paint33_linear)"/>
<path d="M1841.4 0.916626L1414.7 616.917L1454.2 621.317L1883.9 0.916626H1841.4Z" fill="url(#paint34_linear)"/>
<path d="M1610.5 1.01663L1200.3 593.117L1240 597.517L1653.2 1.01663H1610.5Z" fill="url(#paint35_linear)"/>
<path d="M871.501 1.21661L514.301 516.917L554.401 521.317L914.701 1.21661H871.501Z" fill="url(#paint36_linear)"/>
<path d="M225 1.31662L0 326.117V389.017L268.6 1.31662H225Z" fill="url(#paint37_linear)"/>
<path d="M132.6 1.41663L0 192.817V255.817L176.3 1.41663H132.6Z" fill="url(#paint38_linear)"/>
<path d="M1518.1 1.01663L1114.6 583.617L1154.3 588.017L1560.9 1.01663H1518.1Z" fill="url(#paint39_linear)"/>
<path d="M1564.3 1.01663L1157.4 588.317L1197.1 592.717L1607 1.01663H1564.3Z" fill="url(#paint40_linear)"/>
<path d="M1702.8 1.01663L1286.1 602.617L1325.7 607.017L1745.5 0.916626L1702.8 1.01663Z" fill="url(#paint41_linear)"/>
<path d="M1508.3 611.317L1931.5 0.916626H1930.1L1503.5 616.717C1505.3 615.117 1506.9 613.317 1508.3 611.317Z" fill="url(#paint42_linear)"/>
<path d="M1883.9 0.916626L1454.2 621.317L1457.6 621.717L1887.6 0.916626H1883.9Z" fill="url(#paint43_linear)"/>
<path d="M1837.8 0.916626L1411.3 616.517L1414.7 616.917L1841.4 0.916626H1837.8Z" fill="url(#paint44_linear)"/>
<path d="M1791.6 0.916626L1368.5 611.817L1371.8 612.217L1795.2 0.916626H1791.6Z" fill="url(#paint45_linear)"/>
<path d="M1745.5 0.916626L1325.7 607.017L1328.9 607.417L1749 0.916626H1745.5Z" fill="url(#paint46_linear)"/>
<path d="M1699.3 1.01663L1282.8 602.317L1286.1 602.617L1702.8 1.01663H1699.3Z" fill="url(#paint47_linear)"/>
<path d="M1653.2 1.01663L1240 597.517L1243.2 597.917L1656.6 1.01663H1653.2Z" fill="url(#paint48_linear)"/>
<path d="M1607 1.01663L1197.1 592.717L1200.3 593.117L1610.5 1.01663H1607Z" fill="url(#paint49_linear)"/>
<path d="M1560.9 1.01663L1154.3 588.017L1157.4 588.317L1564.3 1.01663H1560.9Z" fill="url(#paint50_linear)"/>
<path d="M1514.7 1.01663L1111.4 583.217L1114.6 583.617L1518.1 1.01663H1514.7Z" fill="url(#paint51_linear)"/>
<path d="M1468.6 1.01663L1068.6 578.517L1071.7 578.817L1471.9 1.01663H1468.6Z" fill="url(#paint52_linear)"/>
<path d="M1422.4 1.01663L1025.7 573.717L1028.8 574.017L1425.7 1.01663H1422.4Z" fill="url(#paint53_linear)"/>
<path d="M1376.3 1.01663L982.9 568.917L985.9 569.317L1379.5 1.01663H1376.3Z" fill="url(#paint54_linear)"/>
<path d="M1330.1 1.11664L940 564.217L943.1 564.517L1333.4 1.11664H1330.1Z" fill="url(#paint55_linear)"/>
<path d="M1283.9 1.11664L897.199 559.417L900.199 559.817L1287.2 1.11664H1283.9Z" fill="url(#paint56_linear)"/>
<path d="M1237.8 1.11664L854.301 554.717L857.301 555.017L1241 1.11664H1237.8Z" fill="url(#paint57_linear)"/>
<path d="M1191.6 1.11664L811.5 549.917L814.4 550.217L1194.8 1.11664H1191.6Z" fill="url(#paint58_linear)"/>
<path d="M1145.5 1.11664L768.6 545.117L771.6 545.517L1148.6 1.11664H1145.5Z" fill="url(#paint59_linear)"/>
<path d="M1099.3 1.11664L725.801 540.417L728.701 540.717L1102.4 1.11664H1099.3Z" fill="url(#paint60_linear)"/>
<path d="M1053.2 1.11664L682.9 535.617L685.8 535.917L1056.3 1.11664H1053.2Z" fill="url(#paint61_linear)"/>
<path d="M1007 1.11664L640.1 530.917L642.9 531.217L1010.1 1.11664H1007Z" fill="url(#paint62_linear)"/>
<path d="M960.899 1.21661L597.199 526.117L600.099 526.417L963.899 1.21661H960.899Z" fill="url(#paint63_linear)"/>
<path d="M914.7 1.21661L554.4 521.317L557.2 521.617L917.7 1.21661H914.7Z" fill="url(#paint64_linear)"/>
<path d="M868.6 1.21661L511.6 516.617L514.3 516.917L871.5 1.21661H868.6Z" fill="url(#paint65_linear)"/>
<path d="M822.399 1.21661L468.699 511.817L471.399 512.117L825.299 1.21661H822.399Z" fill="url(#paint66_linear)"/>
<path d="M776.3 1.21661L425.9 507.017L428.6 507.317L779.2 1.21661H776.3Z" fill="url(#paint67_linear)"/>
<path d="M730.1 1.21661L383 502.317L385.7 502.617L733 1.21661H730.1Z" fill="url(#paint68_linear)"/>
<path d="M683.899 1.21661L340.199 497.517L342.799 497.817L686.799 1.21661H683.899Z" fill="url(#paint69_linear)"/>
<path d="M637.801 1.21661L297.301 492.817L299.901 493.117L640.601 1.21661H637.801Z" fill="url(#paint70_linear)"/>
<path d="M591.6 1.21661L254.5 488.017L257.1 488.317L594.4 1.21661H591.6Z" fill="url(#paint71_linear)"/>
<path d="M545.5 1.31662L211.6 483.217L214.2 483.517L548.2 1.31662H545.5Z" fill="url(#paint72_linear)"/>
<path d="M499.301 1.31662L168.801 478.517L171.301 478.817L502.101 1.31662H499.301Z" fill="url(#paint73_linear)"/>
<path d="M453.2 1.31662L125.9 473.717L128.4 474.017L455.9 1.31662H453.2Z" fill="url(#paint74_linear)"/>
<path d="M407 1.31662L83.0996 469.017L85.5996 469.217L409.7 1.31662H407Z" fill="url(#paint75_linear)"/>
<path d="M360.899 1.31662L40.1992 464.217L42.6992 464.517L363.499 1.31662H360.899Z" fill="url(#paint76_linear)"/>
<path d="M314.7 1.31662L0 455.717V459.417L317.3 1.31662H314.7Z" fill="url(#paint77_linear)"/>
<path d="M268.6 1.31662L0 389.017V392.817L271.1 1.31662H268.6Z" fill="url(#paint78_linear)"/>
<path d="M222.4 1.31662L0 322.417V326.117L225 1.31662H222.4Z" fill="url(#paint79_linear)"/>
<path d="M176.3 1.41663L0 255.817V259.417L178.8 1.41663H176.3Z" fill="url(#paint80_linear)"/>
<path d="M130.1 1.41663L0 189.217V192.817L132.6 1.41663H130.1Z" fill="url(#paint81_linear)"/>
<path d="M84 1.41663L0 122.617V126.117L86.4 1.41663H84Z" fill="url(#paint82_linear)"/>
<path d="M37.8 1.41663L0 56.0166V59.5166L40.2 1.41663H37.8Z" fill="url(#paint83_linear)"/>
<g filter="url(#filter0_d)">
<rect x="787.5" y="347.4" width="75" height="75" rx="6" fill="#FFFCFC"/>
</g>
<g filter="url(#filter1_d)">
<rect x="787.5" y="259.367" width="75" height="75" rx="6" fill="#FFFCFC"/>
</g>
</g>
<defs>
<filter id="filter0_d" x="777.5" y="342.4" width="91" height="91" filterUnits="userSpaceOnUse" color-interpolation-filters="sRGB">
<feFlood flood-opacity="0" result="BackgroundImageFix"/>
<feColorMatrix in="SourceAlpha" type="matrix" values="0 0 0 0 0 0 0 0 0 0 0 0 0 0 0 0 0 0 127 0"/>
<feOffset dx="-2" dy="3"/>
<feGaussianBlur stdDeviation="4"/>
<feColorMatrix type="matrix" values="0 0 0 0 0.444286 0 0 0 0 0.517885 0 0 0 0 0.768125 0 0 0 0.15 0"/>
<feBlend mode="normal" in2="BackgroundImageFix" result="effect1_dropShadow"/>
<feBlend mode="normal" in="SourceGraphic" in2="effect1_dropShadow" result="shape"/>
</filter>
<filter id="filter1_d" x="777.5" y="254.367" width="91" height="91" filterUnits="userSpaceOnUse" color-interpolation-filters="sRGB">
<feFlood flood-opacity="0" result="BackgroundImageFix"/>
<feColorMatrix in="SourceAlpha" type="matrix" values="0 0 0 0 0 0 0 0 0 0 0 0 0 0 0 0 0 0 127 0"/>
<feOffset dx="-2" dy="3"/>
<feGaussianBlur stdDeviation="4"/>
<feColorMatrix type="matrix" values="0 0 0 0 0.444286 0 0 0 0 0.517885 0 0 0 0 0.768125 0 0 0 0.15 0"/>
<feBlend mode="normal" in2="BackgroundImageFix" result="effect1_dropShadow"/>
<feBlend mode="normal" in="SourceGraphic" in2="effect1_dropShadow" result="shape"/>
</filter>
<linearGradient id="paint0_linear" x1="1998.58" y1="619.788" x2="210.578" y2="229.788" gradientUnits="userSpaceOnUse">
<stop offset="0.0470297" stop-color="#93DD83"/>
<stop offset="1" stop-color="#A8DD80"/>
</linearGradient>
<linearGradient id="paint1_linear" x1="2000.11" y1="612.787" x2="212.105" y2="222.787" gradientUnits="userSpaceOnUse">
<stop offset="0.0470297" stop-color="#93DD83"/>
<stop offset="1" stop-color="#A8DD80"/>
</linearGradient>
<linearGradient id="paint2_linear" x1="2030.64" y1="472.778" x2="242.644" y2="82.7778" gradientUnits="userSpaceOnUse">
<stop offset="0.0470297" stop-color="#93DD83"/>
<stop offset="1" stop-color="#A8DD80"/>
</linearGradient>
<linearGradient id="paint3_linear" x1="2003.16" y1="598.786" x2="215.16" y2="208.786" gradientUnits="userSpaceOnUse">
<stop offset="0.0470297" stop-color="#93DD83"/>
<stop offset="1" stop-color="#A8DD80"/>
</linearGradient>
<linearGradient id="paint4_linear" x1="2001.63" y1="605.787" x2="213.633" y2="215.787" gradientUnits="userSpaceOnUse">
<stop offset="0.0470297" stop-color="#93DD83"/>
<stop offset="1" stop-color="#A8DD80"/>
</linearGradient>
<linearGradient id="paint5_linear" x1="2029.12" y1="479.778" x2="241.117" y2="89.7785" gradientUnits="userSpaceOnUse">
<stop offset="0.0470297" stop-color="#93DD83"/>
<stop offset="1" stop-color="#A8DD80"/>
</linearGradient>
<linearGradient id="paint6_linear" x1="2031.74" y1="467.733" x2="243.745" y2="77.7329" gradientUnits="userSpaceOnUse">
<stop offset="0.0470297" stop-color="#93DD83"/>
<stop offset="1" stop-color="#A8DD80"/>
</linearGradient>
<linearGradient id="paint7_linear" x1="2019.97" y1="521.704" x2="231.973" y2="131.703" gradientUnits="userSpaceOnUse">
<stop offset="0.0470297" stop-color="#93DD83"/>
<stop offset="1" stop-color="#A8DD80"/>
</linearGradient>
<linearGradient id="paint8_linear" x1="1996.43" y1="629.645" x2="208.428" y2="239.645" gradientUnits="userSpaceOnUse">
<stop offset="0.0470297" stop-color="#93DD83"/>
<stop offset="1" stop-color="#A8DD80"/>
</linearGradient>
<linearGradient id="paint9_linear" x1="2027.59" y1="486.779" x2="239.591" y2="96.7787" gradientUnits="userSpaceOnUse">
<stop offset="0.0470297" stop-color="#93DD83"/>
<stop offset="1" stop-color="#A8DD80"/>
</linearGradient>
<linearGradient id="paint10_linear" x1="2033.7" y1="458.777" x2="245.699" y2="68.777" gradientUnits="userSpaceOnUse">
<stop offset="0.0470297" stop-color="#93DD83"/>
<stop offset="1" stop-color="#A8DD80"/>
</linearGradient>
<linearGradient id="paint11_linear" x1="2032.17" y1="465.778" x2="244.172" y2="75.7775" gradientUnits="userSpaceOnUse">
<stop offset="0.0470297" stop-color="#93DD83"/>
<stop offset="1" stop-color="#A8DD80"/>
</linearGradient>
<linearGradient id="paint12_linear" x1="1997.05" y1="626.778" x2="209.054" y2="236.778" gradientUnits="userSpaceOnUse">
<stop offset="0.0470297" stop-color="#93DD83"/>
<stop offset="1" stop-color="#A8DD80"/>
</linearGradient>
<linearGradient id="paint13_linear" x1="2025.86" y1="494.718" x2="237.859" y2="104.718" gradientUnits="userSpaceOnUse">
<stop offset="0.0470297" stop-color="#93DD83"/>
<stop offset="1" stop-color="#A8DD80"/>
</linearGradient>
<linearGradient id="paint14_linear" x1="2024.54" y1="500.78" x2="236.536" y2="110.78" gradientUnits="userSpaceOnUse">
<stop offset="0.0470297" stop-color="#93DD83"/>
<stop offset="1" stop-color="#A8DD80"/>
</linearGradient>
<linearGradient id="paint15_linear" x1="2019.96" y1="521.781" x2="231.956" y2="131.781" gradientUnits="userSpaceOnUse">
<stop offset="0.0470297" stop-color="#93DD83"/>
<stop offset="1" stop-color="#A8DD80"/>
</linearGradient>
<linearGradient id="paint16_linear" x1="2012.32" y1="556.783" x2="224.321" y2="166.783" gradientUnits="userSpaceOnUse">
<stop offset="0.0470297" stop-color="#93DD83"/>
<stop offset="1" stop-color="#A8DD80"/>
</linearGradient>
<linearGradient id="paint17_linear" x1="2021.48" y1="514.781" x2="233.483" y2="124.781" gradientUnits="userSpaceOnUse">
<stop offset="0.0470297" stop-color="#93DD83"/>
<stop offset="1" stop-color="#A8DD80"/>
</linearGradient>
<linearGradient id="paint18_linear" x1="2016.9" y1="535.782" x2="228.901" y2="145.782" gradientUnits="userSpaceOnUse">
<stop offset="0.0470297" stop-color="#93DD83"/>
<stop offset="1" stop-color="#A8DD80"/>
</linearGradient>
<linearGradient id="paint19_linear" x1="2018.43" y1="528.782" x2="230.428" y2="138.782" gradientUnits="userSpaceOnUse">
<stop offset="0.0470297" stop-color="#93DD83"/>
<stop offset="1" stop-color="#A8DD80"/>
</linearGradient>
<linearGradient id="paint20_linear" x1="2010.79" y1="563.784" x2="222.793" y2="173.784" gradientUnits="userSpaceOnUse">
<stop offset="0.0470297" stop-color="#93DD83"/>
<stop offset="1" stop-color="#A8DD80"/>
</linearGradient>
<linearGradient id="paint21_linear" x1="2013.85" y1="549.783" x2="225.848" y2="159.783" gradientUnits="userSpaceOnUse">
<stop offset="0.0470297" stop-color="#93DD83"/>
<stop offset="1" stop-color="#A8DD80"/>
</linearGradient>
<linearGradient id="paint22_linear" x1="2035.22" y1="451.777" x2="247.224" y2="61.7766" gradientUnits="userSpaceOnUse">
<stop offset="0.0470297" stop-color="#93DD83"/>
<stop offset="1" stop-color="#A8DD80"/>
</linearGradient>
<linearGradient id="paint23_linear" x1="2007.74" y1="577.785" x2="219.741" y2="187.785" gradientUnits="userSpaceOnUse">
<stop offset="0.0470297" stop-color="#93DD83"/>
<stop offset="1" stop-color="#A8DD80"/>
</linearGradient>
<linearGradient id="paint24_linear" x1="2026.06" y1="493.779" x2="238.064" y2="103.779" gradientUnits="userSpaceOnUse">
<stop offset="0.0470297" stop-color="#93DD83"/>
<stop offset="1" stop-color="#A8DD80"/>
</linearGradient>
<linearGradient id="paint25_linear" x1="2006.21" y1="584.785" x2="218.213" y2="194.785" gradientUnits="userSpaceOnUse">
<stop offset="0.0470297" stop-color="#93DD83"/>
<stop offset="1" stop-color="#A8DD80"/>
</linearGradient>
<linearGradient id="paint26_linear" x1="2004.69" y1="591.786" x2="216.686" y2="201.786" gradientUnits="userSpaceOnUse">
<stop offset="0.0470297" stop-color="#93DD83"/>
<stop offset="1" stop-color="#A8DD80"/>
</linearGradient>
<linearGradient id="paint27_linear" x1="2023.01" y1="507.78" x2="235.009" y2="117.78" gradientUnits="userSpaceOnUse">
<stop offset="0.0470297" stop-color="#93DD83"/>
<stop offset="1" stop-color="#A8DD80"/>
</linearGradient>
<linearGradient id="paint28_linear" x1="2009.27" y1="570.784" x2="221.268" y2="180.784" gradientUnits="userSpaceOnUse">
<stop offset="0.0470297" stop-color="#93DD83"/>
<stop offset="1" stop-color="#A8DD80"/>
</linearGradient>
<linearGradient id="paint29_linear" x1="2008.2" y1="575.674" x2="220.2" y2="185.674" gradientUnits="userSpaceOnUse">
<stop offset="0.0470297" stop-color="#93DD83"/>
<stop offset="1" stop-color="#A8DD80"/>
</linearGradient>
<linearGradient id="paint30_linear" x1="2044.39" y1="409.774" x2="256.387" y2="19.7739" gradientUnits="userSpaceOnUse">
<stop offset="0.0470297" stop-color="#93DD83"/>
<stop offset="1" stop-color="#A8DD80"/>
</linearGradient>
<linearGradient id="paint31_linear" x1="2048.97" y1="388.772" x2="260.967" y2="-1.22761" gradientUnits="userSpaceOnUse">
<stop offset="0.0470297" stop-color="#93DD83"/>
<stop offset="1" stop-color="#A8DD80"/>
</linearGradient>
<linearGradient id="paint32_linear" x1="2041.33" y1="423.775" x2="253.332" y2="33.7747" gradientUnits="userSpaceOnUse">
<stop offset="0.0470297" stop-color="#93DD83"/>
<stop offset="1" stop-color="#A8DD80"/>
</linearGradient>
<linearGradient id="paint33_linear" x1="2045.91" y1="402.773" x2="257.915" y2="12.7732" gradientUnits="userSpaceOnUse">
<stop offset="0.0470297" stop-color="#93DD83"/>
<stop offset="1" stop-color="#A8DD80"/>
</linearGradient>
<linearGradient id="paint34_linear" x1="2047.44" y1="395.773" x2="259.44" y2="5.77269" gradientUnits="userSpaceOnUse">
<stop offset="0.0470297" stop-color="#93DD83"/>
<stop offset="1" stop-color="#A8DD80"/>
</linearGradient>
<linearGradient id="paint35_linear" x1="2039.81" y1="430.775" x2="251.807" y2="40.7754" gradientUnits="userSpaceOnUse">
<stop offset="0.0470297" stop-color="#93DD83"/>
<stop offset="1" stop-color="#A8DD80"/>
</linearGradient>
<linearGradient id="paint36_linear" x1="2015.38" y1="542.783" x2="227.376" y2="152.783" gradientUnits="userSpaceOnUse">
<stop offset="0.0470297" stop-color="#93DD83"/>
<stop offset="1" stop-color="#A8DD80"/>
</linearGradient>
<linearGradient id="paint37_linear" x1="2002.31" y1="602.66" x2="214.314" y2="212.66" gradientUnits="userSpaceOnUse">
<stop offset="0.0470297" stop-color="#93DD83"/>
<stop offset="1" stop-color="#A8DD80"/>
</linearGradient>
<linearGradient id="paint38_linear" x1="2014.09" y1="548.689" x2="226.086" y2="158.689" gradientUnits="userSpaceOnUse">
<stop offset="0.0470297" stop-color="#93DD83"/>
<stop offset="1" stop-color="#A8DD80"/>
</linearGradient>
<linearGradient id="paint39_linear" x1="2036.75" y1="444.776" x2="248.752" y2="54.7761" gradientUnits="userSpaceOnUse">
<stop offset="0.0470297" stop-color="#93DD83"/>
<stop offset="1" stop-color="#A8DD80"/>
</linearGradient>
<linearGradient id="paint40_linear" x1="2038.28" y1="437.776" x2="250.28" y2="47.7758" gradientUnits="userSpaceOnUse">
<stop offset="0.0470297" stop-color="#93DD83"/>
<stop offset="1" stop-color="#A8DD80"/>
</linearGradient>
<linearGradient id="paint41_linear" x1="2042.86" y1="416.774" x2="254.859" y2="26.7741" gradientUnits="userSpaceOnUse">
<stop offset="0.0470297" stop-color="#93DD83"/>
<stop offset="1" stop-color="#A8DD80"/>
</linearGradient>
<linearGradient id="paint42_linear" x1="1756.15" y1="316.375" x2="-146.035" y2="-55.6622" gradientUnits="userSpaceOnUse">
<stop stop-color="#AADD80"/>
<stop offset="0.953" stop-color="#AADD80"/>
</linearGradient>
<linearGradient id="paint43_linear" x1="1754" y1="327.385" x2="-148.189" y2="-44.6524" gradientUnits="userSpaceOnUse">
<stop stop-color="#AADD80"/>
<stop offset="0.953" stop-color="#AADD80"/>
</linearGradient>
<linearGradient id="paint44_linear" x1="1752.81" y1="333.483" x2="-149.38" y2="-38.5537" gradientUnits="userSpaceOnUse">
<stop stop-color="#AADD80"/>
<stop offset="0.953" stop-color="#AADD80"/>
</linearGradient>
<linearGradient id="paint45_linear" x1="1751.62" y1="339.582" x2="-150.574" y2="-32.455" gradientUnits="userSpaceOnUse">
<stop stop-color="#AADD80"/>
<stop offset="0.953" stop-color="#AADD80"/>
</linearGradient>
<linearGradient id="paint46_linear" x1="1750.42" y1="345.681" x2="-151.768" y2="-26.3563" gradientUnits="userSpaceOnUse">
<stop stop-color="#AADD80"/>
<stop offset="0.953" stop-color="#AADD80"/>
</linearGradient>
<linearGradient id="paint47_linear" x1="1749.23" y1="351.78" x2="-152.959" y2="-20.2573" gradientUnits="userSpaceOnUse">
<stop stop-color="#AADD80"/>
<stop offset="0.953" stop-color="#AADD80"/>
</linearGradient>
<linearGradient id="paint48_linear" x1="1748.04" y1="357.879" x2="-154.152" y2="-14.1586" gradientUnits="userSpaceOnUse">
<stop stop-color="#AADD80"/>
<stop offset="0.953" stop-color="#AADD80"/>
</linearGradient>
<linearGradient id="paint49_linear" x1="1746.84" y1="363.977" x2="-155.346" y2="-8.05992" gradientUnits="userSpaceOnUse">
<stop stop-color="#AADD80"/>
<stop offset="0.953" stop-color="#AADD80"/>
</linearGradient>
<linearGradient id="paint50_linear" x1="1745.65" y1="370.076" x2="-156.537" y2="-1.96128" gradientUnits="userSpaceOnUse">
<stop stop-color="#AADD80"/>
<stop offset="0.953" stop-color="#AADD80"/>
</linearGradient>
<linearGradient id="paint51_linear" x1="1744.46" y1="376.175" x2="-157.73" y2="4.13766" gradientUnits="userSpaceOnUse">
<stop stop-color="#AADD80"/>
<stop offset="0.953" stop-color="#AADD80"/>
</linearGradient>
<linearGradient id="paint52_linear" x1="1743.27" y1="382.273" x2="-158.924" y2="10.2362" gradientUnits="userSpaceOnUse">
<stop stop-color="#AADD80"/>
<stop offset="0.953" stop-color="#AADD80"/>
</linearGradient>
<linearGradient id="paint53_linear" x1="1742.07" y1="388.372" x2="-160.117" y2="16.335" gradientUnits="userSpaceOnUse">
<stop stop-color="#AADD80"/>
<stop offset="0.953" stop-color="#AADD80"/>
</linearGradient>
<linearGradient id="paint54_linear" x1="1740.88" y1="394.471" x2="-161.309" y2="22.4339" gradientUnits="userSpaceOnUse">
<stop stop-color="#AADD80"/>
<stop offset="0.953" stop-color="#AADD80"/>
</linearGradient>
<linearGradient id="paint55_linear" x1="1739.69" y1="400.57" x2="-162.502" y2="28.5325" gradientUnits="userSpaceOnUse">
<stop stop-color="#AADD80"/>
<stop offset="0.953" stop-color="#AADD80"/>
</linearGradient>
<linearGradient id="paint56_linear" x1="1738.49" y1="406.668" x2="-163.696" y2="34.6314" gradientUnits="userSpaceOnUse">
<stop stop-color="#AADD80"/>
<stop offset="0.953" stop-color="#AADD80"/>
</linearGradient>
<linearGradient id="paint57_linear" x1="1737.3" y1="412.767" x2="-164.887" y2="40.7298" gradientUnits="userSpaceOnUse">
<stop stop-color="#AADD80"/>
<stop offset="0.953" stop-color="#AADD80"/>
</linearGradient>
<linearGradient id="paint58_linear" x1="1736.11" y1="418.866" x2="-166.081" y2="46.8286" gradientUnits="userSpaceOnUse">
<stop stop-color="#AADD80"/>
<stop offset="0.953" stop-color="#AADD80"/>
</linearGradient>
<linearGradient id="paint59_linear" x1="1734.92" y1="424.965" x2="-167.274" y2="52.9274" gradientUnits="userSpaceOnUse">
<stop stop-color="#AADD80"/>
<stop offset="0.953" stop-color="#AADD80"/>
</linearGradient>
<linearGradient id="paint60_linear" x1="1733.72" y1="431.063" x2="-168.466" y2="59.0261" gradientUnits="userSpaceOnUse">
<stop stop-color="#AADD80"/>
<stop offset="0.953" stop-color="#AADD80"/>
</linearGradient>
<linearGradient id="paint61_linear" x1="1732.53" y1="437.162" x2="-169.659" y2="65.1249" gradientUnits="userSpaceOnUse">
<stop stop-color="#AADD80"/>
<stop offset="0.953" stop-color="#AADD80"/>
</linearGradient>
<linearGradient id="paint62_linear" x1="1731.34" y1="443.261" x2="-170.852" y2="71.2237" gradientUnits="userSpaceOnUse">
<stop stop-color="#AADD80"/>
<stop offset="0.953" stop-color="#AADD80"/>
</linearGradient>
<linearGradient id="paint63_linear" x1="1730.14" y1="449.36" x2="-172.046" y2="77.3224" gradientUnits="userSpaceOnUse">
<stop stop-color="#AADD80"/>
<stop offset="0.953" stop-color="#AADD80"/>
</linearGradient>
<linearGradient id="paint64_linear" x1="1728.95" y1="455.458" x2="-173.237" y2="83.4212" gradientUnits="userSpaceOnUse">
<stop stop-color="#AADD80"/>
<stop offset="0.953" stop-color="#AADD80"/>
</linearGradient>
<linearGradient id="paint65_linear" x1="1727.76" y1="461.557" x2="-174.431" y2="89.5199" gradientUnits="userSpaceOnUse">
<stop stop-color="#AADD80"/>
<stop offset="0.953" stop-color="#AADD80"/>
</linearGradient>
<linearGradient id="paint66_linear" x1="1726.57" y1="467.656" x2="-175.624" y2="95.6185" gradientUnits="userSpaceOnUse">
<stop stop-color="#AADD80"/>
<stop offset="0.953" stop-color="#AADD80"/>
</linearGradient>
<linearGradient id="paint67_linear" x1="1725.37" y1="473.755" x2="-176.816" y2="101.717" gradientUnits="userSpaceOnUse">
<stop stop-color="#AADD80"/>
<stop offset="0.953" stop-color="#AADD80"/>
</linearGradient>
<linearGradient id="paint68_linear" x1="1724.18" y1="479.853" x2="-178.009" y2="107.816" gradientUnits="userSpaceOnUse">
<stop stop-color="#AADD80"/>
<stop offset="0.953" stop-color="#AADD80"/>
</linearGradient>
<linearGradient id="paint69_linear" x1="1722.99" y1="485.952" x2="-179.202" y2="113.915" gradientUnits="userSpaceOnUse">
<stop stop-color="#AADD80"/>
<stop offset="0.953" stop-color="#AADD80"/>
</linearGradient>
<linearGradient id="paint70_linear" x1="1721.8" y1="492.051" x2="-180.394" y2="120.014" gradientUnits="userSpaceOnUse">
<stop stop-color="#AADD80"/>
<stop offset="0.953" stop-color="#AADD80"/>
</linearGradient>
<linearGradient id="paint71_linear" x1="1720.6" y1="498.149" x2="-181.587" y2="126.112" gradientUnits="userSpaceOnUse">
<stop stop-color="#AADD80"/>
<stop offset="0.953" stop-color="#AADD80"/>
</linearGradient>
<linearGradient id="paint72_linear" x1="1719.41" y1="504.248" x2="-182.781" y2="132.211" gradientUnits="userSpaceOnUse">
<stop stop-color="#AADD80"/>
<stop offset="0.953" stop-color="#AADD80"/>
</linearGradient>
<linearGradient id="paint73_linear" x1="1718.22" y1="510.347" x2="-183.972" y2="138.31" gradientUnits="userSpaceOnUse">
<stop stop-color="#AADD80"/>
<stop offset="0.953" stop-color="#AADD80"/>
</linearGradient>
<linearGradient id="paint74_linear" x1="1717.02" y1="516.446" x2="-185.165" y2="144.409" gradientUnits="userSpaceOnUse">
<stop stop-color="#AADD80"/>
<stop offset="0.953" stop-color="#AADD80"/>
</linearGradient>
<linearGradient id="paint75_linear" x1="1715.83" y1="522.544" x2="-186.359" y2="150.507" gradientUnits="userSpaceOnUse">
<stop stop-color="#AADD80"/>
<stop offset="0.953" stop-color="#AADD80"/>
</linearGradient>
<linearGradient id="paint76_linear" x1="1714.64" y1="528.643" x2="-187.552" y2="156.606" gradientUnits="userSpaceOnUse">
<stop stop-color="#AADD80"/>
<stop offset="0.953" stop-color="#AADD80"/>
</linearGradient>
<linearGradient id="paint77_linear" x1="1713.5" y1="534.49" x2="-188.695" y2="162.453" gradientUnits="userSpaceOnUse">
<stop stop-color="#AADD80"/>
<stop offset="0.953" stop-color="#AADD80"/>
</linearGradient>
<linearGradient id="paint78_linear" x1="1718.92" y1="506.743" x2="-183.268" y2="134.706" gradientUnits="userSpaceOnUse">
<stop stop-color="#AADD80"/>
<stop offset="0.953" stop-color="#AADD80"/>
</linearGradient>
<linearGradient id="paint79_linear" x1="1724.35" y1="478.997" x2="-177.841" y2="106.96" gradientUnits="userSpaceOnUse">
<stop stop-color="#AADD80"/>
<stop offset="0.953" stop-color="#AADD80"/>
</linearGradient>
<linearGradient id="paint80_linear" x1="1729.78" y1="451.25" x2="-172.414" y2="79.2129" gradientUnits="userSpaceOnUse">
<stop stop-color="#AADD80"/>
<stop offset="0.953" stop-color="#AADD80"/>
</linearGradient>
<linearGradient id="paint81_linear" x1="1735.2" y1="423.504" x2="-166.988" y2="51.4666" gradientUnits="userSpaceOnUse">
<stop stop-color="#AADD80"/>
<stop offset="0.953" stop-color="#AADD80"/>
</linearGradient>
<linearGradient id="paint82_linear" x1="1740.63" y1="395.757" x2="-161.561" y2="23.7199" gradientUnits="userSpaceOnUse">
<stop stop-color="#AADD80"/>
<stop offset="0.953" stop-color="#AADD80"/>
</linearGradient>
<linearGradient id="paint83_linear" x1="1746.06" y1="368.011" x2="-156.134" y2="-4.02661" gradientUnits="userSpaceOnUse">
<stop stop-color="#AADD80"/>
<stop offset="0.953" stop-color="#AADD80"/>
</linearGradient>
<clipPath id="clip0">
<rect width="1931.5" height="623.5" fill="white" transform="translate(0 0.916626)"/>
</clipPath>
</defs>
</svg>
