<svg version="1.1" id="Layer_1" xmlns="http://www.w3.org/2000/svg" xmlns:xlink="http://www.w3.org/1999/xlink" x="0px" y="0px" width="471.923px" height="174.318px" viewBox="0 0 471.923 174.318" enable-background="new 0 0 471.923 174.318" xml:space="preserve">
<polyline points="43.474,121.938 39.477,128.938 35.479,121.938 "></polyline>
<polygon points="39.436,0 35.473,6.022 43.469,6.022 39.506,0 "></polygon>
<rect x="38.471" y="4.589" width="2" height="118.413"></rect>
<polyline points="68.449,153.956 61.453,149.956 68.449,145.956 "></polyline>
<polyline points="369.002,153.956 376,149.956 369.002,145.956 "></polyline>
<rect x="68.45" y="148.959" width="302.188" height="2"></rect>
<text transform="matrix(1 0 0 1 207.4004 170.8181)" font-family="'Circe-Light'" font-size="14" class="dimension2">218</text>
<text transform="matrix(1 0 0 1 0 68.9998)" font-family="'Circe-Light'" font-size="14" class="dimension1">90</text>
<text transform="matrix(1 0 0 1 438.6392 114.9958)" font-family="'Circe-Light'" font-size="14" class="dimension3">95</text>
<polyline points="408.406,127.589 400.468,128.997 403.287,121.444 "></polyline>
<polygon points="463.988,70.883 469.103,77.026 471.923,69.475 "></polygon>
<rect x="396.536" y="97.824" transform="matrix(0.7684 -0.64 0.64 0.7684 37.8936 302.3543)" width="80.277" height="1.999"></rect>
<g>
	<polyline fill="none" stroke="#000000" stroke-width="2" points="89.477,106 88.477,128 82.477,128 81.477,106 	"></polyline>
	<path fill="none" stroke="#000000" stroke-width="2" d="M79.477,106c0,2.209-1.791,4-4,4h-10c-2.209,0-4-1.791-4-4V48
		c0-2.209,1.791-4,4-4h10c2.209,0,4,1.791,4,4V106z"></path>
	<polyline fill="none" stroke="#000000" stroke-width="2" points="351.477,106 352.477,128 358.477,128 359.477,106 	"></polyline>
	<path fill="none" stroke="#000000" stroke-width="2" d="M361.477,106c0,2.209,1.791,4,4,4h10c2.209,0,4-1.791,4-4V48
		c0-2.209-1.791-4-4-4h-10c-2.209,0-4,1.791-4,4V106z"></path>
	<rect x="79.477" y="82" fill="none" stroke="#000000" stroke-width="2" width="282" height="24"></rect>
	<path fill="none" stroke="#000000" stroke-width="2" d="M220.477,78c0,2.209-1.791,4-4,4h-133c-2.209,0-4-1.791-4-4V64
		c0-2.209,1.791-4,4-4h133c2.209,0,4,1.791,4,4V78z"></path>
	<path fill="none" stroke="#000000" stroke-width="2" d="M361.477,78c0,2.209-1.791,4-4,4h-133c-2.209,0-4-1.791-4-4V64
		c0-2.209,1.791-4,4-4h133c2.209,0,4,1.791,4,4V78z"></path>
	<path fill="none" stroke="#000000" stroke-width="2" d="M79.477,48V10c0-4.418,3.582-8,8-8h125c4.418,0,8,3.582,8,8v50"></path>
	<circle fill="none" stroke="#000000" stroke-width="2" cx="90.477" cy="49" r="11"></circle>
	<circle fill="none" stroke="#000000" stroke-width="2" cx="350.477" cy="49" r="11"></circle>
	
		<circle fill="none" stroke="#000000" stroke-width="2" stroke-linecap="round" stroke-linejoin="round" cx="125.477" cy="31" r="2.5"></circle>
	
		<circle fill="none" stroke="#000000" stroke-width="2" stroke-linecap="round" stroke-linejoin="round" cx="174.477" cy="31" r="2.5"></circle>
	<path fill="none" stroke="#000000" stroke-width="2" d="M361.477,48V10c0-4.418-3.582-8-8-8h-125c-4.418,0-8,3.582-8,8v50"></path>
	
		<circle fill="none" stroke="#000000" stroke-width="2" stroke-linecap="round" stroke-linejoin="round" cx="315.477" cy="31" r="2.5"></circle>
	
		<circle fill="none" stroke="#000000" stroke-width="2" stroke-linecap="round" stroke-linejoin="round" cx="266.477" cy="31" r="2.5"></circle>
	<line fill="none" stroke="#000000" stroke-width="2" x1="315.477" y1="28.5" x2="315.477" y2="16"></line>
	<line fill="none" stroke="#000000" stroke-width="2" x1="266.477" y1="28.5" x2="266.477" y2="16"></line>
	<line fill="none" stroke="#000000" stroke-width="2" x1="174.477" y1="28.5" x2="174.477" y2="16"></line>
	<line fill="none" stroke="#000000" stroke-width="2" x1="125.477" y1="28.5" x2="125.477" y2="16"></line>
	<line fill="none" stroke="#000000" stroke-width="2" x1="315.477" y1="46.5" x2="315.477" y2="34"></line>
	<line fill="none" stroke="#000000" stroke-width="2" x1="266.477" y1="46.5" x2="266.477" y2="34"></line>
	<line fill="none" stroke="#000000" stroke-width="2" x1="174.477" y1="46.5" x2="174.477" y2="34"></line>
	<line fill="none" stroke="#000000" stroke-width="2" x1="125.477" y1="46.5" x2="125.477" y2="34"></line>
	<line fill="none" stroke="#000000" stroke-width="2" x1="122.977" y1="31" x2="107.477" y2="31"></line>
	<line fill="none" stroke="#000000" stroke-width="2" x1="143.977" y1="31" x2="128.477" y2="31"></line>
	<line fill="none" stroke="#000000" stroke-width="2" x1="170.977" y1="31" x2="155.477" y2="31"></line>
	<line fill="none" stroke="#000000" stroke-width="2" x1="191.977" y1="31" x2="176.477" y2="31"></line>
	<line fill="none" stroke="#000000" stroke-width="2" x1="263.977" y1="31" x2="248.477" y2="31"></line>
	<line fill="none" stroke="#000000" stroke-width="2" x1="284.977" y1="31" x2="269.477" y2="31"></line>
	<line fill="none" stroke="#000000" stroke-width="2" x1="311.977" y1="31" x2="296.477" y2="31"></line>
	<line fill="none" stroke="#000000" stroke-width="2" x1="332.977" y1="31" x2="317.477" y2="31"></line>
</g>
</svg>