<svg width="23" height="21" viewBox="0 0 23 21" fill="none" xmlns="http://www.w3.org/2000/svg">
<g clip-path="url(#clip0)">
<path d="M4.9998 11.4H6.3998C6.7998 11.4 7.0998 11.1 7.0998 10.7C7.0998 10.3 6.7998 10 6.3998 10H4.9998C4.5998 10 4.2998 10.3 4.2998 10.7C4.2998 11.1 4.6998 11.4 4.9998 11.4Z" fill="black"/>
<path d="M4.9998 14.2999H6.3998C6.7998 14.2999 7.0998 13.9999 7.0998 13.5999C7.0998 13.1999 6.7998 12.8999 6.3998 12.8999H4.9998C4.5998 12.8999 4.2998 13.1999 4.2998 13.5999C4.2998 13.9999 4.6998 14.2999 4.9998 14.2999Z" fill="black"/>
<path d="M4.9998 17.2H6.3998C6.7998 17.2 7.0998 16.9 7.0998 16.5C7.0998 16.1 6.7998 15.8 6.3998 15.8H4.9998C4.5998 15.8 4.2998 16.1 4.2998 16.5C4.2998 16.9 4.6998 17.2 4.9998 17.2Z" fill="black"/>
<path d="M10.8001 11.4H12.2001C12.6001 11.4 12.9001 11.1 12.9001 10.7C12.9001 10.3 12.6001 10 12.2001 10H10.8001C10.4001 10 10.1001 10.3 10.1001 10.7C10.1001 11.1 10.4001 11.4 10.8001 11.4Z" fill="black"/>
<path d="M10.8001 14.2999H12.2001C12.6001 14.2999 12.9001 13.9999 12.9001 13.5999C12.9001 13.1999 12.6001 12.8999 12.2001 12.8999H10.8001C10.4001 12.8999 10.1001 13.1999 10.1001 13.5999C10.1001 13.9999 10.4001 14.2999 10.8001 14.2999Z" fill="black"/>
<path d="M10.8001 17.2H12.2001C12.6001 17.2 12.9001 16.9 12.9001 16.5C12.9001 16.1 12.6001 15.8 12.2001 15.8H10.8001C10.4001 15.8 10.1001 16.1 10.1001 16.5C10.1001 16.9 10.4001 17.2 10.8001 17.2Z" fill="black"/>
<path d="M16.4999 11.4H17.9999C18.3999 11.4 18.6999 11.1 18.6999 10.7C18.6999 10.3 18.3999 10 17.9999 10H16.5999C16.1999 10 15.8999 10.3 15.8999 10.7C15.8999 11.1 16.1999 11.4 16.4999 11.4Z" fill="black"/>
<path d="M16.4999 14.2999H17.9999C18.3999 14.2999 18.6999 13.9999 18.6999 13.5999C18.6999 13.1999 18.3999 12.8999 17.9999 12.8999H16.5999C16.1999 12.8999 15.8999 13.1999 15.8999 13.5999C15.8999 13.9999 16.1999 14.2999 16.4999 14.2999Z" fill="black"/>
<path d="M16.4999 17.2H17.9999C18.3999 17.2 18.6999 16.9 18.6999 16.5C18.6999 16.1 18.3999 15.8 17.9999 15.8H16.5999C16.1999 15.8 15.8999 16.1 15.8999 16.5C15.8999 16.9 16.1999 17.2 16.4999 17.2Z" fill="black"/>
<path d="M22.9 3.1C22.6 2.3 21.9 1.8 21 1.8H19.4V0.7C19.4 0.3 19.1 0 18.7 0C18.3 0 18 0.3 18 0.7V1.8H12.2H10.9H5V0.7C5 0.3 4.7 0 4.3 0C3.9 0 3.6 0.3 3.6 0.7V1.8H2C1.1 1.8 0.4 2.4 0.1 3.1C0 3.4 0 3.6 0 3.8V18.7C0 19.8 0.9 20.7 2 20.7H21C22.1 20.7 23 19.8 23 18.7C23 18.3 23 4.2 23 3.8C23 3.6 23 3.4 22.9 3.1ZM21.7 18.7C21.7 19.1 21.4 19.4 21 19.4H2C1.6 19.4 1.3 19.1 1.3 18.7V7.8H21.6V18.7H21.7ZM21.7 6.5H1.3V3.8C1.3 3.4 1.6 3.1 2 3.1H3.6V4.2C3.6 4.6 3.9 4.9 4.3 4.9C4.7 4.9 5 4.6 5 4.3V3.1H10.8H12.1H18V4.2C18 4.6 18.3 4.9 18.7 4.9C19.1 4.9 19.4 4.6 19.4 4.2V3.1H21C21.4 3.1 21.7 3.4 21.7 3.8V6.5Z" fill="black"/>
</g>
<defs>
<clipPath id="clip0">
<rect width="23" height="20.8" fill="white"/>
</clipPath>
</defs>
</svg>
