<svg width="18" height="24" viewBox="0 0 18 24" fill="none" xmlns="http://www.w3.org/2000/svg">
<g clip-path="url(#clip0)">
<path d="M17.6001 21.3L16.1001 7.7C16.0001 6.6 15.0001 5.8 13.9001 5.8H13.0001V4.3C13.0001 1.9 11.1001 0 8.7001 0C6.3001 0 4.4001 1.9 4.4001 4.3V5.7H3.5001C2.4001 5.7 1.4001 6.6 1.3001 7.7L9.76548e-05 21.2C-0.0999023 21.8 0.100098 22.4 0.600098 22.9C1.0001 23.4 1.6001 23.6 2.2001 23.6L15.4001 23.7C16.0001 23.7 16.6001 23.4 17.0001 23C17.5001 22.5 17.7001 21.9 17.6001 21.3ZM5.8001 4.3C5.8001 2.7 7.1001 1.4 8.7001 1.4C10.3001 1.4 11.6001 2.7 11.6001 4.3V5.7H5.8001V4.3ZM16.0001 22C15.8001 22.2 15.6001 22.3 15.4001 22.3L2.2001 22.2C2.0001 22.2 1.8001 22.1 1.6001 21.9C1.5001 21.7 1.4001 21.5 1.4001 21.3L2.7001 7.9C2.7001 7.5 3.1001 7.2 3.5001 7.2H4.4001V9C4.4001 9.4 4.7001 9.7 5.1001 9.7C5.5001 9.7 5.8001 9.4 5.8001 9V7.1H11.6001V9C11.6001 9.4 11.9001 9.7 12.3001 9.7C12.7001 9.7 13.0001 9.4 13.0001 9V7.1H13.9001C14.3001 7.1 14.6001 7.4 14.7001 7.8L16.2001 21.4C16.2001 21.7 16.1001 21.9 16.0001 22Z" fill="black"/>
</g>
<defs>
<clipPath id="clip0">
<rect width="17.6" height="23.7" fill="white"/>
</clipPath>
</defs>
</svg>
