<svg width="22" height="22" viewBox="0 0 22 22" fill="none" xmlns="http://www.w3.org/2000/svg">
<g clip-path="url(#clip0)">
<path d="M10.5 21.1C4.7 21.1 0 16.4 0 10.5C0 4.6 4.7 0 10.5 0C16.3 0 21 4.7 21 10.5C21 16.3 16.4 21.1 10.5 21.1ZM10.5 1.4C5.5 1.4 1.4 5.5 1.4 10.5C1.4 15.5 5.5 19.6 10.5 19.6C15.5 19.6 19.6 15.5 19.6 10.5C19.6 5.5 15.6 1.4 10.5 1.4Z" fill="black"/>
<path d="M8.2999 15C8.0999 15 7.8999 14.9 7.7999 14.8L4.4999 11.5C4.1999 11.2 4.1999 10.8 4.4999 10.5C4.7999 10.2 5.1999 10.2 5.4999 10.5L8.2999 13.3L15.4999 6.1C15.7999 5.8 16.1999 5.8 16.4999 6.1C16.7999 6.4 16.7999 6.8 16.4999 7.1L8.8999 14.8C8.6999 15 8.4999 15 8.2999 15Z" fill="black"/>
</g>
<defs>
<clipPath id="clip0">
<rect width="21.1" height="21.1" fill="white"/>
</clipPath>
</defs>
</svg>
