<svg width="25" height="23" viewBox="0 0 25 23" fill="none" xmlns="http://www.w3.org/2000/svg">
<g clip-path="url(#clip0)">
<path d="M24.3001 11.7L21.0001 3.3H22.2001C22.6001 3.3 22.9001 3 22.9001 2.6C22.9001 2.2 22.6001 1.9 22.2001 1.9H13.0001V0.7C13.0001 0.3 12.7001 0 12.3001 0C11.9001 0 11.6001 0.3 11.6001 0.7V2H2.2001C1.8001 2 1.5001 2.3 1.5001 2.7C1.5001 3.1 1.8001 3.4 2.2001 3.4H3.4001L0.100098 11.8C0.100098 11.9 0.100098 12 0.100098 12C0.100098 14.4 2.1001 16.4 4.5001 16.4C6.9001 16.4 8.9001 14.4 8.9001 12C8.9001 11.9 8.9001 11.8 8.9001 11.8L5.4001 3.3H11.5001V18.9C9.1001 19.1 7.2001 20.5 7.2001 22.3C7.3001 22.7 7.6001 23 8.0001 23H16.4001C16.8001 23 17.1001 22.7 17.1001 22.3C17.1001 20.5 15.3001 19.1 12.9001 18.9V3.3H18.9001L15.6001 11.7C15.6001 11.8 15.6001 11.9 15.6001 11.9C15.6001 14.3 17.6001 16.3 20.0001 16.3C22.4001 16.3 24.4001 14.3 24.4001 11.9C24.3001 11.9 24.3001 11.8 24.3001 11.7ZM4.4001 4.4L7.1001 11.2H1.7001L4.4001 4.4ZM4.4001 15C3.0001 15 1.8001 14 1.4001 12.6H7.3001C7.0001 14 5.8001 15 4.4001 15ZM15.5001 21.6H8.8001C9.3001 20.8 10.6001 20.2 12.1001 20.2C13.6001 20.2 15.0001 20.8 15.5001 21.6ZM22.6001 11.3H17.2001L19.9001 4.5L22.6001 11.3ZM19.9001 15C18.5001 15 17.3001 14 16.9001 12.6H22.8001C22.6001 14 21.4001 15 19.9001 15Z" fill="black"/>
</g>
<defs>
<clipPath id="clip0">
<rect width="24.3" height="23" fill="white"/>
</clipPath>
</defs>
</svg>
