<svg width="23" height="21" viewBox="0 0 23 21" fill="none" xmlns="http://www.w3.org/2000/svg">
<g clip-path="url(#clip0)">
<path d="M11.5 20.5C11.2 20.5 10.9 20.4 10.6 20.2C9.7 19.4 8.8 18.6 8 18C5.7 16 3.7 14.3 2.3 12.6C0.7 10.6 0 8.9 0 6.9C0 5 0.6 3.3 1.8 2C3 0.7 4.6 0 6.4 0C7.8 0 9 0.4 10 1.2C10.5 1.6 11 2.1 11.5 2.7C11.9 2.1 12.4 1.6 13 1.2C14 0.4 15.2 0 16.6 0C18.4 0 20 0.7 21.2 2C22.4 3.3 23 5 23 6.9C23 8.8 22.3 10.6 20.7 12.5C19.3 14.2 17.3 15.9 15 17.9C14.2 18.6 13.3 19.3 12.4 20.2C12.1 20.3 11.8 20.5 11.5 20.5ZM6.4 1.3C5 1.3 3.7 1.9 2.8 2.9C1.9 3.9 1.3 5.3 1.3 6.9C1.3 8.5 1.9 10 3.3 11.6C4.6 13.2 6.6 14.9 8.8 16.8C9.6 17.5 10.5 18.2 11.4 19.1C12.3 18.3 13.2 17.5 14 16.8C16.3 14.9 18.2 13.2 19.5 11.6C20.9 10 21.5 8.5 21.5 6.9C21.5 5.3 21 3.9 20 2.9C19.1 1.9 17.8 1.3 16.4 1.3C15.4 1.3 14.4 1.6 13.6 2.3C12.9 2.9 12.3 3.6 12 4.1C11.8 4.4 11.6 4.5 11.3 4.5C11 4.5 10.7 4.3 10.6 4.1C10.5 3.6 10 2.9 9.2 2.3C8.4 1.7 7.4 1.3 6.4 1.3Z" fill="black"/>
</g>
<defs>
<clipPath id="clip0">
<rect width="23" height="20.5" fill="white"/>
</clipPath>
</defs>
</svg>
