<svg width="17" height="25" viewBox="0 0 17 25" fill="none" xmlns="http://www.w3.org/2000/svg">
<g clip-path="url(#clip0)">
<path d="M8.40006 24.8L7.80006 24C-0.0999389 12.4 6.09661e-05 8.5 6.09661e-05 8.1C6.09661e-05 3.7 3.70006 0 8.30006 0H8.40006C13.0001 0 16.7001 3.7 16.7001 8.2C16.8001 8.5 17.0001 12.4 9.00006 24L8.40006 24.8ZM8.40006 1.4C4.60006 1.4 1.40006 4.5 1.40006 8.2C1.40006 8.3 1.30006 11.8 8.40006 22.4C15.5001 11.9 15.3001 8.3 15.3001 8.3C15.3001 4.5 12.2001 1.4 8.40006 1.4Z" fill="black"/>
<path d="M8.3002 13.3001C5.5002 13.3001 3.2002 11.0001 3.2002 8.2001C3.2002 5.4001 5.5002 3.1001 8.3002 3.1001C11.1002 3.1001 13.4002 5.4001 13.4002 8.2001C13.4002 11.0001 11.1002 13.3001 8.3002 13.3001ZM8.3002 4.6001C6.3002 4.6001 4.6002 6.2001 4.6002 8.3001C4.6002 10.4001 6.2002 12.0001 8.3002 12.0001C10.4002 12.0001 12.0002 10.3001 12.0002 8.3001C12.0002 6.3001 10.4002 4.6001 8.3002 4.6001Z" fill="black"/>
</g>
<defs>
<clipPath id="clip0">
<rect width="16.7" height="24.8" fill="white"/>
</clipPath>
</defs>
</svg>
