<svg width="25" height="17" viewBox="0 0 25 17" fill="none" xmlns="http://www.w3.org/2000/svg">
<g clip-path="url(#clip0)">
<path d="M22.3 0H2.5C1.1 0 0 1.1 0 2.5V14.3C0 15.7 1.1 16.8 2.5 16.8H22.3C23.7 16.8 24.8 15.7 24.8 14.3V2.5C24.8 1.1 23.7 0 22.3 0ZM15.9 7.9L23.4 2.2C23.4 2.3 23.5 2.4 23.5 2.5V14.3C23.5 14.4 23.5 14.4 23.5 14.5L15.9 7.9ZM1.4 14.4C1.4 14.4 1.4 14.3 1.4 14.4V2.6C1.4 2.5 1.4 2.4 1.5 2.3L9 7.9L1.4 14.4ZM2.7 1.4H22.1L13 8.4C12.7 8.6 12.2 8.6 11.9 8.4L2.7 1.4ZM2.5 15.4C2.4 15.4 2.4 15.4 2.3 15.4L10 8.8L11 9.5C11.4 9.8 11.9 10 12.4 10C12.9 10 13.4 9.8 13.8 9.5L14.7 8.8L22.3 15.4C22.3 15.4 22.3 15.4 22.2 15.4H2.5Z" fill="black"/>
</g>
<defs>
<clipPath id="clip0">
<rect width="24.8" height="16.8" fill="white"/>
</clipPath>
</defs>
</svg>
