<svg width="25" height="17" viewBox="0 0 25 17" fill="none" xmlns="http://www.w3.org/2000/svg">
<g clip-path="url(#clip0)">
<path d="M13.0998 8.2L23.4998 0C23.3998 0 23.2998 0 23.1998 0H1.7998C1.6998 0 1.4998 0 1.2998 0.1L11.9998 8.2C12.2998 8.5 12.6998 8.5 13.0998 8.2Z" fill="black"/>
<path d="M13.9002 9.3C13.5002 9.6 13.0002 9.8 12.5002 9.8C12.0002 9.8 11.5002 9.6 11.1002 9.3L10.2002 8.6L1.2002 16.3C1.4002 16.4 1.7002 16.4 1.9002 16.4H23.2002C23.4002 16.4 23.6002 16.4 23.8002 16.3L14.9002 8.5L13.9002 9.3Z" fill="black"/>
<path d="M0.2 1C0.1 1.2 0 1.5 0 1.8V14.6C0 14.9 0.1 15.1 0.1 15.3L9 7.7L0.2 1Z" fill="black"/>
<path d="M24.8 15.5C24.9 15.3 25 15 25 14.7V1.80005C25 1.40005 24.9 1.10005 24.7 0.800049L16 7.70005L24.8 15.5Z" fill="black"/>
</g>
<defs>
<clipPath id="clip0">
<rect width="25" height="16.5" fill="white"/>
</clipPath>
</defs>
</svg>
