<svg width="24" height="24" viewBox="0 0 24 24" fill="none" xmlns="http://www.w3.org/2000/svg">
<g clip-path="url(#clip0)">
<path d="M1.49989 2.1001L3.09989 0.500098C3.79989 -0.199902 4.89989 -0.199902 5.49989 0.500098L8.89989 3.9001C9.59989 4.6001 9.59989 5.7001 8.89989 6.3001L7.29989 7.8001C6.89989 8.2001 6.79989 8.8001 7.09989 9.3001C7.99989 10.8001 10.1999 14.1001 13.8999 16.1001C14.2999 16.3001 14.8999 16.3001 15.2999 15.9001L16.6999 14.7001C17.5999 13.9001 18.9999 13.9001 19.8999 14.8001L22.3999 17.2001C23.3999 18.1001 23.3999 19.7001 22.4999 20.6001L21.3999 21.7001C19.7999 23.3001 17.2999 23.8001 15.2999 22.9001C9.99989 20.4001 4.89989 16.8001 1.89989 11.6001C1.09989 10.2001 0.59989 8.7001 0.19989 7.2001C-0.30011 5.3001 0.0998905 3.5001 1.49989 2.1001Z" fill="black"/>
</g>
<defs>
<clipPath id="clip0">
<rect width="23.2" height="23.4" fill="white"/>
</clipPath>
</defs>
</svg>
