<svg width="25" height="25" viewBox="0 0 25 25" fill="none" xmlns="http://www.w3.org/2000/svg">
<g clip-path="url(#clip0)">
<path d="M18.3002 24.8C17.4002 24.8 16.6002 24.6 15.8002 24.2C9.4002 21.3 4.7002 17.3 2.0002 12.6C1.2002 11.4 0.700195 9.9 0.200195 8C-0.299805 5.8 0.200195 3.8 1.7002 2.3L3.3002 0.7C3.8002 0.2 4.4002 0 5.0002 0C5.6002 0 6.2002 0.3 6.7002 0.7L10.1002 4.1C10.6002 4.6 10.8002 5.2 10.8002 5.8C10.8002 6.5 10.5002 7.1 10.0002 7.5L8.5002 9C8.3002 9.2 8.30019 9.4 8.4002 9.6C9.4002 11.2 11.5002 14.2 14.9002 16.1C15.1002 16.2 15.3002 16.2 15.5002 16L16.9002 14.8C18.1002 13.8 19.9002 13.8 21.1002 14.9L23.6002 17.3C24.2002 17.9 24.5002 18.7 24.6002 19.5C24.7002 20.3 24.3002 21.1 23.7002 21.7L22.6002 22.8C21.5002 24.2 19.9002 24.8 18.3002 24.8ZM2.7002 3.3C1.2002 4.8 1.3002 6.5 1.6002 7.7C2.0002 9.5 2.5002 10.8 3.2002 11.9C5.8002 16.3 10.3002 20.2 16.3002 22.9C18.1002 23.7 20.2002 23.3 21.6002 21.9L22.7002 20.8C23.0002 20.5 23.2002 20 23.2002 19.6C23.2002 19.1 23.0002 18.7 22.7002 18.4L20.1002 16C19.5002 15.4 18.5002 15.4 17.8002 15.9L16.4002 17.1C15.8002 17.6 14.9002 17.7 14.2002 17.3C10.5002 15.2 8.2002 12 7.2002 10.3C6.7002 9.6 6.9002 8.6 7.5002 8L9.0002 6.5C9.2002 6.3 9.3002 6.1 9.3002 5.8C9.3002 5.5 9.2002 5.3 9.0002 5.1L5.7002 1.7C5.5002 1.5 5.3002 1.4 5.0002 1.4C4.7002 1.4 4.5002 1.5 4.3002 1.7L2.7002 3.3Z" fill="black"/>
</g>
<defs>
<clipPath id="clip0">
<rect width="24.6" height="24.8" fill="white"/>
</clipPath>
</defs>
</svg>
