<svg width="21" height="21" viewBox="0 0 21 21" fill="none" xmlns="http://www.w3.org/2000/svg">
<path d="M10.4 20.8C4.7 20.8 0 16.1 0 10.4C0 4.7 4.7 0 10.4 0C16.1 0 20.8 4.7 20.8 10.4C20.8 16.1 16.1 20.8 10.4 20.8ZM10.4 1.4C5.4 1.4 1.4 5.4 1.4 10.4C1.4 15.4 5.4 19.4 10.4 19.4C15.4 19.4 19.4 15.4 19.4 10.4C19.4 5.4 15.4 1.4 10.4 1.4Z" fill="black"/>
<path d="M10.4001 15.2001C13.0511 15.2001 15.2001 13.0511 15.2001 10.4001C15.2001 7.74913 13.0511 5.6001 10.4001 5.6001C7.74913 5.6001 5.6001 7.74913 5.6001 10.4001C5.6001 13.0511 7.74913 15.2001 10.4001 15.2001Z" fill="black"/>
</svg>
