<svg width="23" height="23" viewBox="0 0 23 23" fill="none" xmlns="http://www.w3.org/2000/svg">
<path d="M20.7998 0H4.9998C4.5998 0 4.2998 0.3 4.2998 0.7V2.1C4.2998 2.5 4.5998 2.8 4.9998 2.8C5.3998 2.8 5.6998 2.5 5.6998 2.1V1.4H20.0998V21.5H5.7998V20.8C5.7998 20.4 5.4998 20.1 5.0998 20.1C4.6998 20.1 4.3998 20.4 4.3998 20.8V22.2C4.2998 22.7 4.5998 23 4.9998 23H20.7998C21.1998 23 21.4998 22.7 21.4998 22.3V0.7C21.5998 0.3 21.1998 0 20.7998 0Z" fill="black"/>
<path d="M9 15.8001C9.3 16.1001 9.7 16.1001 10 15.8001L14.3 11.5001L10 7.2001C9.7 6.9001 9.3 6.9001 9 7.2001C8.7 7.5001 8.7 7.9001 9 8.2001L11.6 10.8001H2.2C1.8 10.8001 1.5 11.1001 1.5 11.5001C1.5 11.9001 1.8 12.2001 2.2 12.2001H11.7L9 14.8001C8.8 15.1001 8.8 15.5001 9 15.8001Z" fill="black"/>
</svg>
