<svg width="25" height="15" viewBox="0 0 25 15" fill="none" xmlns="http://www.w3.org/2000/svg">
<g clip-path="url(#clip0)">
<path d="M12 14.5C4.7 14.5 0.3 7.9 0.1 7.6L0 7.5V7.3C0 6.7 4.8 0 12 0C19.3 0 23.9 6.6 24.1 6.9L24.4 7.3L24.1 7.7C23.9 7.9 19.4 14.5 12 14.5ZM1.6 7.3C2.6 8.7 6.5 13.2 12.1 13.2C17.7 13.2 21.6 8.7 22.7 7.3C21.6 5.9 17.7 1.4 12.1 1.4C6.5 1.4 2.6 5.9 1.6 7.3Z" fill="black"/>
<path d="M11.9998 11.5C9.6998 11.5 7.7998 9.6 7.7998 7.3C7.7998 4.9 9.6998 3 11.9998 3C14.2998 3 16.1998 4.9 16.1998 7.2C16.2998 9.6 14.3998 11.5 11.9998 11.5ZM11.9998 4.4C10.3998 4.4 9.1998 5.7 9.1998 7.2C9.1998 8.8 10.4998 10 11.9998 10C13.5998 10 14.7998 8.7 14.7998 7.2C14.8998 5.7 13.5998 4.4 11.9998 4.4Z" fill="black"/>
</g>
<defs>
<clipPath id="clip0">
<rect width="24.4" height="14.5" fill="white"/>
</clipPath>
</defs>
</svg>
