<svg width="21" height="22" viewBox="0 0 21 22" fill="none" xmlns="http://www.w3.org/2000/svg">
<g clip-path="url(#clip0)">
<path d="M20.6 20.3L14.4 13.8C15.6 12.3 16.3 10.4 16.3 8.4C16.3 3.8 12.6 0 8.2 0C3.8 0 0 3.8 0 8.4C0 13 3.7 16.8 8.1 16.8C10.1 16.8 11.9 16 13.4 14.8L19.6 21.3C19.7 21.4 19.9 21.5 20.1 21.5C20.3 21.5 20.4 21.4 20.6 21.3C20.9 21.1 20.9 20.6 20.6 20.3ZM1.4 8.4C1.4 4.5 4.4 1.4 8.1 1.4C11.8 1.4 14.8 4.6 14.8 8.4C14.8 12.2 11.8 15.4 8.1 15.4C4.4 15.4 1.4 12.3 1.4 8.4Z" fill="black"/>
</g>
<defs>
<clipPath id="clip0">
<rect width="20.8" height="21.5" fill="white"/>
</clipPath>
</defs>
</svg>
