<?xml version="1.0" encoding="utf-8"?>
<!-- Generator: Adobe Illustrator 21.1.0, SVG Export Plug-In . SVG Version: 6.00 Build 0)  -->
<svg version="1.1" id="Layer_1" xmlns="http://www.w3.org/2000/svg" xmlns:xlink="http://www.w3.org/1999/xlink" x="0px" y="0px"
	 viewBox="0 0 32 33" style="enable-background:new 0 0 32 33;" xml:space="preserve">
<g>
	<g>
		<path d="M16,32.5c-8.8,0-16-7.2-16-16c0-8.8,7.2-16,16-16c8.8,0,16,7.2,16,16C32,25.3,24.8,32.5,16,32.5z M16,1.5
			c-8.3,0-15,6.7-15,15c0,8.3,6.7,15,15,15c8.3,0,15-6.7,15-15C31,8.2,24.3,1.5,16,1.5z"/>
		<path d="M13,23.3l-5.7-5.7l0.7-0.7l5,5L23.9,11l0.7,0.7L13,23.3z"/>
	</g>
</g>
</svg>
7"/>
</g>
<defs>
<clipPath id="clip0">
<rect y="0.720581" width="32.0001" height="32" fill="white"/>
</clipPath>
</defs>
</svg>
