<svg width="36" height="25" viewBox="0 0 36 25" fill="none" xmlns="http://www.w3.org/2000/svg">
<g clip-path="url(#clip0)">
<path d="M1.5 21.6001H4.3L3.5 24.6001H1.5V21.6001Z" fill="#30546A"/>
<path d="M33.8 24.6001H31.8L31 21.6001H33.8V24.6001Z" fill="#30546A"/>
<path d="M34.5998 19.2H0.299805V21.4H34.5998V19.2Z" fill="#EDBB57"/>
<path d="M3.7998 12.9H31.4998V3.2C31.4998 1.7 30.0998 0.5 28.4998 0.5H6.7998C5.0998 0.5 3.7998 1.7 3.7998 3.2V12.9Z" fill="#E8A04B"/>
<path d="M3.7001 12.3C2.6001 12.3 1.6001 12.8 1.6001 13.5V18.2C1.6001 18.8 2.5001 19.3 3.5001 19.3H31.6001C32.7001 19.3 33.5001 18.8 33.5001 18.2V13.5C33.5001 12.8 32.6001 12.3 31.4001 12.3C30.4001 12.3 4.8001 12.3 3.7001 12.3Z" fill="#F2D26F"/>
<path d="M8.3002 7.80005H14.4002C15.6002 7.80005 16.5002 8.70005 16.5002 9.90005V12.1H6.2002V9.90005C6.2002 8.70005 7.1002 7.80005 8.3002 7.80005Z" fill="white"/>
<path d="M20.8002 7.80005H26.9002C28.1002 7.80005 29.0002 8.70005 29.0002 9.90005V12.1H18.7002V9.90005C18.7002 8.70005 19.6002 7.80005 20.8002 7.80005Z" fill="white"/>
<path d="M34.4 18.7H34V14C34 12.8 33.1 11.9 31.9 11.9H31.7V2.2C31.7 1 30.7 0 29.5 0H27.3C27 0 26.8 0.2 26.8 0.5C26.8 0.8 27 1 27.3 1H29.5C30.2 1 30.7 1.5 30.7 2.2V11.9H29.3V9.7C29.3 8.4 28.3 7.4 27 7.4H20.5C19.2 7.4 18.2 8.4 18.2 9.7V11.9H16.9V9.7C16.9 8.4 15.9 7.4 14.6 7.4H8.1C6.8 7.4 5.8 8.4 5.8 9.7V11.9H4.5V2.2C4.5 1.6 5.1 1 5.7 1H23.5C23.8 1 24 0.8 24 0.5C24 0.2 23.9 0 23.6 0H5.7C4.5 0 3.5 1 3.5 2.2V11.9H3.3C2.1 11.9 1.2 12.8 1.2 14V18.7H0.8C0.4 18.7 0 19 0 19.5V21.1C0 21.6 0.4 22 0.8 22H1.2V24.4C1.2 24.6 1.3 24.7 1.4 24.9C1.5 24.9 1.7 25 1.9 25H3.3C3.6 25 3.9 24.8 4 24.5L4.5 22H30.9L31.4 24.5C31.5 24.8 31.7 25 32.1 25H33.5C33.7 25 33.8 24.9 34 24.8C34.1 24.7 34.2 24.5 34.2 24.3V22H34.5C35 22 35.3 21.6 35.3 21.2V19.6C35.2 19 34.9 18.7 34.4 18.7ZM19.2 9.7C19.2 9 19.8 8.4 20.5 8.4H27C27.7 8.4 28.3 9 28.3 9.7V11.9H19.2V9.7ZM6.8 9.7C6.8 9 7.4 8.4 8.1 8.4H14.6C15.3 8.4 15.9 9 15.9 9.7V11.9H6.8V9.7ZM3 24H2.2V22H3.4L3 24ZM33.1 24H32.3L31.9 22H33.1V24ZM34.2 21H1V19.7H5C5.3 19.7 5.5 19.5 5.5 19.2C5.5 18.9 5.3 18.7 5 18.7H2.2V14C2.2 13.4 2.7 12.9 3.3 12.9H4H31.2H31.9C32.5 12.9 33 13.4 33 14V18.7H8.3C8 18.7 7.8 18.9 7.8 19.2C7.8 19.5 8 19.7 8.3 19.7H34.2V21Z" fill="black"/>
</g>
<defs>
<clipPath id="clip0">
<rect width="35.2" height="25" fill="white"/>
</clipPath>
</defs>
</svg>
