<svg width="25" height="25" viewBox="0 0 25 25" fill="none" xmlns="http://www.w3.org/2000/svg">
<g clip-path="url(#clip0)">
<path d="M21.3 0H3.4C1.5 0 0 1.5 0 3.4V18.5C0 18.8 0.2 19 0.5 19H1.6L1.8 20.4C1.8 20.7 2 20.8 2.3 20.8C2.3 20.8 2.3 20.8 2.4 20.8C2.7 20.8 2.9 20.5 2.8 20.2L2.6 19H5L4.3 23.7C4.3 23.8 4.2 23.9 4.1 23.9H3.4C3.3 23.9 3.2 23.8 3.2 23.7L3 22.1C3 21.8 2.7 21.6 2.4 21.7C2.1 21.7 1.9 22 2 22.3L2.2 23.9C2.3 24.5 2.8 25 3.4 25H4.1C4.7 25 5.2 24.6 5.3 24L6 19H19L19.6 23.9C19.7 24.5 20.2 25 20.8 25H21.5C22.1 25 22.6 24.6 22.7 24L23.4 19.1H24.1C24.4 19.1 24.6 18.9 24.6 18.6V12C24.6 11.7 24.4 11.5 24.1 11.5C23.8 11.5 23.6 11.7 23.6 12V18H1V6.1H23.7V9C23.7 9.3 23.9 9.5 24.2 9.5C24.5 9.5 24.7 9.3 24.7 9V3.4C24.7 1.5 23.1 0 21.3 0ZM21.8 23.7C21.8 23.8 21.7 23.9 21.6 23.9H20.9C20.8 23.9 20.7 23.8 20.7 23.7L20 19H22.4L21.8 23.7ZM1 5.1V3.4C1 2.1 2.1 1 3.4 1H21.3C22.6 1 23.7 2.1 23.7 3.4V5.1H1Z" fill="black"/>
</g>
<defs>
<clipPath id="clip0">
<rect width="24.7" height="24.9" fill="white"/>
</clipPath>
</defs>
</svg>
