<svg width="37" height="22" viewBox="0 0 37 22" fill="none" xmlns="http://www.w3.org/2000/svg">
<g clip-path="url(#clip0)">
<path d="M3 19.2V20.4C3 21 3.4 21.5 4 21.5H6.9C7.5 21.5 8 21 8 20.4V19.2H13.3C13.5 19.2 13.7 19 13.7 18.8C13.7 18.6 13.5 18.4 13.3 18.4H2.7C1.7 18.4 0.9 17.6 0.9 16.6V7.6C0.9 6.6 1.7 5.8 2.7 5.8C3.7 5.8 4.5 6.6 4.5 7.6V13.3C4.5 13.5 4.7 13.7 4.9 13.7H23.3C23.5 13.7 23.7 13.5 23.7 13.3C23.7 13.1 23.5 12.9 23.3 12.9H5.4V7.6V3.3C5.4 2 6.5 0.9 7.8 0.9H10.3C10.5 0.9 10.7 0.7 10.7 0.5C10.7 0.3 10.6 0 10.3 0H7.8C6 0 4.5 1.5 4.5 3.3V5.7C4.1 5.2 3.4 4.9 2.7 4.9C1.2 4.9 0 6.1 0 7.6V16.5C0 18 1.2 19.2 2.7 19.2H3ZM7.1 20.4C7.1 20.5 7 20.6 6.9 20.6H4C3.9 20.6 3.8 20.5 3.8 20.4V19.2H7.1V20.4Z" fill="black"/>
<path d="M33.1999 20.4V19.2H33.2999C34.7999 19.2 35.9999 18 35.9999 16.5V7.6C35.9999 6.1 34.7999 4.9 33.2999 4.9C32.5999 4.9 31.9999 5.2 31.4999 5.6V3.3C31.4999 1.5 29.9999 0 28.1999 0H12.7999C12.5999 0 12.3999 0.2 12.3999 0.4C12.3999 0.6 12.5999 0.8 12.7999 0.8H28.2999C29.5999 0.8 30.6999 1.9 30.6999 3.2V7.5C30.6999 7.5 30.6999 7.5 30.6999 7.6V12.9L25.6999 13C25.4999 13 25.2999 13.2 25.2999 13.4C25.2999 13.6 25.4999 13.8 25.6999 13.8L31.0999 13.7C31.2999 13.7 31.4999 13.5 31.4999 13.3V7.6V7.5C31.4999 6.5 32.2999 5.7 33.2999 5.7C34.2999 5.7 35.0999 6.5 35.0999 7.5V16.4C35.0999 17.4 34.2999 18.2 33.2999 18.2H15.8999C15.6999 18.2 15.4999 18.4 15.4999 18.6C15.4999 18.8 15.6999 19 15.8999 19H28.1999V20.2C28.1999 20.8 28.6999 21.3 29.2999 21.3H32.1999C32.7999 21.5 33.1999 21 33.1999 20.4ZM29.0999 20.4V19.2H32.3999V20.4C32.3999 20.5 32.2999 20.6 32.1999 20.6H29.2999C29.1999 20.6 29.0999 20.5 29.0999 20.4Z" fill="black"/>
</g>
<defs>
<clipPath id="clip0">
<rect width="36.1" height="21.5" fill="white"/>
</clipPath>
</defs>
</svg>
