<svg width="36" height="36" viewBox="0 0 36 36" fill="none" xmlns="http://www.w3.org/2000/svg">
<path d="M3.43457 25.9216H7.55411V27.4736C7.55411 27.862 7.23932 28.1768 6.85098 28.1768H4.1377C3.74936 28.1768 3.43457 27.862 3.43457 27.4736V25.9216Z" fill="#37617C"/>
<path d="M28.4458 25.9216H32.5653V27.4736C32.5653 27.862 32.2505 28.1768 31.8622 28.1768H29.1489C28.7606 28.1768 28.4458 27.862 28.4458 27.4736V25.9216Z" fill="#37617C"/>
<path d="M30.924 14.9352V20.6108H5.076V14.9352C5.076 13.6889 4.06561 12.6785 2.81925 12.6785C1.57289 12.6785 0.5625 13.6889 0.5625 14.9352V23.8124C0.5625 24.9774 1.50687 25.9217 2.67188 25.9217H33.3281C34.4931 25.9217 35.4375 24.9774 35.4375 23.8124V14.9352C35.4375 13.6889 34.4271 12.6785 33.1807 12.6785C31.9343 12.6785 30.924 13.6889 30.924 14.9352Z" fill="#F2D26F"/>
<path d="M28.4458 25.9216H32.5653V27.1873H28.4458V25.9216Z" fill="#30546A"/>
<path d="M3.43457 25.9216H7.55411V27.1873H3.43457V25.9216Z" fill="#30546A"/>
<path d="M33.3281 24.6562H2.67188C1.50687 24.6562 0.5625 23.7119 0.5625 22.5469V23.8125C0.5625 24.9775 1.50687 25.9219 2.67188 25.9219H33.3281C34.4931 25.9219 35.4375 24.9775 35.4375 23.8125V22.5469C35.4375 23.7119 34.4931 24.6562 33.3281 24.6562Z" fill="#EDBB57"/>
<path d="M5.07617 20.6108H30.9241V10.6355C30.9241 9.08223 29.6649 7.823 28.1116 7.823H7.88867C6.3354 7.823 5.07617 9.08223 5.07617 10.6355V20.6108Z" fill="#E8A04B"/>
<path d="M5.07617 19.3452H30.9241V20.6108H5.07617V19.3452Z" fill="#D68D3F"/>
<path d="M33.2105 12.1397C32.556 12.1397 31.954 12.3668 31.4777 12.7456V10.621C31.4777 8.77583 29.9765 7.27466 28.1313 7.27466H12.4752C12.1834 7.27466 11.9468 7.51119 11.9468 7.80306C11.9468 8.09492 12.1834 8.33145 12.4752 8.33145H28.1313C29.3938 8.33145 30.421 9.35858 30.421 10.6211V20.0876H25.4772C25.1854 20.0876 24.9488 20.3242 24.9488 20.616C24.9488 20.9079 25.1854 21.1444 25.4772 21.1444H30.9494C31.2412 21.1444 31.4778 20.9079 31.4778 20.616V14.9293C31.4778 13.9738 32.2551 13.1965 33.2105 13.1965C34.166 13.1965 34.9433 13.9738 34.9433 14.9293V23.8238C34.9433 24.6979 34.2323 25.409 33.3582 25.409H15.6454C15.3536 25.409 15.117 25.6455 15.117 25.9374C15.117 26.2292 15.3536 26.4657 15.6454 26.4657H27.9378V27.4925C27.9378 28.1722 28.4909 28.7253 29.1707 28.7253H31.8892C32.569 28.7253 33.1221 28.1722 33.1221 27.4925V26.4657H33.3581C34.8149 26.4657 36 25.2806 36 23.8239V14.9294C36.0001 13.3911 34.7486 12.1397 33.2105 12.1397ZM32.0654 27.4923C32.0654 27.5895 31.9864 27.6684 31.8893 27.6684H29.1707C29.0736 27.6684 28.9946 27.5895 28.9946 27.4923V26.4656H32.0654V27.4923Z" fill="black"/>
<path d="M13.5319 25.409H2.64185C1.7678 25.409 1.05673 24.6979 1.05673 23.8238V14.9293C1.05673 13.9738 1.83403 13.1965 2.78951 13.1965C3.74498 13.1965 4.52229 13.9738 4.52229 14.9293C4.52229 14.9295 4.52236 14.9297 4.52236 14.93V20.616C4.52236 20.9079 4.75896 21.1444 5.05076 21.1444H23.3636C23.6554 21.1444 23.892 20.9079 23.892 20.616C23.892 20.3242 23.6555 20.0876 23.3636 20.0876H5.57909V10.6211C5.57909 9.35858 6.60621 8.33145 7.86874 8.33145H10.3616C10.6534 8.33145 10.89 8.09492 10.89 7.80306C10.89 7.51119 10.6535 7.27466 10.3616 7.27466H7.86874C6.02353 7.27466 4.52236 8.77583 4.52236 10.621V12.7456C4.04606 12.3668 3.44398 12.1397 2.78958 12.1397C1.25142 12.1398 0 13.3911 0 14.9293V23.8238C0 25.2806 1.18512 26.4657 2.64185 26.4657H2.87789V27.4924C2.87789 28.1722 3.43097 28.7252 4.11075 28.7252H6.82931C7.50909 28.7252 8.06217 28.1722 8.06217 27.4924V26.4657H13.5318C13.8236 26.4657 14.0602 26.2291 14.0602 25.9373C14.0602 25.6454 13.8236 25.409 13.5319 25.409ZM7.00552 27.4924C7.00552 27.5896 6.92648 27.6685 6.82938 27.6685H4.11075C4.01365 27.6685 3.93462 27.5896 3.93462 27.4924V26.4657H7.00545V27.4924H7.00552Z" fill="black"/>
</svg>
