<?xml version="1.0" encoding="utf-8"?>
<!-- Generator: Adobe Illustrator 21.1.0, SVG Export Plug-In . SVG Version: 6.00 Build 0)  -->
<svg version="1.1" id="Layer_1" xmlns="http://www.w3.org/2000/svg" xmlns:xlink="http://www.w3.org/1999/xlink" x="0px" y="0px"
	 viewBox="0 0 32 33" style="enable-background:new 0 0 32 33;" xml:space="preserve">
<path d="M16,0.7c-8.8,0-16,7.2-16,16c0,8.8,7.2,16,16,16c8.8,0,16-7.2,16-16C32,7.9,24.8,0.7,16,0.7z M16,31.5
	c-8.1,0-14.8-6.6-14.8-14.8S7.9,2,16,2c8.1,0,14.8,6.6,14.8,14.8S24.1,31.5,16,31.5z"/>
<path d="M22,10.7c-0.2-0.2-0.6-0.2-0.9,0L16,15.9l-5.1-5.1c-0.2-0.2-0.6-0.2-0.9,0c-0.2,0.2-0.2,0.6,0,0.9l5.1,5.1L10,21.8
	c-0.2,0.2-0.2,0.6,0,0.9c0.1,0.1,0.3,0.2,0.4,0.2c0.2,0,0.3-0.1,0.4-0.2l5.1-5.1l5.1,5.1c0.1,0.1,0.3,0.2,0.4,0.2
	c0.2,0,0.3-0.1,0.4-0.2c0.2-0.2,0.2-0.6,0-0.9l-5.1-5.1l5.1-5.1C22.2,11.4,22.2,11,22,10.7z"/>
</svg>
41C21.2236 22.8141 21.3811 22.8744 21.5387 22.8744C21.6962 22.8744 21.8537 22.8141 21.9737 22.6941C22.2143 22.4535 22.2143 22.0645 21.9737 21.8239L16.8703 16.7205L21.9737 11.6171C22.2143 11.3765 22.2143 10.9876 21.9737 10.747Z" fill="#FE5F5F"/>
</svg>
