<svg width="1920" height="780" viewBox="0 0 1920 780" fill="none" xmlns="http://www.w3.org/2000/svg">
<g clip-path="url(#clip0)" filter="url(#filter0_d)">
<path d="M1 318.1V321.623L704.097 717.784L753.669 710.067L38.0787 306.86L1 318.1Z" fill="url(#paint0_linear)"/>
<path d="M795.445 77.1151L1665.45 567.389L1716.52 559.336L837.721 64.2816L795.445 77.1151Z" fill="url(#paint1_linear)"/>
<path d="M751.07 90.5358L1612.08 575.693L1662.95 567.724L793.346 77.7023L751.07 90.5358Z" fill="url(#paint2_linear)"/>
<path d="M41.2773 305.853L757.567 709.48L807.238 701.679L82.5537 293.355L41.2773 305.853Z" fill="url(#paint3_linear)"/>
<path d="M85.6523 292.433L810.937 701.092L860.708 693.291L126.929 279.851L85.6523 292.433Z" fill="url(#paint4_linear)"/>
<path d="M706.695 104.04L1558.71 584.081L1609.48 576.112L748.871 91.2068L706.695 104.04Z" fill="url(#paint5_linear)"/>
<path d="M928.469 36.7693L1825.75 542.309L1876.93 534.256L971.044 23.8519L928.469 36.7693Z" fill="url(#paint6_linear)"/>
<path d="M980.339 21L972.844 23.2647L1879.12 533.921L1920 527.546V519.997L1047.6 28.4652L980.339 21Z" fill="url(#paint7_linear)"/>
<path d="M1051 28.8846L1920 518.487V481.496L1132.75 37.9436L1051 28.8846Z" fill="url(#paint8_linear)"/>
<path d="M1 398.54L597.258 734.476L646.73 726.759L1 362.975V398.54Z" fill="url(#paint9_linear)"/>
<path d="M884.094 50.1899L1772.28 550.613L1823.46 542.644L926.569 37.2725L884.094 50.1899Z" fill="url(#paint10_linear)"/>
<path d="M839.719 63.6106L1718.91 559.001L1769.99 551.032L882.194 50.7771L839.719 63.6106Z" fill="url(#paint11_linear)"/>
<path d="M1 360.039L650.728 726.172L700.199 718.371L1 324.475V360.039Z" fill="url(#paint12_linear)"/>
<path d="M1 436.957L543.889 742.864L593.26 735.147L1 401.476V436.957Z" fill="url(#paint13_linear)"/>
<path d="M263.051 238.582L1024.61 667.624L1074.59 659.823L304.627 226.001L263.051 238.582Z" fill="url(#paint14_linear)"/>
<path d="M440.547 184.732L1238.19 634.24L1288.56 626.356L482.323 172.066L440.547 184.732Z" fill="url(#paint15_linear)"/>
<path d="M396.174 198.237L1184.82 642.544L1235.09 634.744L437.95 185.571L396.174 198.237Z" fill="url(#paint16_linear)"/>
<path d="M662.32 117.461L1505.24 592.385L1556.01 584.5L704.496 104.711L662.32 117.461Z" fill="url(#paint17_linear)"/>
<path d="M351.799 211.657L1131.35 650.932L1181.62 643.047L393.475 198.991L351.799 211.657Z" fill="url(#paint18_linear)"/>
<path d="M218.775 252.087L971.144 676.012L1021.12 668.211L260.252 239.421L218.775 252.087Z" fill="url(#paint19_linear)"/>
<path d="M307.424 225.162L1077.98 659.32L1128.15 651.436L349.1 212.496L307.424 225.162Z" fill="url(#paint20_linear)"/>
<path d="M130.025 278.928L864.305 692.704L914.176 684.903L171.402 266.43L130.025 278.928Z" fill="url(#paint21_linear)"/>
<path d="M484.924 171.311L1291.66 625.852L1342.03 617.968L526.8 158.562L484.924 171.311Z" fill="url(#paint22_linear)"/>
<path d="M573.572 144.386L1398.4 609.16L1449.07 601.192L615.648 131.637L573.572 144.386Z" fill="url(#paint23_linear)"/>
<path d="M617.945 130.966L1451.87 600.773L1502.54 592.888L660.021 118.132L617.945 130.966Z" fill="url(#paint24_linear)"/>
<path d="M174.4 265.508L917.774 684.4L967.646 676.515L215.777 252.926L174.4 265.508Z" fill="url(#paint25_linear)"/>
<path d="M529.297 157.891L1345.03 617.464L1395.6 609.58L571.173 145.141L529.297 157.891Z" fill="url(#paint26_linear)"/>
<path d="M1483.95 80.5542L1920 326.236V288.994L1575.9 95.1492L1483.95 80.5542Z" fill="url(#paint27_linear)"/>
<path d="M1920 149.587L1863.53 140.612L1920 172.486V149.587Z" fill="url(#paint28_linear)"/>
<path d="M1221 47.7574L1920 441.654V404.495L1303.05 56.8164L1221 47.7574Z" fill="url(#paint29_linear)"/>
<path d="M1861.03 140.192L1768.69 125.597L1920 210.902V173.492L1861.03 140.192Z" fill="url(#paint30_linear)"/>
<path d="M1305.95 57.1519L1920 403.153V365.995L1388.11 66.2947L1305.95 57.1519Z" fill="url(#paint31_linear)"/>
<path d="M1673.74 110.583L1920 249.319V211.993L1765.99 125.178L1673.74 110.583Z" fill="url(#paint32_linear)"/>
<path d="M1 482.419L238.264 612.096L1 478.477V482.419Z" fill="url(#paint33_linear)"/>
<path d="M1135.95 38.2791L1920 480.071V442.996L1217.9 47.4219L1135.95 38.2791Z" fill="url(#paint34_linear)"/>
<path d="M1407.79 68.4756L1391 66.6302L1920 364.737V327.494L1480.85 80.0509L1407.79 68.4756Z" fill="url(#paint35_linear)"/>
<path d="M1578.89 95.5685L1920 287.819V250.493L1670.94 110.164L1578.89 95.5685Z" fill="url(#paint36_linear)"/>
<path d="M1 475.457L421.759 712.499L492.118 751L539.791 743.535L1 439.976V475.457Z" fill="url(#paint37_linear)"/>
<path d="M1 478.477L238.264 612.096L421.759 712.499L1 475.457V478.477Z" fill="url(#paint38_linear)"/>
<path d="M1 439.976L539.791 743.535L543.889 742.864L1 436.957V439.976Z" fill="url(#paint39_linear)"/>
<path d="M1 401.476L593.26 735.147L597.258 734.476L1 398.54V401.476Z" fill="url(#paint40_linear)"/>
<path d="M1 362.975L646.73 726.759L650.728 726.172L1 360.039V362.975Z" fill="url(#paint41_linear)"/>
<path d="M1 324.475L700.199 718.371L704.097 717.784L1 321.623V324.475Z" fill="url(#paint42_linear)"/>
<path d="M38.0781 306.86L753.668 710.067L757.566 709.48L41.2763 305.854L38.0781 306.86Z" fill="url(#paint43_linear)"/>
<path d="M82.5527 293.356L807.237 701.679L810.935 701.092L85.651 292.433L82.5527 293.356Z" fill="url(#paint44_linear)"/>
<path d="M126.928 279.851L860.707 693.291L864.305 692.704L130.026 278.928L126.928 279.851Z" fill="url(#paint45_linear)"/>
<path d="M171.402 266.43L914.177 684.903L917.774 684.4L174.401 265.508L171.402 266.43Z" fill="url(#paint46_linear)"/>
<path d="M215.777 252.926L967.646 676.515L971.144 676.012L218.776 252.087L215.777 252.926Z" fill="url(#paint47_linear)"/>
<path d="M260.252 239.421L1021.12 668.211L1024.61 667.624L263.05 238.582L260.252 239.421Z" fill="url(#paint48_linear)"/>
<path d="M304.625 226.001L1074.58 659.823L1077.98 659.32L307.423 225.162L304.625 226.001Z" fill="url(#paint49_linear)"/>
<path d="M349.1 212.496L1128.15 651.435L1131.35 650.932L351.798 211.657L349.1 212.496Z" fill="url(#paint50_linear)"/>
<path d="M393.475 198.991L1181.62 643.048L1184.82 642.544L396.173 198.237L393.475 198.991Z" fill="url(#paint51_linear)"/>
<path d="M437.949 185.571L1235.09 634.744L1238.19 634.24L440.548 184.732L437.949 185.571Z" fill="url(#paint52_linear)"/>
<path d="M482.324 172.066L1288.56 626.356L1291.66 625.852L484.923 171.311L482.324 172.066Z" fill="url(#paint53_linear)"/>
<path d="M526.799 158.562L1342.03 617.968L1345.03 617.464L529.297 157.891L526.799 158.562Z" fill="url(#paint54_linear)"/>
<path d="M571.174 145.141L1395.6 609.58L1398.4 609.16L573.572 144.386L571.174 145.141Z" fill="url(#paint55_linear)"/>
<path d="M615.648 131.637L1449.07 601.192L1451.87 600.772L617.947 130.966L615.648 131.637Z" fill="url(#paint56_linear)"/>
<path d="M660.021 118.132L1502.54 592.888L1505.24 592.385L662.32 117.461L660.021 118.132Z" fill="url(#paint57_linear)"/>
<path d="M704.496 104.711L1556.01 584.5L1558.71 584.081L706.695 104.04L704.496 104.711Z" fill="url(#paint58_linear)"/>
<path d="M748.871 91.2068L1609.48 576.112L1612.08 575.693L751.07 90.5358L748.871 91.2068Z" fill="url(#paint59_linear)"/>
<path d="M793.346 77.7023L1662.95 567.724L1665.45 567.389L795.445 77.1151L793.346 77.7023Z" fill="url(#paint60_linear)"/>
<path d="M837.721 64.2816L1716.52 559.336L1718.92 559.001L839.72 63.6106L837.721 64.2816Z" fill="url(#paint61_linear)"/>
<path d="M882.195 50.7771L1769.99 551.032L1772.28 550.613L884.094 50.1899L882.195 50.7771Z" fill="url(#paint62_linear)"/>
<path d="M926.57 37.2726L1823.46 542.644L1825.76 542.309L928.469 36.7693L926.57 37.2726Z" fill="url(#paint63_linear)"/>
<path d="M971.045 23.8519L1876.93 534.256L1879.12 533.921L972.844 23.2647L971.045 23.8519Z" fill="url(#paint64_linear)"/>
<path d="M1047.6 28.4652L1920 519.997V518.487L1051 28.8846L1047.6 28.4652Z" fill="url(#paint65_linear)"/>
<path d="M1132.75 37.9436L1920 481.496V480.07L1135.95 38.2791L1132.75 37.9436Z" fill="url(#paint66_linear)"/>
<path d="M1217.9 47.4219L1920 442.996V441.654L1221 47.7575L1217.9 47.4219Z" fill="url(#paint67_linear)"/>
<path d="M1303.05 56.8164L1920 404.495V403.153L1305.95 57.1519L1303.05 56.8164Z" fill="url(#paint68_linear)"/>
<path d="M1388.11 66.2947L1920 365.995V364.737L1391 66.6303L1388.11 66.2947Z" fill="url(#paint69_linear)"/>
<path d="M1480.85 80.0509L1920 327.494V326.236L1483.95 80.5542L1480.85 80.0509Z" fill="url(#paint70_linear)"/>
<path d="M1575.9 95.1492L1920 288.994V287.82L1578.89 95.5686L1575.9 95.1492Z" fill="url(#paint71_linear)"/>
<path d="M1670.94 110.164L1920 250.493V249.319L1673.74 110.583L1670.94 110.164Z" fill="url(#paint72_linear)"/>
<path d="M1765.99 125.178L1920 211.993V210.902L1768.69 125.597L1765.99 125.178Z" fill="url(#paint73_linear)"/>
<path d="M1920 172.486L1863.53 140.612L1861.03 140.192L1920 173.492V172.486Z" fill="url(#paint74_linear)"/>
</g>
<defs>
<filter id="filter0_d" x="-24" y="0" width="1969" height="780" filterUnits="userSpaceOnUse" color-interpolation-filters="sRGB">
<feFlood flood-opacity="0" result="BackgroundImageFix"/>
<feColorMatrix in="SourceAlpha" type="matrix" values="0 0 0 0 0 0 0 0 0 0 0 0 0 0 0 0 0 0 127 0"/>
<feOffset dy="4"/>
<feGaussianBlur stdDeviation="12.5"/>
<feColorMatrix type="matrix" values="0 0 0 0 0.309804 0 0 0 0 0.592157 0 0 0 0 0.419608 0 0 0 0.25 0"/>
<feBlend mode="normal" in2="BackgroundImageFix" result="effect1_dropShadow"/>
<feBlend mode="normal" in="SourceGraphic" in2="effect1_dropShadow" result="shape"/>
</filter>
<linearGradient id="paint0_linear" x1="0.379164" y1="601.987" x2="2013.25" y2="-73.8497" gradientUnits="userSpaceOnUse">
<stop offset="0.00742574" stop-color="#90DD83"/>
<stop offset="0.9233" stop-color="#AADD80"/>
</linearGradient>
<linearGradient id="paint1_linear" x1="4.04294" y1="612.897" x2="2016.91" y2="-62.9399" gradientUnits="userSpaceOnUse">
<stop offset="0.00742574" stop-color="#90DD83"/>
<stop offset="0.9233" stop-color="#AADD80"/>
</linearGradient>
<linearGradient id="paint2_linear" x1="3.83884" y1="612.29" x2="2016.71" y2="-63.5464" gradientUnits="userSpaceOnUse">
<stop offset="0.00742574" stop-color="#90DD83"/>
<stop offset="0.9233" stop-color="#AADD80"/>
</linearGradient>
<linearGradient id="paint3_linear" x1="0.583075" y1="602.593" x2="2013.45" y2="-73.2438" gradientUnits="userSpaceOnUse">
<stop offset="0.00742574" stop-color="#90DD83"/>
<stop offset="0.9233" stop-color="#AADD80"/>
</linearGradient>
<linearGradient id="paint4_linear" x1="0.78699" y1="603.199" x2="2013.66" y2="-72.6376" gradientUnits="userSpaceOnUse">
<stop offset="0.00742574" stop-color="#90DD83"/>
<stop offset="0.9233" stop-color="#AADD80"/>
</linearGradient>
<linearGradient id="paint5_linear" x1="3.635" y1="611.684" x2="2016.51" y2="-64.1522" gradientUnits="userSpaceOnUse">
<stop offset="0.00742574" stop-color="#90DD83"/>
<stop offset="0.9233" stop-color="#AADD80"/>
</linearGradient>
<linearGradient id="paint6_linear" x1="4.65302" y1="614.715" x2="2017.52" y2="-61.1217" gradientUnits="userSpaceOnUse">
<stop offset="0.00742574" stop-color="#90DD83"/>
<stop offset="0.9233" stop-color="#AADD80"/>
</linearGradient>
<linearGradient id="paint7_linear" x1="5.09289" y1="616.023" x2="2017.96" y2="-59.8135" gradientUnits="userSpaceOnUse">
<stop offset="0.00742574" stop-color="#90DD83"/>
<stop offset="0.9233" stop-color="#AADD80"/>
</linearGradient>
<linearGradient id="paint8_linear" x1="7.50967" y1="623.225" x2="2020.38" y2="-52.6121" gradientUnits="userSpaceOnUse">
<stop offset="0.00742574" stop-color="#90DD83"/>
<stop offset="0.9233" stop-color="#AADD80"/>
</linearGradient>
<linearGradient id="paint9_linear" x1="6.40721" y1="619.94" x2="2019.28" y2="-55.8965" gradientUnits="userSpaceOnUse">
<stop offset="0.00742574" stop-color="#90DD83"/>
<stop offset="0.9233" stop-color="#AADD80"/>
</linearGradient>
<linearGradient id="paint10_linear" x1="4.44922" y1="614.109" x2="2017.32" y2="-61.7277" gradientUnits="userSpaceOnUse">
<stop offset="0.00742574" stop-color="#90DD83"/>
<stop offset="0.9233" stop-color="#AADD80"/>
</linearGradient>
<linearGradient id="paint11_linear" x1="4.24529" y1="613.503" x2="2017.12" y2="-62.3338" gradientUnits="userSpaceOnUse">
<stop offset="0.00742574" stop-color="#90DD83"/>
<stop offset="0.9233" stop-color="#AADD80"/>
</linearGradient>
<linearGradient id="paint12_linear" x1="1.0837" y1="604.085" x2="2013.95" y2="-71.7514" gradientUnits="userSpaceOnUse">
<stop offset="0.00742574" stop-color="#90DD83"/>
<stop offset="0.9233" stop-color="#AADD80"/>
</linearGradient>
<linearGradient id="paint13_linear" x1="11.7307" y1="635.796" x2="2024.6" y2="-40.0411" gradientUnits="userSpaceOnUse">
<stop offset="0.00742574" stop-color="#90DD83"/>
<stop offset="0.9233" stop-color="#AADD80"/>
</linearGradient>
<linearGradient id="paint14_linear" x1="1.60117" y1="605.623" x2="2014.47" y2="-70.213" gradientUnits="userSpaceOnUse">
<stop offset="0.00742574" stop-color="#90DD83"/>
<stop offset="0.9233" stop-color="#AADD80"/>
</linearGradient>
<linearGradient id="paint15_linear" x1="2.41279" y1="608.048" x2="2015.28" y2="-67.7896" gradientUnits="userSpaceOnUse">
<stop offset="0.00742574" stop-color="#90DD83"/>
<stop offset="0.9233" stop-color="#AADD80"/>
</linearGradient>
<linearGradient id="paint16_linear" x1="2.21098" y1="607.442" x2="2015.08" y2="-68.395" gradientUnits="userSpaceOnUse">
<stop offset="0.00742574" stop-color="#90DD83"/>
<stop offset="0.9233" stop-color="#AADD80"/>
</linearGradient>
<linearGradient id="paint17_linear" x1="3.43111" y1="611.078" x2="2016.3" y2="-64.7585" gradientUnits="userSpaceOnUse">
<stop offset="0.00742574" stop-color="#90DD83"/>
<stop offset="0.9233" stop-color="#AADD80"/>
</linearGradient>
<linearGradient id="paint18_linear" x1="2.00702" y1="606.836" x2="2014.88" y2="-69.0011" gradientUnits="userSpaceOnUse">
<stop offset="0.00742574" stop-color="#90DD83"/>
<stop offset="0.9233" stop-color="#AADD80"/>
</linearGradient>
<linearGradient id="paint19_linear" x1="1.39684" y1="605.017" x2="2014.27" y2="-70.8196" gradientUnits="userSpaceOnUse">
<stop offset="0.00742574" stop-color="#90DD83"/>
<stop offset="0.9233" stop-color="#AADD80"/>
</linearGradient>
<linearGradient id="paint20_linear" x1="1.80308" y1="606.23" x2="2014.67" y2="-69.6071" gradientUnits="userSpaceOnUse">
<stop offset="0.00742574" stop-color="#90DD83"/>
<stop offset="0.9233" stop-color="#AADD80"/>
</linearGradient>
<linearGradient id="paint21_linear" x1="0.988999" y1="603.805" x2="2013.86" y2="-72.0316" gradientUnits="userSpaceOnUse">
<stop offset="0.00742574" stop-color="#90DD83"/>
<stop offset="0.9233" stop-color="#AADD80"/>
</linearGradient>
<linearGradient id="paint22_linear" x1="2.61875" y1="608.654" x2="2015.49" y2="-67.1832" gradientUnits="userSpaceOnUse">
<stop offset="0.00742574" stop-color="#90DD83"/>
<stop offset="0.9233" stop-color="#AADD80"/>
</linearGradient>
<linearGradient id="paint23_linear" x1="3.02506" y1="609.866" x2="2015.9" y2="-65.9706" gradientUnits="userSpaceOnUse">
<stop offset="0.00742574" stop-color="#90DD83"/>
<stop offset="0.9233" stop-color="#AADD80"/>
</linearGradient>
<linearGradient id="paint24_linear" x1="3.22704" y1="610.472" x2="2016.1" y2="-65.3644" gradientUnits="userSpaceOnUse">
<stop offset="0.00742574" stop-color="#90DD83"/>
<stop offset="0.9233" stop-color="#AADD80"/>
</linearGradient>
<linearGradient id="paint25_linear" x1="1.1929" y1="604.411" x2="2014.06" y2="-71.4254" gradientUnits="userSpaceOnUse">
<stop offset="0.00742574" stop-color="#90DD83"/>
<stop offset="0.9233" stop-color="#AADD80"/>
</linearGradient>
<linearGradient id="paint26_linear" x1="2.82094" y1="609.26" x2="2015.69" y2="-66.5765" gradientUnits="userSpaceOnUse">
<stop offset="0.00742574" stop-color="#90DD83"/>
<stop offset="0.9233" stop-color="#AADD80"/>
</linearGradient>
<linearGradient id="paint27_linear" x1="1.57504" y1="605.552" x2="2014.45" y2="-70.2851" gradientUnits="userSpaceOnUse">
<stop offset="0.00742574" stop-color="#90DD83"/>
<stop offset="0.9233" stop-color="#AADD80"/>
</linearGradient>
<linearGradient id="paint28_linear" x1="0.955192" y1="603.72" x2="2013.83" y2="-72.12" gradientUnits="userSpaceOnUse">
<stop offset="0.00742574" stop-color="#90DD83"/>
<stop offset="0.9233" stop-color="#AADD80"/>
</linearGradient>
<linearGradient id="paint29_linear" x1="4.74085" y1="614.979" x2="2017.61" y2="-60.8574" gradientUnits="userSpaceOnUse">
<stop offset="0.00742574" stop-color="#90DD83"/>
<stop offset="0.9233" stop-color="#AADD80"/>
</linearGradient>
<linearGradient id="paint30_linear" x1="1.11581" y1="604.178" x2="2013.99" y2="-71.6587" gradientUnits="userSpaceOnUse">
<stop offset="0.00742574" stop-color="#90DD83"/>
<stop offset="0.9233" stop-color="#AADD80"/>
</linearGradient>
<linearGradient id="paint31_linear" x1="3.3587" y1="610.856" x2="2016.23" y2="-64.9802" gradientUnits="userSpaceOnUse">
<stop offset="0.00742574" stop-color="#90DD83"/>
<stop offset="0.9233" stop-color="#AADD80"/>
</linearGradient>
<linearGradient id="paint32_linear" x1="1.26999" y1="604.636" x2="2014.14" y2="-71.2007" gradientUnits="userSpaceOnUse">
<stop offset="0.00742574" stop-color="#90DD83"/>
<stop offset="0.9233" stop-color="#AADD80"/>
</linearGradient>
<linearGradient id="paint33_linear" x1="-8.48207" y1="575.595" x2="2004.39" y2="-100.242" gradientUnits="userSpaceOnUse">
<stop offset="0.00742574" stop-color="#90DD83"/>
<stop offset="0.9233" stop-color="#AADD80"/>
</linearGradient>
<linearGradient id="paint34_linear" x1="6.12546" y1="619.102" x2="2019" y2="-56.7343" gradientUnits="userSpaceOnUse">
<stop offset="0.00742574" stop-color="#90DD83"/>
<stop offset="0.9233" stop-color="#AADD80"/>
</linearGradient>
<linearGradient id="paint35_linear" x1="1.97352" y1="606.733" x2="2014.84" y2="-69.1038" gradientUnits="userSpaceOnUse">
<stop offset="0.00742574" stop-color="#90DD83"/>
<stop offset="0.9233" stop-color="#AADD80"/>
</linearGradient>
<linearGradient id="paint36_linear" x1="1.42079" y1="605.094" x2="2014.29" y2="-70.7433" gradientUnits="userSpaceOnUse">
<stop offset="0.00742574" stop-color="#90DD83"/>
<stop offset="0.9233" stop-color="#AADD80"/>
</linearGradient>
<linearGradient id="paint37_linear" x1="17.0541" y1="651.65" x2="2029.93" y2="-24.1862" gradientUnits="userSpaceOnUse">
<stop offset="0.00742574" stop-color="#90DD83"/>
<stop offset="0.9233" stop-color="#AADD80"/>
</linearGradient>
<linearGradient id="paint38_linear" x1="2048.61" y1="-191.026" x2="635.56" y2="666.148" gradientUnits="userSpaceOnUse">
<stop stop-color="#AADD80"/>
<stop offset="0.953" stop-color="#AADD80"/>
</linearGradient>
<linearGradient id="paint39_linear" x1="2059.22" y1="-173.533" x2="646.172" y2="683.641" gradientUnits="userSpaceOnUse">
<stop stop-color="#AADD80"/>
<stop offset="0.953" stop-color="#AADD80"/>
</linearGradient>
<linearGradient id="paint40_linear" x1="2053.44" y1="-183.059" x2="640.393" y2="674.115" gradientUnits="userSpaceOnUse">
<stop stop-color="#AADD80"/>
<stop offset="0.953" stop-color="#AADD80"/>
</linearGradient>
<linearGradient id="paint41_linear" x1="2047.66" y1="-192.584" x2="634.615" y2="664.59" gradientUnits="userSpaceOnUse">
<stop stop-color="#AADD80"/>
<stop offset="0.953" stop-color="#AADD80"/>
</linearGradient>
<linearGradient id="paint42_linear" x1="2041.88" y1="-202.109" x2="628.837" y2="655.064" gradientUnits="userSpaceOnUse">
<stop stop-color="#AADD80"/>
<stop offset="0.953" stop-color="#AADD80"/>
</linearGradient>
<linearGradient id="paint43_linear" x1="2045.63" y1="-195.938" x2="632.58" y2="661.236" gradientUnits="userSpaceOnUse">
<stop stop-color="#AADD80"/>
<stop offset="0.953" stop-color="#AADD80"/>
</linearGradient>
<linearGradient id="paint44_linear" x1="2050.44" y1="-188.009" x2="637.39" y2="669.165" gradientUnits="userSpaceOnUse">
<stop stop-color="#AADD80"/>
<stop offset="0.953" stop-color="#AADD80"/>
</linearGradient>
<linearGradient id="paint45_linear" x1="2055.25" y1="-180.08" x2="642.2" y2="677.094" gradientUnits="userSpaceOnUse">
<stop stop-color="#AADD80"/>
<stop offset="0.953" stop-color="#AADD80"/>
</linearGradient>
<linearGradient id="paint46_linear" x1="2060.06" y1="-172.152" x2="647.01" y2="685.022" gradientUnits="userSpaceOnUse">
<stop stop-color="#AADD80"/>
<stop offset="0.953" stop-color="#AADD80"/>
</linearGradient>
<linearGradient id="paint47_linear" x1="2064.87" y1="-164.223" x2="651.82" y2="692.95" gradientUnits="userSpaceOnUse">
<stop stop-color="#AADD80"/>
<stop offset="0.953" stop-color="#AADD80"/>
</linearGradient>
<linearGradient id="paint48_linear" x1="2069.67" y1="-156.295" x2="656.629" y2="700.879" gradientUnits="userSpaceOnUse">
<stop stop-color="#AADD80"/>
<stop offset="0.953" stop-color="#AADD80"/>
</linearGradient>
<linearGradient id="paint49_linear" x1="2074.48" y1="-148.366" x2="661.438" y2="708.808" gradientUnits="userSpaceOnUse">
<stop stop-color="#AADD80"/>
<stop offset="0.953" stop-color="#AADD80"/>
</linearGradient>
<linearGradient id="paint50_linear" x1="2079.29" y1="-140.437" x2="666.247" y2="716.736" gradientUnits="userSpaceOnUse">
<stop stop-color="#AADD80"/>
<stop offset="0.953" stop-color="#AADD80"/>
</linearGradient>
<linearGradient id="paint51_linear" x1="2084.1" y1="-132.509" x2="671.058" y2="724.665" gradientUnits="userSpaceOnUse">
<stop stop-color="#AADD80"/>
<stop offset="0.953" stop-color="#AADD80"/>
</linearGradient>
<linearGradient id="paint52_linear" x1="2088.91" y1="-124.58" x2="675.867" y2="732.593" gradientUnits="userSpaceOnUse">
<stop stop-color="#AADD80"/>
<stop offset="0.953" stop-color="#AADD80"/>
</linearGradient>
<linearGradient id="paint53_linear" x1="2093.72" y1="-116.652" x2="680.677" y2="740.522" gradientUnits="userSpaceOnUse">
<stop stop-color="#AADD80"/>
<stop offset="0.953" stop-color="#AADD80"/>
</linearGradient>
<linearGradient id="paint54_linear" x1="2098.53" y1="-108.723" x2="685.487" y2="748.451" gradientUnits="userSpaceOnUse">
<stop stop-color="#AADD80"/>
<stop offset="0.953" stop-color="#AADD80"/>
</linearGradient>
<linearGradient id="paint55_linear" x1="2103.34" y1="-100.795" x2="690.297" y2="756.379" gradientUnits="userSpaceOnUse">
<stop stop-color="#AADD80"/>
<stop offset="0.953" stop-color="#AADD80"/>
</linearGradient>
<linearGradient id="paint56_linear" x1="2108.15" y1="-92.8659" x2="695.106" y2="764.308" gradientUnits="userSpaceOnUse">
<stop stop-color="#AADD80"/>
<stop offset="0.953" stop-color="#AADD80"/>
</linearGradient>
<linearGradient id="paint57_linear" x1="2112.96" y1="-84.9375" x2="699.915" y2="772.237" gradientUnits="userSpaceOnUse">
<stop stop-color="#AADD80"/>
<stop offset="0.953" stop-color="#AADD80"/>
</linearGradient>
<linearGradient id="paint58_linear" x1="2117.77" y1="-77.0088" x2="704.724" y2="780.165" gradientUnits="userSpaceOnUse">
<stop stop-color="#AADD80"/>
<stop offset="0.953" stop-color="#AADD80"/>
</linearGradient>
<linearGradient id="paint59_linear" x1="2122.58" y1="-69.0803" x2="709.534" y2="788.094" gradientUnits="userSpaceOnUse">
<stop stop-color="#AADD80"/>
<stop offset="0.953" stop-color="#AADD80"/>
</linearGradient>
<linearGradient id="paint60_linear" x1="2127.39" y1="-61.1517" x2="714.344" y2="796.022" gradientUnits="userSpaceOnUse">
<stop stop-color="#AADD80"/>
<stop offset="0.953" stop-color="#AADD80"/>
</linearGradient>
<linearGradient id="paint61_linear" x1="2132.2" y1="-53.223" x2="719.154" y2="803.95" gradientUnits="userSpaceOnUse">
<stop stop-color="#AADD80"/>
<stop offset="0.953" stop-color="#AADD80"/>
</linearGradient>
<linearGradient id="paint62_linear" x1="2137.01" y1="-45.2945" x2="723.963" y2="811.879" gradientUnits="userSpaceOnUse">
<stop stop-color="#AADD80"/>
<stop offset="0.953" stop-color="#AADD80"/>
</linearGradient>
<linearGradient id="paint63_linear" x1="2141.82" y1="-37.3659" x2="728.774" y2="819.808" gradientUnits="userSpaceOnUse">
<stop stop-color="#AADD80"/>
<stop offset="0.953" stop-color="#AADD80"/>
</linearGradient>
<linearGradient id="paint64_linear" x1="2146.63" y1="-29.4373" x2="733.583" y2="827.737" gradientUnits="userSpaceOnUse">
<stop stop-color="#AADD80"/>
<stop offset="0.953" stop-color="#AADD80"/>
</linearGradient>
<linearGradient id="paint65_linear" x1="2156.5" y1="-13.171" x2="743.449" y2="844.003" gradientUnits="userSpaceOnUse">
<stop stop-color="#AADD80"/>
<stop offset="0.953" stop-color="#AADD80"/>
</linearGradient>
<linearGradient id="paint66_linear" x1="2158.26" y1="-10.2613" x2="745.215" y2="846.912" gradientUnits="userSpaceOnUse">
<stop stop-color="#AADD80"/>
<stop offset="0.953" stop-color="#AADD80"/>
</linearGradient>
<linearGradient id="paint67_linear" x1="2160.03" y1="-7.35158" x2="746.98" y2="849.822" gradientUnits="userSpaceOnUse">
<stop stop-color="#AADD80"/>
<stop offset="0.953" stop-color="#AADD80"/>
</linearGradient>
<linearGradient id="paint68_linear" x1="2161.79" y1="-4.44155" x2="748.744" y2="852.732" gradientUnits="userSpaceOnUse">
<stop stop-color="#AADD80"/>
<stop offset="0.953" stop-color="#AADD80"/>
</linearGradient>
<linearGradient id="paint69_linear" x1="2163.56" y1="-1.53179" x2="750.511" y2="855.642" gradientUnits="userSpaceOnUse">
<stop stop-color="#AADD80"/>
<stop offset="0.953" stop-color="#AADD80"/>
</linearGradient>
<linearGradient id="paint70_linear" x1="2167.14" y1="4.3765" x2="754.094" y2="861.55" gradientUnits="userSpaceOnUse">
<stop stop-color="#AADD80"/>
<stop offset="0.953" stop-color="#AADD80"/>
</linearGradient>
<linearGradient id="paint71_linear" x1="2171.27" y1="11.183" x2="758.222" y2="868.357" gradientUnits="userSpaceOnUse">
<stop stop-color="#AADD80"/>
<stop offset="0.953" stop-color="#AADD80"/>
</linearGradient>
<linearGradient id="paint72_linear" x1="2175.4" y1="17.9895" x2="762.353" y2="875.162" gradientUnits="userSpaceOnUse">
<stop stop-color="#AADD80"/>
<stop offset="0.953" stop-color="#AADD80"/>
</linearGradient>
<linearGradient id="paint73_linear" x1="2179.53" y1="24.7961" x2="766.482" y2="881.968" gradientUnits="userSpaceOnUse">
<stop stop-color="#AADD80"/>
<stop offset="0.953" stop-color="#AADD80"/>
</linearGradient>
<linearGradient id="paint74_linear" x1="2183.65" y1="31.6026" x2="770.609" y2="888.776" gradientUnits="userSpaceOnUse">
<stop stop-color="#AADD80"/>
<stop offset="0.953" stop-color="#AADD80"/>
</linearGradient>
<clipPath id="clip0">
<rect width="1919" height="730" fill="white" transform="translate(1 21)"/>
</clipPath>
</defs>
</svg>
