<svg width="21" height="25" viewBox="0 0 21 25" fill="none" xmlns="http://www.w3.org/2000/svg">
<g clip-path="url(#clip0)">
<path d="M18.1999 7.2L15.8998 1.9C15.3998 0.8 14.1999 0 12.8998 0H7.19985C5.99985 0 4.79985 0.7 4.29985 1.9L1.89985 7.2C1.39985 7.3 0.89985 7.6 0.59985 8C0.19985 8.4 -0.10015 9.1 -0.000149772 9.7L0.59985 16.2C0.69985 16.7 0.99985 17.2 1.49985 17.4V18.4C1.49985 18.7 1.69985 18.9 1.99985 18.9C2.29985 18.9 2.49985 18.7 2.49985 18.4V17.5H3.99985L2.49985 24V20C2.49985 19.7 2.29985 19.5 1.99985 19.5C1.69985 19.5 1.49985 19.7 1.49985 20V24C1.49985 24.6 1.99985 25 2.49985 25C2.99985 25 3.39985 24.7 3.49985 24.2L4.99985 17.6H12.4999C12.7999 17.6 12.9999 17.4 12.9999 17.1C12.9999 16.8 12.7999 16.6 12.4999 16.6H4.69985V16.1H15.5999V16.6H13.9999C13.6999 16.6 13.4999 16.8 13.4999 17.1C13.4999 17.4 13.6999 17.6 13.9999 17.6H14.9999L16.4998 24.2C16.5998 24.7 16.9998 25 17.4998 25C18.0998 25 18.4998 24.5 18.4998 24V17.5C18.9998 17.3 19.3998 16.8 19.3998 16.3L19.9998 9.8C20.2998 9.1 19.9998 8.4 19.5998 8C19.1999 7.6 18.7999 7.3 18.1999 7.2ZM5.19985 2.3C5.59985 1.5 6.39985 1 7.19985 1H12.8998C13.7998 1 14.5998 1.5 14.8998 2.3L17.0998 7.3C16.1999 7.6 15.4999 8.5 15.4999 9.5V11.8H7.79985C7.49985 11.8 7.29985 12 7.29985 12.3C7.29985 12.6 7.49985 12.8 7.79985 12.8H15.9998C16.2998 12.8 16.4998 13 16.4998 13.3V14.5C16.4998 14.8 16.2998 15 15.9998 15H4.09985C3.79985 15 3.59985 14.8 3.59985 14.5V13.3C3.59985 13 3.79985 12.8 4.09985 12.8H6.19985C6.49985 12.8 6.69985 12.6 6.69985 12.3C6.69985 12 6.49985 11.8 6.19985 11.8H4.69985V9.5C4.69985 8.4 3.99985 7.6 2.99985 7.3L5.19985 2.3ZM2.19985 16.6C1.89985 16.6 1.69985 16.4 1.69985 16.1L0.99985 9.6C0.99985 9.2 1.09985 8.9 1.29985 8.6C1.49985 8.3 1.89985 8.2 2.29985 8.2C2.99985 8.2 3.59985 8.8 3.59985 9.5V11.9C2.99985 12.1 2.59985 12.7 2.59985 13.3V14.5C2.59985 15.2 2.99985 15.7 3.59985 15.9V16.5H2.19985V16.6ZM17.5998 24L16.0998 17.6H17.5998V24ZM18.5998 16.1C18.5998 16.4 18.3998 16.6 18.0998 16.6H16.5998V16C17.1999 15.8 17.5998 15.2 17.5998 14.6V13.4C17.5998 12.7 17.1999 12.2 16.5998 12V9.5C16.5998 8.8 17.1998 8.2 17.8998 8.2C18.2998 8.2 18.5998 8.4 18.8998 8.6C19.1998 8.9 19.2999 9.2 19.1999 9.6L18.5998 16.1Z" fill="black"/>
</g>
<defs>
<clipPath id="clip0">
<rect width="20.2" height="25" fill="white"/>
</clipPath>
</defs>
</svg>
