<svg width="24" height="25" viewBox="0 0 24 25" fill="none" xmlns="http://www.w3.org/2000/svg">
<g clip-path="url(#clip0)">
<path d="M23.2 3.2C23.2 1.4 21.7 0 19.9 0C18.3 0 16.9 1.2 16.7 2.7H0.5C0.2 2.7 0 2.9 0 3.2V24.4C0 24.7 0.2 24.9 0.5 24.9H6.4C6.7 24.9 6.9 24.7 6.9 24.4C6.9 24.1 6.7 23.9 6.4 23.9H1V3.7H16.6V4.6H4C3.7 4.6 3.5 4.8 3.5 5.1C3.5 5.6 3 6 2.5 6C2.3 6 2 6.3 2 6.5V20.9C2 21.2 2.2 21.4 2.5 21.4C3 21.4 3.4 21.8 3.4 22.4C3.4 22.7 3.6 22.9 3.9 22.9H16.8C17 23.3 17.2 23.6 17.4 23.8H8.9C8.6 23.8 8.4 24 8.4 24.3C8.4 24.6 8.6 24.8 8.9 24.8H19.9C20.1 24.8 20.3 24.8 20.4 24.7C20.4 24.7 20.4 24.7 20.5 24.7C22 24.4 23.2 23.1 23.2 21.6C23.2 21.5 23.2 21.4 23.2 21.3C23.2 21.2 23.2 21.2 23.2 21.1V3.2ZM22.2 22.1C22.2 21.9 22.1 21.7 22 21.5C21.2 20.1 19.8 20.2 19.7 20.2C19.4 20.2 19.2 20.5 19.2 20.7C19.2 21 19.4 21.2 19.7 21.2C19.7 21.2 20.6 21.1 21 22C21.2 22.3 21.2 22.6 21 23C20.8 23.5 20.4 23.8 20.2 23.9C20.1 23.9 19.9 23.9 19.8 23.9C18.5 23.9 17.5 22.9 17.5 21.7C17.5 20.5 18.5 19.5 19.8 19.5C21.1 19.5 22.1 20.5 22.1 21.7C22.2 21.8 22.2 21.9 22.2 22.1ZM22.2 19.4C21.6 18.8 20.8 18.5 19.9 18.5C19 18.5 18.2 18.9 17.6 19.4V12.8C17.6 12.5 17.4 12.3 17.1 12.3C16.8 12.3 16.6 12.5 16.6 12.8V21.6C16.6 21.7 16.6 21.7 16.6 21.8C16.6 21.8 16.6 21.8 16.6 21.9H4.4C4.2 21.2 3.7 20.7 3 20.5V7C3.7 6.8 4.2 6.3 4.4 5.6H16.6V9C16.6 9.3 16.8 9.5 17.1 9.5C17.4 9.5 17.6 9.3 17.6 9V3.3V3.2C17.6 2 18.6 1 19.9 1C21.2 1 22.2 2 22.2 3.2V19.4Z" fill="black"/>
</g>
<defs>
<clipPath id="clip0">
<rect width="23.2" height="24.8" fill="white"/>
</clipPath>
</defs>
</svg>
