<svg width="26" height="25" viewBox="0 0 26 25" fill="none" xmlns="http://www.w3.org/2000/svg">
<g clip-path="url(#clip0)">
<path d="M24.6001 21.7001C24.5001 21.6001 24.4001 21.4001 24.4001 21.2001V9.60006C24.4001 9.40006 24.5001 9.20006 24.6001 9.10006L24.9001 8.80006C25.5001 8.10006 25.5001 7.10006 24.9001 6.40006C24.3001 5.70006 23.3001 5.70006 22.6001 6.20006L22.3001 6.40006C22.2001 6.50006 22.0001 6.60006 21.8001 6.60006H9.90013C9.70013 6.60006 9.50013 6.50006 9.40013 6.40006L9.10013 6.20006C8.40013 5.70006 7.40013 5.70006 6.70013 6.40006C6.10013 7.10006 6.00013 8.10006 6.70013 8.80006L7.00013 9.10006C7.10013 9.20006 7.20013 9.40006 7.20013 9.60006V21.1001C7.20013 21.3001 7.10013 21.5001 7.00013 21.6001L6.70013 22.0001C6.10013 22.7001 6.10013 23.7001 6.70013 24.4001C7.00013 24.8001 7.50013 25.0001 8.00013 25.0001C8.40013 25.0001 8.70013 24.9001 9.10013 24.6001L9.40013 24.4001C9.50013 24.3001 9.70013 24.2001 9.90013 24.2001H21.7001C21.9001 24.2001 22.1001 24.3001 22.2001 24.4001L22.5001 24.6001C23.2001 25.1001 24.2001 25.1001 24.8001 24.4001C25.4001 23.7001 25.5001 22.7001 24.8001 22.0001L24.6001 21.7001ZM24.1001 23.7001C23.8001 24.0001 23.4001 24.0001 23.1001 23.8001L22.8001 23.6001C22.5001 23.4001 22.1001 23.2001 21.7001 23.2001H9.90013C9.50013 23.2001 9.10013 23.3001 8.80013 23.6001L8.50013 23.8001C8.20013 24.0001 7.80013 24.0001 7.50013 23.7001C7.20013 23.4001 7.20013 23.0001 7.50013 22.7001L7.80013 22.4001C8.00013 22.0001 8.20013 21.6001 8.20013 21.1001V9.60006C8.20013 9.20006 8.00013 8.70006 7.70013 8.40006L7.40013 8.10006C7.10013 7.80006 7.10013 7.40006 7.40013 7.10006C7.60013 6.90006 7.80013 6.80006 8.00013 6.80006C8.20013 6.80006 8.30013 6.90006 8.50013 7.00006L8.80013 7.20006C9.10013 7.40006 9.50013 7.60006 9.90013 7.60006H21.7001C22.1001 7.60006 22.5001 7.50006 22.8001 7.20006L23.1001 7.00006C23.4001 6.80006 23.8001 6.80006 24.1001 7.10006C24.4001 7.40006 24.4001 7.80006 24.1001 8.10006L23.8001 8.40006C23.5001 8.70006 23.3001 9.20006 23.3001 9.60006V21.1001C23.3001 21.5001 23.5001 22.0001 23.8001 22.3001L24.1001 22.6001C24.4001 23.0001 24.4001 23.4001 24.1001 23.7001Z" fill="black"/>
<path d="M6.30021 20.2C6.10021 20 5.80021 20 5.60021 20.2L5.30021 20.5C5.00021 20.7999 4.60021 20.8 4.30021 20.6C4.00021 20.4 3.90021 19.9 4.10021 19.6L4.30021 19.2C4.50021 18.8 4.60021 18.4 4.50021 17.9L2.30021 6.69995C2.30021 6.29995 2.00021 5.89995 1.70021 5.59995L1.30021 5.39995C1.00021 5.09995 0.900207 4.69995 1.10021 4.39995C1.30021 4.09995 1.70021 3.99995 2.10021 4.09995L2.50021 4.29995C2.90021 4.49995 3.30021 4.49995 3.60021 4.39995L15.2002 2.09995C15.6002 1.99995 15.9002 1.79995 16.2002 1.49995L16.5002 1.19995C16.8002 0.899951 17.2002 0.899951 17.5002 1.09995C17.8002 1.29995 17.9002 1.79995 17.7002 2.09995L17.5002 2.49995C17.3002 2.89995 17.2002 3.29995 17.3002 3.79995L17.6002 5.79995C17.6002 6.09995 17.9002 6.29995 18.2002 6.19995C18.5002 6.19995 18.7002 5.89995 18.6002 5.59995L18.2002 3.49995C18.2002 3.29995 18.2002 3.09995 18.3002 2.89995L18.5002 2.49995C19.0002 1.69995 18.8002 0.699951 18.0002 0.199951C17.3002 -0.300049 16.3002 -0.200049 15.7002 0.499951L15.4002 0.799951C15.3002 0.999951 15.2002 1.09995 15.0002 1.09995L3.40021 3.39995C3.20021 3.39995 3.00021 3.39995 2.90021 3.29995L2.50021 3.19995C1.70021 2.79995 0.800207 3.09995 0.300207 3.79995C-0.199793 4.59995 0.000207007 5.59995 0.700207 6.19995L1.00021 6.39995C1.20021 6.49995 1.30021 6.69995 1.30021 6.89995L3.50021 18.2C3.50021 18.4 3.50021 18.5999 3.40021 18.7999L3.20021 19.2C2.80021 20 3.00021 21 3.80021 21.5C4.10021 21.7 4.50021 21.7999 4.80021 21.7999C5.30021 21.7999 5.80021 21.6 6.10021 21.2L6.40021 20.9C6.50021 20.6999 6.50021 20.4 6.30021 20.2Z" fill="black"/>
</g>
<defs>
<clipPath id="clip0">
<rect width="25.3" height="24.9" fill="white"/>
</clipPath>
</defs>
</svg>
