<svg width="32" height="25" viewBox="0 0 32 25" fill="none" xmlns="http://www.w3.org/2000/svg">
<g clip-path="url(#clip0)">
<path d="M29.8 7.1H29.4V4C29.4 3.7 29.2 3.5 28.9 3.5C28.6 3.5 28.4 3.7 28.4 4V7.1H28C27.2 7.1 26.5 7.8 26.5 8.6V10.7H16.2C16.2 10.7 16.2 10.7 16.1 10.7V2.3C16.1 1.6 16.7 1 17.4 1H27.1C27.8 1 28.4 1.5 28.4 2.2C28.4 2.5 28.6 2.7 28.9 2.7C29.2 2.7 29.4 2.5 29.4 2.2C29.4 1 28.3 0 27.1 0H17.4C16.7 0 16 0.4 15.6 0.9C15.2 0.4 14.5 0 13.8 0H4.1C2.9 0 1.8 1 1.8 2.3V7.1H1.5C0.7 7.1 0 7.8 0 8.6V16.8C0 18.2 1.1 19.3 2.5 19.3H3.6V23.6C3.6 24.3 4.2 25 5 25C5.8 25 6.4 24.4 6.4 23.6L6.7 19.3H9C9.3 19.3 9.5 19.1 9.5 18.8C9.5 18.5 9.3 18.3 9 18.3H2.5C1.7 18.3 1 17.6 1 16.8V8.6C1 8.3 1.2 8.1 1.5 8.1H3.3C3.6 8.1 3.8 8.3 3.8 8.6V10.7H3C2.4 10.7 2 11.1 2 11.7V14.6C2 15.2 2.4 15.6 3 15.6H15.6H28.1C28.7 15.6 29.2 15.1 29.2 14.5V11.8C29.2 11.2 28.7 10.7 28.1 10.7H27.5V8.6C27.5 8.3 27.7 8.1 28 8.1H29.8C30.1 8.1 30.3 8.3 30.3 8.6V16.8C30.3 17.6 29.6 18.3 28.8 18.3H11.3C11 18.3 10.8 18.5 10.8 18.8C10.8 19.1 11 19.3 11.3 19.3H24.5L24.8 23.6C24.8 24.4 25.5 25 26.2 25C27 25 27.6 24.4 27.6 23.6V19.3H28.7C30.1 19.3 31.2 18.2 31.2 16.8V8.6C31.2 7.8 30.6 7.1 29.8 7.1ZM5.5 23.5C5.5 23.8 5.3 24 5 24C4.8 24 4.6 23.8 4.6 23.6V19.3H5.8L5.5 23.5ZM3.2 7.1H2.8V2.3C2.8 1.6 3.4 1 4.1 1H13.8C14.5 1 15.1 1.6 15.1 2.3V10.6H4.7V8.6C4.7 7.8 4 7.1 3.2 7.1ZM3 11.6H15.1V14.5H3V11.6ZM28.3 11.7V14.4C28.3 14.5 28.3 14.5 28.2 14.5H16.2V11.6H28.2L28.3 11.7ZM26.6 23.5C26.6 23.7 26.4 23.9 26.2 23.9C26 23.9 25.8 23.7 25.8 23.5L25.5 19.2H26.7V23.5H26.6Z" fill="black"/>
</g>
<defs>
<clipPath id="clip0">
<rect width="31.2" height="25" fill="white"/>
</clipPath>
</defs>
</svg>
